{
.appVersion = "954";
classes = (
{
automatic = 1;

glyphs = (
{
glyphname = A;
lastChange = "2016-12-22 13:06:26 +0000";
layers = (
{
anchors = (
{
name = bottom;
position = "{356.006, 0}";
},
{
name = ogonek;
position = "{696, 0}";
},
{
name = top;
position = "{356, 760}";
}
);
color = -1;
layerId = "E6A13138-87C4-4EDC-BDCD-C4EF9152A586";
paths = (
{
closed = 1;
nodes = (
"98 0 LINE",
"362 701 LINE",
"348 701 LINE",
"612 0 LINE",
"696 0 LINE",
"414 740 LINE",
"297 740 LINE",
"15 0 LINE"
);
},
{
closed = 1;
nodes = (
"549 239 LINE",
"529 308 LINE",
"182 308 LINE",
"162 239 LINE"
);
}
);
width = 711;
}
);
leftKerningGroup = A;
note = "\012    520\012  ";
rightKerningGroup = A;
unicode = 0041;
userData = {
com.typemytype.robofont.layerData = {
};
};
},
{
glyphname = AE;
lastChange = "2016-12-22 13:06:40 +0000";
layers = (
{
anchors = (
{
name = bottom;
position = "{518, 0}";
},
{
name = top;
position = "{478, 760}";
}
);
color = -1;
layerId = "E6A13138-87C4-4EDC-BDCD-C4EF9152A586";
paths = (
{
closed = 1;
nodes = (
"99 0 LINE",
"356 670 LINE",
"472 670 LINE",
"473 740 LINE",
"301 740 LINE",
"15 0 LINE"
);
},
{
closed = 1;
nodes = (
"502 239 LINE",
"502 309 LINE",
"185 309 LINE",
"165 239 LINE"
);
},
{
closed = 1;
nodes = (
"931 0 LINE",
"931 70 LINE",
"571 70 LINE",
"522 670 LINE",
"926 670 LINE",
"926 740 LINE",
"436 740 LINE",
"493 0 LINE"
);
},
{
closed = 1;
nodes = (
"876 345 LINE",
"876 415 LINE",
"512 415 LINE",
"512 345 LINE"
);
}
);
width = 973;
}
);
leftKerningGroup = A;
leftMetricsKey = A;
rightKerningGroup = E;
rightMetricsKey = E;
unicode = 00C6;
},
{
glyphname = B;
lastChange = "2016-12-22 13:06:26 +0000";
layers = (
{
anchors = (
{
name = bottom;
position = "{336, 0}";
},
{
name = top;
position = "{336, 740}";
}
);
color = -1;
layerId = "E6A13138-87C4-4EDC-BDCD-C4EF9152A586";
paths = (
{
closed = 1;
nodes = (
"530 -6 OFFCURVE",
"622 67 OFFCURVE",
"622 203 CURVE SMOOTH",
"622 304 OFFCURVE",
"565 371 OFFCURVE",
"447 385 CURVE",
"445 378 LINE",
"553 394 OFFCURVE",
"600 461 OFFCURVE",
"600 549 CURVE SMOOTH",
"600 682 OFFCURVE",
"513 748 OFFCURVE",
"306 748 CURVE SMOOTH",
"224 748 OFFCURVE",
"156 740 OFFCURVE",
"89 726 CURVE",
"89 7 LINE",
"159 -2 OFFCURVE",
"221 -6 OFFCURVE",
"284 -6 CURVE SMOOTH"
);
},
{
closed = 1;
nodes = (
"251 59 OFFCURVE",
"213 61 OFFCURVE",
"170 67 CURVE",
"170 670 LINE",
"211 678 OFFCURVE",
"253 682 OFFCURVE",
"315 682 CURVE SMOOTH",
"463 682 OFFCURVE",
"521 643 OFFCURVE",
"521 546 CURVE SMOOTH",
"521 454 OFFCURVE",
"464 413 OFFCURVE",
"334 413 CURVE SMOOTH",
"159 413 LINE",
"159 346 LINE",
"346 346 LINE SMOOTH",
"481 346 OFFCURVE",
"543 303 OFFCURVE",
"543 206 CURVE SMOOTH",
"543 108 OFFCURVE",
"486 59 OFFCURVE",
"302 59 CURVE SMOOTH"
);
}
);
width = 658;
}
);
leftKerningGroup = H;
leftMetricsKey = H;
rightKerningGroup = B;
unicode = 0042;
userData = {
com.typemytype.robofont.layerData = {
};
};
},
{
glyphname = C;
lastChange = "2016-12-22 13:06:26 +0000";
layers = (
{
anchors = (
{
name = bottom;
position = "{378, 0}";
},
{
name = top;
position = "{371, 760}";
}
);
color = -1;
layerId = "E6A13138-87C4-4EDC-BDCD-C4EF9152A586";
paths = (
{
closed = 1;
nodes = (
"477 -9 OFFCURVE",
"538 0 OFFCURVE",
"593 20 CURVE",
"593 92 LINE",
"529 71 OFFCURVE",
"476 63 OFFCURVE",
"417 63 CURVE SMOOTH",
"247 63 OFFCURVE",
"143 140 OFFCURVE",
"143 371 CURVE SMOOTH",
"143 592 OFFCURVE",
"244 677 OFFCURVE",
"423 677 CURVE SMOOTH",
"482 677 OFFCURVE",
"538 669 OFFCURVE",
"593 654 CURVE",
"593 726 LINE",
"537 742 OFFCURVE",
"483 749 OFFCURVE",
"419 749 CURVE SMOOTH",
"193 749 OFFCURVE",
"55 632 OFFCURVE",
"55 369 CURVE SMOOTH",
"55 93 OFFCURVE",
"197 -9 OFFCURVE",
"411 -9 CURVE SMOOTH"
);
}
);
width = 615;
}
);
leftKerningGroup = O;
leftMetricsKey = O;
rightKerningGroup = C;
unicode = 0043;
userData = {
com.typemytype.robofont.layerData = {
};
};
},
{
glyphname = D;
lastChange = "2016-12-22 13:06:26 +0000";
layers = (
{
anchors = (
{
name = bottom;
position = "{341, 0}";
},
{
name = center;
position = "{370, 370}";
},
{
name = stroke;
position = "{89, 381}";
},
{
name = top;
position = "{338, 760}";
}
);
color = -1;
layerId = "E6A13138-87C4-4EDC-BDCD-C4EF9152A586";
paths = (
{
closed = 1;
nodes = (
"552 -6 OFFCURVE",
"689 113 OFFCURVE",
"689 370 CURVE SMOOTH",
"689 625 OFFCURVE",
"555 747 OFFCURVE",
"298 747 CURVE SMOOTH",
"231 747 OFFCURVE",
"155 740 OFFCURVE",
"89 726 CURVE",
"89 6 LINE",
"161 -3 OFFCURVE",
"218 -6 OFFCURVE",
"281 -6 CURVE SMOOTH"
);
},
{
closed = 1;
nodes = (
"246 65 OFFCURVE",
"208 67 OFFCURVE",
"172 73 CURVE",
"172 666 LINE",
"217 673 OFFCURVE",
"260 677 OFFCURVE",
"301 677 CURVE SMOOTH",
"501 677 OFFCURVE",
"603 583 OFFCURVE",
"603 370 CURVE SMOOTH",
"603 157 OFFCURVE",
"502 65 OFFCURVE",
"298 65 CURVE SMOOTH"
);
}
);
width = 744;
}
);
leftKerningGroup = H;
leftMetricsKey = H;
rightKerningGroup = O;
rightMetricsKey = O;
unicode = 0044;
userData = {
com.typemytype.robofont.layerData = {
};
};
},
{
glyphname = E;
lastChange = "2016-12-22 13:06:26 +0000";
layers = (
{
anchors = (
{
name = bottom;
position = "{344, 0}";
},
{
name = ogonek;
position = "{538, 0}";
},
{
name = top;
position = "{342, 760}";
},
{
name = topleft;
position = "{19, 740}";
}
);
color = -1;
layerId = "E6A13138-87C4-4EDC-BDCD-C4EF9152A586";
paths = (
{
closed = 1;
nodes = (
"580 0 LINE",
"580 70 LINE",
"171 70 LINE",
"171 670 LINE",
"575 670 LINE",
"575 740 LINE",
"89 740 LINE",
"89 0 LINE"
);
},
{
closed = 1;
nodes = (
"525 345 LINE",
"525 415 LINE",
"138 415 LINE",
"138 345 LINE"
);
}
);
width = 622;
}
);
leftKerningGroup = H;
leftMetricsKey = H;
rightKerningGroup = E;
unicode = 0045;
userData = {
com.typemytype.robofont.layerData = {
};
};
},
{
glyphname = F;
lastChange = "2016-12-22 13:06:26 +0000";
layers = (
{
color = -1;
layerId = "E6A13138-87C4-4EDC-BDCD-C4EF9152A586";
paths = (
{
closed = 1;
nodes = (
"172 0 LINE",
"172 669 LINE",
"571 669 LINE",
"571.006 740 LINE",
"89 740 LINE",
"89 0 LINE"
);
},
{
closed = 1;
nodes = (
"521 338 LINE",
"521 409 LINE",
"147 409 LINE",
"147 338 LINE"
);
}
);
width = 601;
}
);
leftKerningGroup = H;
leftMetricsKey = H;
rightKerningGroup = F;
unicode = 0046;
userData = {
com.typemytype.robofont.layerData = {
};
};
},
{
glyphname = G;
lastChange = "2016-12-22 13:06:26 +0000";
layers = (
{
anchors = (
{
name = bottom;
position = "{393, 0}";
},
{
name = top;
position = "{393, 760}";
}
);
color = -1;
layerId = "E6A13138-87C4-4EDC-BDCD-C4EF9152A586";
paths = (
{
closed = 1;
nodes = (
"515 -6 OFFCURVE",
"567 -2 OFFCURVE",
"637 9 CURVE",
"637 360 LINE",
"558 360 LINE",
"558 43 LINE",
"591 77 LINE",
"551 69 OFFCURVE",
"506 65 OFFCURVE",
"450 65 CURVE SMOOTH",
"247 65 OFFCURVE",
"143 160 OFFCURVE",
"143 369 CURVE SMOOTH",
"142 592 OFFCURVE",
"260 677 OFFCURVE",
"444 677 CURVE SMOOTH",
"497 677 OFFCURVE",
"550 672 OFFCURVE",
"617 654 CURVE",
"617 726 LINE",
"555 741 OFFCURVE",
"499 749 OFFCURVE",
"438 749 CURVE SMOOTH",
"208 749 OFFCURVE",
"55 633 OFFCURVE",
"55 369 CURVE SMOOTH",
"56 114 OFFCURVE",
"192 -6 OFFCURVE",
"455 -6 CURVE SMOOTH"
);
}
);
width = 719;
}
);
leftKerningGroup = O;
leftMetricsKey = O;
rightKerningGroup = G;
unicode = 0047;
userData = {
com.typemytype.robofont.layerData = {
};
};
},
{
glyphname = H;
lastChange = "2016-12-22 13:06:26 +0000";
layers = (
{
anchors = (
{
name = bottom;
position = "{382, 0}";
},
{
name = center;
position = "{382, 580}";
},
{
name = top;
position = "{382, 760}";
},
{
name = topleft;
position = "{19, 740}";
}
);
color = -1;
layerId = "E6A13138-87C4-4EDC-BDCD-C4EF9152A586";
paths = (
{
closed = 1;
nodes = (
"172 0 LINE",
"172 342 LINE",
"592 342 LINE",
"592 0 LINE",
"676 0 LINE",
"676 740 LINE",
"592 740 LINE",
"592 417 LINE",
"172 417 LINE",
"172 740 LINE",
"89 740 LINE",
"89 0 LINE"
);
}
);
width = 764;
}
);
leftKerningGroup = H;
rightKerningGroup = H;
unicode = 0048;
userData = {
com.typemytype.robofont.layerData = {
};
};
},
{
glyphname = I;
lastChange = "2016-12-22 13:06:40 +0000";
layers = (
{
anchors = (
{
name = bottom;
position = "{130, 0}";
},
{
name = ogonek;
position = "{172, 0}";
},
{
name = top;
position = "{130, 760}";
}
);
color = -1;
layerId = "E6A13138-87C4-4EDC-BDCD-C4EF9152A586";
paths = (
{
closed = 1;
nodes = (
"172 0 LINE",
"172 740 LINE",
"89 740 LINE",
"89 0 LINE"
);
}
);
width = 260;
}
);
leftKerningGroup = H;
leftMetricsKey = H;
rightKerningGroup = H;
rightMetricsKey = H;
unicode = 0049;
userData = {
com.typemytype.robofont.layerData = {
};
};
},
{
glyphname = J;
lastChange = "2016-12-22 13:06:40 +0000";
layers = (
{
anchors = (
{
name = bottom;
position = "{194, 0}";
},
{
name = top;
position = "{130, 760}";
}
);
color = -1;
layerId = "E6A13138-87C4-4EDC-BDCD-C4EF9152A586";
paths = (
{
closed = 1;
nodes = (
"136 -72 OFFCURVE",
"167 17 OFFCURVE",
"172 135 CURVE",
"172 740 LINE",
"89 740 LINE",
"89 145 LINE SMOOTH",
"89 32 OFFCURVE",
"61 -50 OFFCURVE",
"-5 -134 CURVE",
"49 -172 LINE"
);
}
);
width = 260;
}
);
leftKerningGroup = H;
widthMetricsKey = I;
rightKerningGroup = H;
rightMetricsKey = H;
unicode = 004A;
userData = {
com.typemytype.robofont.layerData = {
};
};
},
{
glyphname = K;
lastChange = "2016-12-22 13:06:26 +0000";
layers = (
{
anchors = (
{
name = bottom;
position = "{337, 0}";
},
{
name = top;
position = "{335, 740}";
}
);
color = -1;
layerId = "E6A13138-87C4-4EDC-BDCD-C4EF9152A586";
paths = (
{
closed = 1;
nodes = (
"658 0 LINE",
"352 392 LINE",
"351 369 LINE",
"637 740 LINE",
"545 740 LINE",
"267 378 LINE",
"564 0 LINE"
);
},
{
closed = 1;
nodes = (
"172 0 LINE",
"172 740 LINE",
"89 740 LINE",
"89 0 LINE"
);
},
{
closed = 1;
nodes = (
"305 342 LINE",
"305 417 LINE",
"158 417 LINE",
"158 342 LINE"
);
}
);
width = 651;
}
);
leftKerningGroup = H;
leftMetricsKey = H;
rightKerningGroup = K;
unicode = 004B;
userData = {
com.typemytype.robofont.layerData = {
};
};
},
{
glyphname = L;
lastChange = "2016-12-22 13:06:26 +0000";
layers = (
{
anchors = (
{
name = bottom;
position = "{325, 0}";
},
{
name = caronalt;
position = "{371, 808}";
},
{
name = periodcentered;
position = "{409, 406}";
},
{
name = slash;
position = "{131, 398}";
},
{
name = top;
position = "{131, 760}";
}
);
color = -1;
layerId = "E6A13138-87C4-4EDC-BDCD-C4EF9152A586";
paths = (
{
closed = 1;
nodes = (
"561 0 LINE",
"561 72 LINE",
"172 72 LINE",
"172 740 LINE",
"89 740 LINE",
"89 0 LINE"
);
}
);
width = 567;
}
);
leftKerningGroup = H;
leftMetricsKey = H;
rightKerningGroup = L;
unicode = 004C;
userData = {
com.typemytype.robofont.layerData = {
};
};
},
{
glyphname = M;
lastChange = "2016-12-22 13:06:40 +0000";
layers = (
{
anchors = (
{
name = bottom;
position = "{465, 0}";
},
{
name = top;
position = "{465, 740}";
}
);
color = -1;
layerId = "E6A13138-87C4-4EDC-BDCD-C4EF9152A586";
paths = (
{
closed = 1;
nodes = (
"169 0 LINE",
"169 668 LINE",
"142 668 LINE",
"424 103 LINE",
"498 103 LINE",
"776 668 LINE",
"753 668 LINE",
"753 0 LINE",
"831 0 LINE",
"831 740 LINE",
"732 740 LINE",
"454 167 LINE",
"471 167 LINE",
"189 740 LINE",
"91 740 LINE",
"91 0 LINE"
);
}
);
width = 921;
}
);
leftKerningGroup = H;
leftMetricsKey = "=H+2";
rightKerningGroup = H;
rightMetricsKey = "=H+2";
unicode = 004D;
userData = {
com.typemytype.robofont.layerData = {
};
};
},
{
glyphname = N;
lastChange = "2016-12-22 13:06:40 +0000";
layers = (
{
anchors = (
{
name = bottom;
position = "{389, 0}";
},
{
name = top;
position = "{389, 760}";
}
);
color = -1;
layerId = "E6A13138-87C4-4EDC-BDCD-C4EF9152A586";
paths = (
{
closed = 1;
nodes = (
"168 0 LINE",
"168 645 LINE",
"148 645 LINE",
"603 0 LINE",
"688 0 LINE",
"688 740 LINE",
"609 740 LINE",
"609 95 LINE",
"629 95 LINE",
"174 740 LINE",
"89 740 LINE",
"89 0 LINE"
);
}
);
width = 776;
}
);
leftKerningGroup = H;
leftMetricsKey = H;
rightKerningGroup = H;
rightMetricsKey = H;
unicode = 004E;
userData = {
com.typemytype.robofont.layerData = {
};
};
},
{
glyphname = Eng;
lastChange = "2016-12-22 13:06:40 +0000";
layers = (
{
color = -1;
layerId = "E6A13138-87C4-4EDC-BDCD-C4EF9152A586";
paths = (
{
closed = 1;
nodes = (
"638 84 LINE",
"174 740 LINE",
"89 740 LINE",
"89 0 LINE",
"168 0 LINE",
"168 645 LINE",
"147 645 LINE",
"617 -22 LINE"
);
},
{
closed = 1;
nodes = (
"652 -132 OFFCURVE",
"688 -37 OFFCURVE",
"688 94 CURVE SMOOTH",
"688 740 LINE",
"609 740 LINE",
"609 85 LINE SMOOTH",
"609 -28 OFFCURVE",
"579 -110 OFFCURVE",
"512 -195 CURVE",
"566 -232 LINE"
);
}
);
width = 776;
}
);
leftKerningGroup = H;
leftMetricsKey = H;
rightKerningGroup = H;
rightMetricsKey = H;
unicode = 014A;
},
{
glyphname = O;
lastChange = "2016-12-22 13:06:26 +0000";
layers = (
{
anchors = (
{
name = bottom;
position = "{384, 0}";
},
{
name = center;
position = "{384, 370}";
},
{
name = ogonek;
position = "{471, 0}";
},
{
name = top;
position = "{384, 760}";
},
{
name = topleft;
position = "{22, 740}";
},
{
name = topright;
position = "{475, 740}";
}
);
color = -1;
layerId = "E6A13138-87C4-4EDC-BDCD-C4EF9152A586";
paths = (
{
closed = 1;
nodes = (
"579 -9 OFFCURVE",
"713 107 OFFCURVE",
"713 370 CURVE SMOOTH",
"713 633 OFFCURVE",
"581 749 OFFCURVE",
"384 749 CURVE SMOOTH",
"190 749 OFFCURVE",
"55 633 OFFCURVE",
"55 370 CURVE SMOOTH",
"55 107 OFFCURVE",
"188 -9 OFFCURVE",
"384 -9 CURVE SMOOTH"
);
},
{
closed = 1;
nodes = (
"238 62 OFFCURVE",
"141 146 OFFCURVE",
"141 373 CURVE SMOOTH",
"141 594 OFFCURVE",
"239 678 OFFCURVE",
"384 678 CURVE SMOOTH",
"530 678 OFFCURVE",
"627 593 OFFCURVE",
"627 367 CURVE SMOOTH",
"627 147 OFFCURVE",
"530 62 OFFCURVE",
"384 62 CURVE SMOOTH"
);
}
);
width = 768;
}
);
leftKerningGroup = O;
rightKerningGroup = O;
unicode = 004F;
userData = {
com.typemytype.robofont.layerData = {
};
};
},
{
glyphname = Ohorn;
lastChange = "2016-12-22 13:06:26 +0000";
layers = (
{
anchors = (
{
name = bottom;
position = "{384, 0}";
},
{
name = top;
position = "{384, 760}";
}
);
color = -1;
layerId = "E6A13138-87C4-4EDC-BDCD-C4EF9152A586";
paths = (
{
closed = 1;
nodes = (
"581 -9 OFFCURVE",
"713 103 OFFCURVE",
"713 370 CURVE SMOOTH",
"713 543 OFFCURVE",
"657 651 OFFCURVE",
"565 704 CURVE",
"562 687 LINE",
"659 687 OFFCURVE",
"715 732 OFFCURVE",
"715 814 CURVE SMOOTH",
"715 843 OFFCURVE",
"712 863 OFFCURVE",
"703 888 CURVE",
"642 888 LINE",
"649 863 OFFCURVE",
"653 843 OFFCURVE",
"653 817 CURVE SMOOTH",
"653 762 OFFCURVE",
"616 737 OFFCURVE",
"551 737 CURVE SMOOTH",
"486 737 OFFCURVE",
"442 749 OFFCURVE",
"384 749 CURVE SMOOTH",
"190 749 OFFCURVE",
"55 633 OFFCURVE",
"55 370 CURVE SMOOTH",
"55 107 OFFCURVE",
"188 -9 OFFCURVE",
"384 -9 CURVE SMOOTH"
);
},
{
closed = 1;
nodes = (
"238 62 OFFCURVE",
"141 146 OFFCURVE",
"141 373 CURVE SMOOTH",
"141 594 OFFCURVE",
"239 678 OFFCURVE",
"384 678 CURVE SMOOTH",
"530 678 OFFCURVE",
"627 593 OFFCURVE",
"627 367 CURVE SMOOTH",
"627 147 OFFCURVE",
"530 62 OFFCURVE",
"384 62 CURVE SMOOTH"
);
}
);
width = 768;
}
);
leftKerningGroup = O;
leftMetricsKey = O;
widthMetricsKey = O;
rightKerningGroup = O;
unicode = 01A0;
},
{
glyphname = Ohorntilde;
lastChange = "2016-12-22 13:06:26 +0000";
layers = (
{
color = -1;
layerId = "E6A13138-87C4-4EDC-BDCD-C4EF9152A586";
paths = (
{
closed = 1;
nodes = (
"581 -9 OFFCURVE",
"713 103 OFFCURVE",
"713 370 CURVE SMOOTH",
"713 543 OFFCURVE",
"657 651 OFFCURVE",
"565 704 CURVE",
"562 687 LINE",
"659 687 OFFCURVE",
"715 732 OFFCURVE",
"715 814 CURVE SMOOTH",
"715 843 OFFCURVE",
"712 863 OFFCURVE",
"703 888 CURVE",
"642 888 LINE",
"649 863 OFFCURVE",
"653 843 OFFCURVE",
"653 817 CURVE SMOOTH",
"653 762 OFFCURVE",
"616 737 OFFCURVE",
"551 737 CURVE SMOOTH",
"486 737 OFFCURVE",
"442 749 OFFCURVE",
"384 749 CURVE SMOOTH",
"190 749 OFFCURVE",
"55 633 OFFCURVE",
"55 370 CURVE SMOOTH",
"55 107 OFFCURVE",
"188 -9 OFFCURVE",
"384 -9 CURVE SMOOTH"
);
},
{
closed = 1;
nodes = (
"238 62 OFFCURVE",
"141 146 OFFCURVE",
"141 373 CURVE SMOOTH",
"141 594 OFFCURVE",
"239 678 OFFCURVE",
"384 678 CURVE SMOOTH",
"530 678 OFFCURVE",
"627 593 OFFCURVE",
"627 367 CURVE SMOOTH",
"627 147 OFFCURVE",
"530 62 OFFCURVE",
"384 62 CURVE SMOOTH"
);
},
{
closed = 1;
nodes = (
"505 834 OFFCURVE",
"534 844 OFFCURVE",
"555 866 CURVE",
"555 922 LINE",
"529 898 OFFCURVE",
"503 887 OFFCURVE",
"465 887 CURVE SMOOTH",
"413 887 OFFCURVE",
"367 925 OFFCURVE",
"304 925 CURVE SMOOTH",
"263 925 OFFCURVE",
"235 914 OFFCURVE",
"213 892 CURVE",
"213 836 LINE",
"239 860 OFFCURVE",
"265 871 OFFCURVE",
"303 871 CURVE SMOOTH",
"356 871 OFFCURVE",
"401 834 OFFCURVE",
"464 834 CURVE SMOOTH"
);
}
);
width = 768;
}
);
leftKerningGroup = O;
rightKerningGroup = O;
unicode = 1EE0;
},
{
glyphname = Oogonek;
lastChange = "2016-12-22 13:06:26 +0000";
layers = (
{
color = -1;
layerId = "E6A13138-87C4-4EDC-BDCD-C4EF9152A586";
paths = (
{
closed = 1;
nodes = (
"470 -208 OFFCURVE",
"501 -201 OFFCURVE",
"530 -189 CURVE",
"530 -149 LINE",
"495 -162 OFFCURVE",
"471 -168 OFFCURVE",
"445 -168 CURVE SMOOTH",
"394 -168 OFFCURVE",
"369 -147 OFFCURVE",
"369 -111 CURVE SMOOTH",
"369 -69 OFFCURVE",
"397 -28 OFFCURVE",
"506 8 CURVE SMOOTH",
"623 46 OFFCURVE",
"713 153 OFFCURVE",
"713 370 CURVE SMOOTH",
"713 637 OFFCURVE",
"579 749 OFFCURVE",
"384 749 CURVE SMOOTH",
"190 749 OFFCURVE",
"55 633 OFFCURVE",
"55 370 CURVE SMOOTH",
"55 107 OFFCURVE",
"186 -9 OFFCURVE",
"384 -9 CURVE SMOOTH",
"414 -9 LINE",
"418 8 LINE",
"342 -26 OFFCURVE",
"316 -67 OFFCURVE",
"316 -116 CURVE SMOOTH",
"316 -173 OFFCURVE",
"358 -208 OFFCURVE",
"438 -208 CURVE SMOOTH"
);
},
{
closed = 1;
nodes = (
"238 62 OFFCURVE",
"141 146 OFFCURVE",
"141 373 CURVE SMOOTH",
"141 594 OFFCURVE",
"239 678 OFFCURVE",
"384 678 CURVE SMOOTH",
"530 678 OFFCURVE",
"627 593 OFFCURVE",
"627 367 CURVE SMOOTH",
"627 147 OFFCURVE",
"530 62 OFFCURVE",
"384 62 CURVE SMOOTH"
);
}
);
width = 768;
}
);
leftKerningGroup = O;
leftMetricsKey = O;
widthMetricsKey = O;
rightKerningGroup = O;
unicode = 01EA;
},
{
glyphname = OE;
lastChange = "2016-12-22 13:06:26 +0000";
layers = (
{
anchors = (
{
name = bottom;
position = "{599, 0}";
},
{
name = top;
position = "{599, 760}";
}
);
color = -1;
layerId = "E6A13138-87C4-4EDC-BDCD-C4EF9152A586";
paths = (
{
closed = 1;
nodes = (
"505 -5 OFFCURVE",
"576 0 OFFCURVE",
"624 0 CURVE SMOOTH",
"1031 0 LINE",
"1031 70 LINE",
"640 70 LINE",
"640 670 LINE",
"1026 670 LINE",
"1026 740 LINE",
"617 740 LINE SMOOTH",
"565 740 OFFCURVE",
"503 747 OFFCURVE",
"447 747 CURVE SMOOTH",
"193 747 OFFCURVE",
"55 624 OFFCURVE",
"55 370 CURVE SMOOTH",
"55 114 OFFCURVE",
"190 -5 OFFCURVE",
"451 -5 CURVE SMOOTH"
);
},
{
closed = 1;
nodes = (
"243 66 OFFCURVE",
"141 157 OFFCURVE",
"141 370 CURVE SMOOTH",
"141 582 OFFCURVE",
"242 676 OFFCURVE",
"437 676 CURVE SMOOTH",
"482 676 OFFCURVE",
"517 674 OFFCURVE",
"558 670 CURVE",
"558 70 LINE",
"528 67 OFFCURVE",
"490 66 OFFCURVE",
"438 66 CURVE SMOOTH"
);
},
{
closed = 1;
nodes = (
"975 345 LINE",
"975 415 LINE",
"613 415 LINE",
"613 345 LINE"
);
}
);
width = 1073;
}
);
leftKerningGroup = O;
leftMetricsKey = O;
rightKerningGroup = E;
rightMetricsKey = E;
unicode = 0152;
},
{
glyphname = P;
lastChange = "2016-12-22 13:06:26 +0000";
layers = (
{
color = -1;
layerId = "E6A13138-87C4-4EDC-BDCD-C4EF9152A586";
paths = (
{
closed = 1;
nodes = (
"172 0 LINE",
"172 247 LINE",
"211 244 OFFCURVE",
"242 242 OFFCURVE",
"280 242 CURVE SMOOTH",
"502 242 OFFCURVE",
"602 332 OFFCURVE",
"602 496 CURVE SMOOTH",
"602 670 OFFCURVE",
"494 748 OFFCURVE",
"293 748 CURVE SMOOTH",
"219 748 OFFCURVE",
"157 741 OFFCURVE",
"89 727 CURVE",
"89 0 LINE"
);
},
{
closed = 1;
nodes = (
"240 309 OFFCURVE",
"207 311 OFFCURVE",
"172 316 CURVE",
"172 670 LINE",
"210 677 OFFCURVE",
"249 681 OFFCURVE",
"298 681 CURVE SMOOTH",
"446 681 OFFCURVE",
"519 625 OFFCURVE",
"519 495 CURVE SMOOTH",
"519 370 OFFCURVE",
"451 309 OFFCURVE",
"281 309 CURVE SMOOTH"
);
}
);
width = 646;
}
);
leftKerningGroup = H;
leftMetricsKey = H;
rightKerningGroup = P;
unicode = 0050;
userData = {
com.typemytype.robofont.layerData = {
};
};
},
{
glyphname = Thorn;
lastChange = "2016-12-22 13:06:26 +0000";
layers = (
{
color = -1;
layerId = "E6A13138-87C4-4EDC-BDCD-C4EF9152A586";
paths = (
{
closed = 1;
nodes = (
"172 0 LINE",
"172 132 LINE",
"211 129 OFFCURVE",
"242 127 OFFCURVE",
"281 127 CURVE SMOOTH",
"502 127 OFFCURVE",
"602 217 OFFCURVE",
"602 381 CURVE SMOOTH",
"602 556 OFFCURVE",
"495 633 OFFCURVE",
"294 633 CURVE SMOOTH",
"243 633 OFFCURVE",
"205 629 OFFCURVE",
"172 623 CURVE",
"172 741 LINE",
"89 741 LINE",
"89 0 LINE"
);
},
{
closed = 1;
nodes = (
"240 194 OFFCURVE",
"207 196 OFFCURVE",
"172 201 CURVE",
"172 555 LINE",
"210 562 OFFCURVE",
"249 566 OFFCURVE",
"298 566 CURVE SMOOTH",
"446 566 OFFCURVE",
"519 510 OFFCURVE",
"519 380 CURVE SMOOTH",
"519 255 OFFCURVE",
"451 194 OFFCURVE",
"281 194 CURVE SMOOTH"
);
}
);
width = 651;
}
);
leftKerningGroup = H;
leftMetricsKey = H;
rightKerningGroup = Thorn;
rightMetricsKey = "=P+5";
unicode = 00DE;
userData = {
com.typemytype.robofont.layerData = {
};
};
},
{
glyphname = Q;
lastChange = "2016-12-22 13:06:26 +0000";
layers = (
{
color = -1;
layerId = "E6A13138-87C4-4EDC-BDCD-C4EF9152A586";
paths = (
{
closed = 1;
nodes = (
"700 -47 LINE",
"582 -37 OFFCURVE",
"452 -16 OFFCURVE",
"354 22 CURVE",
"333 1 LINE",
"581 -27 OFFCURVE",
"713 106 OFFCURVE",
"713 370 CURVE SMOOTH",
"713 637 OFFCURVE",
"579 749 OFFCURVE",
"384 749 CURVE SMOOTH",
"190 749 OFFCURVE",
"55 633 OFFCURVE",
"55 369 CURVE SMOOTH",
"55 79 OFFCURVE",
"198 -61 OFFCURVE",
"687 -116 CURVE"
);
},
{
closed = 1;
nodes = (
"238 62 OFFCURVE",
"141 146 OFFCURVE",
"141 373 CURVE SMOOTH",
"141 594 OFFCURVE",
"239 678 OFFCURVE",
"384 678 CURVE SMOOTH",
"530 678 OFFCURVE",
"627 593 OFFCURVE",
"627 367 CURVE SMOOTH",
"627 147 OFFCURVE",
"530 62 OFFCURVE",
"384 62 CURVE SMOOTH"
);
}
);
width = 768;
}
);
leftKerningGroup = O;
leftMetricsKey = O;
widthMetricsKey = O;
rightKerningGroup = O;
unicode = 0051;
userData = {
com.typemytype.robofont.layerData = {
};
};
},
{
glyphname = R;
lastChange = "2016-12-22 13:06:26 +0000";
layers = (
{
anchors = (
{
name = bottom;
position = "{356, 0}";
},
{
name = top;
position = "{332, 760}";
}
);
color = -1;
layerId = "E6A13138-87C4-4EDC-BDCD-C4EF9152A586";
paths = (
{
closed = 1;
nodes = (
"171 0 LINE",
"171 310 LINE",
"210 307 OFFCURVE",
"242 305 OFFCURVE",
"287 305 CURVE SMOOTH",
"494 305 OFFCURVE",
"602 380 OFFCURVE",
"602 528 CURVE SMOOTH",
"602 681 OFFCURVE",
"504 748 OFFCURVE",
"299 748 CURVE SMOOTH",
"216 748 OFFCURVE",
"148 738 OFFCURVE",
"89 726 CURVE",
"89 0 LINE"
);
},
{
closed = 1;
nodes = (
"657 0 LINE",
"382 349 LINE",
"290 349 LINE",
"563 0 LINE"
);
},
{
closed = 1;
nodes = (
"239 371 OFFCURVE",
"214 373 OFFCURVE",
"171 377 CURVE",
"171 670 LINE",
"211 677 OFFCURVE",
"248 682 OFFCURVE",
"305 682 CURVE SMOOTH",
"457 682 OFFCURVE",
"522 640 OFFCURVE",
"522 527 CURVE SMOOTH",
"522 421 OFFCURVE",
"453 371 OFFCURVE",
"289 371 CURVE SMOOTH"
);
}
);
width = 686;
}
);
leftKerningGroup = H;
leftMetricsKey = H;
rightKerningGroup = R;
unicode = 0052;
userData = {
com.typemytype.robofont.layerData = {
};
};
},
{
glyphname = S;
lastChange = "2016-12-22 13:06:26 +0000";
layers = (
{
anchors = (
{
name = bottom;
position = "{287, 0}";
},
{
name = top;
position = "{287, 760}";
}
);
color = -1;
layerId = "E6A13138-87C4-4EDC-BDCD-C4EF9152A586";
paths = (
{
closed = 1;
nodes = (
"424 -9 OFFCURVE",
"525 67 OFFCURVE",
"525 202 CURVE SMOOTH",
"525 309 OFFCURVE",
"461 371 OFFCURVE",
"311 404 CURVE SMOOTH",
"268 414 LINE SMOOTH",
"161 438 OFFCURVE",
"123 474 OFFCURVE",
"123 547 CURVE SMOOTH",
"123 630 OFFCURVE",
"183 679 OFFCURVE",
"320 679 CURVE SMOOTH",
"377 679 OFFCURVE",
"437 671 OFFCURVE",
"492 654 CURVE",
"492 725 LINE",
"440 741 OFFCURVE",
"379 749 OFFCURVE",
"317 749 CURVE SMOOTH",
"131 749 OFFCURVE",
"39 670 OFFCURVE",
"39 542 CURVE SMOOTH",
"39 434 OFFCURVE",
"104 370 OFFCURVE",
"241 340 CURVE SMOOTH",
"283 330 LINE SMOOTH",
"398 305 OFFCURVE",
"441 272 OFFCURVE",
"441 197 CURVE SMOOTH",
"441 109 OFFCURVE",
"380 61 OFFCURVE",
"247 61 CURVE SMOOTH",
"189 61 OFFCURVE",
"118 71 OFFCURVE",
"51 93 CURVE",
"51 21 LINE",
"113 1 OFFCURVE",
"184 -9 OFFCURVE",
"247 -9 CURVE SMOOTH"
);
}
);
width = 564;
}
);
leftKerningGroup = S;
rightKerningGroup = S;
unicode = 0053;
userData = {
com.typemytype.robofont.layerData = {
};
};
},
{
glyphname = Germandbls;
lastChange = "2016-12-22 13:06:26 +0000";
layers = (
{
color = -1;
layerId = "E6A13138-87C4-4EDC-BDCD-C4EF9152A586";
paths = (
{
closed = 1;
nodes = (
"762 -9 OFFCURVE",
"862 67 OFFCURVE",
"862 202 CURVE SMOOTH",
"862 309 OFFCURVE",
"798 371 OFFCURVE",
"650 404 CURVE SMOOTH",
"608 414 LINE SMOOTH",
"503 438 OFFCURVE",
"465 474 OFFCURVE",
"465 547 CURVE SMOOTH",
"465 630 OFFCURVE",
"525 679 OFFCURVE",
"659 679 CURVE SMOOTH",
"715 679 OFFCURVE",
"774 671 OFFCURVE",
"829 654 CURVE",
"829 725 LINE",
"778 741 OFFCURVE",
"717 749 OFFCURVE",
"656 749 CURVE SMOOTH",
"473 749 OFFCURVE",
"382 670 OFFCURVE",
"382 542 CURVE SMOOTH",
"382 434 OFFCURVE",
"446 370 OFFCURVE",
"581 340 CURVE SMOOTH",
"623 330 LINE SMOOTH",
"735 305 OFFCURVE",
"778 272 OFFCURVE",
"778 197 CURVE SMOOTH",
"778 109 OFFCURVE",
"718 61 OFFCURVE",
"587 61 CURVE SMOOTH",
"530 61 OFFCURVE",
"460 71 OFFCURVE",
"394 93 CURVE",
"394 21 LINE",
"455 1 OFFCURVE",
"525 -9 OFFCURVE",
"587 -9 CURVE SMOOTH"
);
},
{
closed = 1;
nodes = (
"172 0 LINE",
"172 470 LINE SMOOTH",
"172 615 OFFCURVE",
"235 679 OFFCURVE",
"372 679 CURVE SMOOTH",
"413 679 OFFCURVE",
"447 673 OFFCURVE",
"477 660 CURVE",
"537 713 LINE",
"494 737 OFFCURVE",
"440 749 OFFCURVE",
"372 749 CURVE SMOOTH",
"180 749 OFFCURVE",
"89 656 OFFCURVE",
"89 459 CURVE SMOOTH",
"89 0 LINE"
);
}
);
width = 901;
}
);
leftKerningGroup = H;
leftMetricsKey = H;
rightKerningGroup = S;
rightMetricsKey = S;
unicode = 1E9E;
},
{
glyphname = Schwa;
lastChange = "2016-12-22 13:06:26 +0000";
layers = (
{
anchors = (
{
name = bottom;
position = "{375, 0}";
},
{
name = top;
position = "{375, 755}";
}
);
color = -1;
layerId = "E6A13138-87C4-4EDC-BDCD-C4EF9152A586";
paths = (
{
closed = 1;
nodes = (
"578 -9 OFFCURVE",
"710 104 OFFCURVE",
"710 367 CURVE SMOOTH",
"710 636 OFFCURVE",
"561 749 OFFCURVE",
"306 749 CURVE SMOOTH",
"235 749 OFFCURVE",
"163 742 OFFCURVE",
"93 725 CURVE",
"93 654 LINE",
"160 671 OFFCURVE",
"238 679 OFFCURVE",
"301 679 CURVE SMOOTH",
"509 679 OFFCURVE",
"626 596 OFFCURVE",
"626 365 CURVE SMOOTH",
"626 141 OFFCURVE",
"531 60 OFFCURVE",
"386 60 CURVE SMOOTH",
"230 60 OFFCURVE",
"136 142 OFFCURVE",
"136 365 CURVE",
"103 336 LINE",
"654 336 LINE",
"654 401 LINE",
"50 401 LINE",
"50 363 LINE SMOOTH",
"50 103 OFFCURVE",
"185 -9 OFFCURVE",
"385 -9 CURVE SMOOTH"
);
}
);
width = 765;
}
);
leftKerningGroup = O;
leftMetricsKey = "=O-5";
rightKerningGroup = O;
rightMetricsKey = O;
unicode = 018F;
userData = {
com.typemytype.robofont.layerData = {
};
};
},
{
glyphname = T;
lastChange = "2016-12-22 13:06:26 +0000";
layers = (
{
anchors = (
{
name = bottom;
position = "{309, 0}";
},
{
name = center;
position = "{309, 387}";
},
{
name = top;
position = "{309, 760}";
}
);
color = -1;
layerId = "E6A13138-87C4-4EDC-BDCD-C4EF9152A586";
paths = (
{
closed = 1;
nodes = (
"351 0 LINE",
"351 668 LINE",
"612 668 LINE",
"612 740 LINE",
"6 740 LINE",
"6 668 LINE",
"268 668 LINE",
"268 0 LINE"
);
}
);
width = 618;
}
);
leftKerningGroup = T;
rightKerningGroup = T;
unicode = 0054;
userData = {
com.typemytype.robofont.layerData = {
};
};
},
{
glyphname = U;
lastChange = "2016-12-22 13:06:26 +0000";
layers = (
{
anchors = (
{
name = bottom;
position = "{376, 0}";
},
{
name = ogonek;
position = "{463, 1}";
},
{
name = top;
position = "{376, 760}";
},
{
name = topright;
position = "{587, 740}";
}
);
color = -1;
layerId = "E6A13138-87C4-4EDC-BDCD-C4EF9152A586";
paths = (
{
closed = 1;
nodes = (
"573 -9 OFFCURVE",
"664 83 OFFCURVE",
"664 290 CURVE SMOOTH",
"664 740 LINE",
"583 740 LINE",
"583 281 LINE SMOOTH",
"583 127 OFFCURVE",
"517 62 OFFCURVE",
"376 62 CURVE SMOOTH",
"234 62 OFFCURVE",
"168 127 OFFCURVE",
"168 281 CURVE SMOOTH",
"168 740 LINE",
"85 740 LINE",
"85 290 LINE SMOOTH",
"85 83 OFFCURVE",
"177 -9 OFFCURVE",
"376 -9 CURVE SMOOTH"
);
}
);
width = 749;
}
);
leftKerningGroup = U;
rightKerningGroup = U;
unicode = 0055;
userData = {
com.typemytype.robofont.layerData = {
};
};
},
{
glyphname = Uhorn;
lastChange = "2016-12-22 13:06:40 +0000";
layers = (
{
anchors = (
{
name = bottom;
position = "{375, 0}";
},
{
name = top;
position = "{375, 760}";
}
);
color = -1;
layerId = "E6A13138-87C4-4EDC-BDCD-C4EF9152A586";
paths = (
{
closed = 1;
nodes = (
"573 -9 OFFCURVE",
"664 83 OFFCURVE",
"664 290 CURVE SMOOTH",
"664 695 LINE",
"736 703 OFFCURVE",
"778 745 OFFCURVE",
"778 814 CURVE SMOOTH",
"778 843 OFFCURVE",
"775 863 OFFCURVE",
"765.994 888 CURVE",
"705 888 LINE",
"712 863 OFFCURVE",
"716 843 OFFCURVE",
"716 817 CURVE SMOOTH",
"716 762 OFFCURVE",
"679 740 OFFCURVE",
"613 740 CURVE SMOOTH",
"583 740 LINE",
"583 281 LINE SMOOTH",
"583 127 OFFCURVE",
"517 62 OFFCURVE",
"376 62 CURVE SMOOTH",
"234 62 OFFCURVE",
"168 127 OFFCURVE",
"168 281 CURVE SMOOTH",
"168 740 LINE",
"85 740 LINE",
"85 290 LINE SMOOTH",
"85 83 OFFCURVE",
"177 -9 OFFCURVE",
"376 -9 CURVE SMOOTH"
);
}
);
width = 749;
}
);
leftKerningGroup = U;
leftMetricsKey = U;
widthMetricsKey = U;
rightKerningGroup = U;
unicode = 01AF;
},
{
glyphname = Uogonek;
lastChange = "2016-12-22 13:06:26 +0000";
layers = (
{
color = -1;
layerId = "E6A13138-87C4-4EDC-BDCD-C4EF9152A586";
paths = (
{
closed = 1;
nodes = (
"456 -207 OFFCURVE",
"486 -200 OFFCURVE",
"515 -188 CURVE",
"515 -148 LINE",
"481 -161 OFFCURVE",
"456 -166 OFFCURVE",
"430 -166 CURVE SMOOTH",
"380 -166 OFFCURVE",
"354 -146 OFFCURVE",
"354 -109 CURVE SMOOTH",
"354 -64 OFFCURVE",
"388 -25 OFFCURVE",
"491 4 CURVE SMOOTH",
"610 38 OFFCURVE",
"664 130 OFFCURVE",
"664 290 CURVE SMOOTH",
"664 740 LINE",
"583 740 LINE",
"583 281 LINE SMOOTH",
"583 127 OFFCURVE",
"517 62 OFFCURVE",
"376 62 CURVE SMOOTH",
"234 62 OFFCURVE",
"168 127 OFFCURVE",
"168 281 CURVE SMOOTH",
"168 740 LINE",
"85 740 LINE",
"85 290 LINE SMOOTH",
"85 83 OFFCURVE",
"177 -9 OFFCURVE",
"376 -9 CURVE SMOOTH",
"400 -9 LINE",
"402 7 LINE",
"328 -23 OFFCURVE",
"302 -67 OFFCURVE",
"302 -112 CURVE SMOOTH",
"302 -172 OFFCURVE",
"342 -207 OFFCURVE",
"423 -207 CURVE SMOOTH"
);
}
);
width = 749;
}
);
leftKerningGroup = U;
leftMetricsKey = U;
widthMetricsKey = U;
rightKerningGroup = U;
unicode = 0172;
},
{
glyphname = V;
lastChange = "2016-12-22 13:06:26 +0000";
layers = (
{
color = -1;
layerId = "E6A13138-87C4-4EDC-BDCD-C4EF9152A586";
paths = (
{
closed = 1;
nodes = (
"406 0 LINE",
"687 740 LINE",
"604 740 LINE",
"339 38 LINE",
"358 38 LINE",
"94 740 LINE",
"5 740 LINE",
"286 0 LINE"
);
}
);
width = 692;
}
);
leftKerningGroup = V;
rightKerningGroup = V;
unicode = 0056;
userData = {
com.typemytype.robofont.layerData = {
};
};
},
{
glyphname = W;
lastChange = "2016-12-22 13:06:26 +0000";
layers = (
{
anchors = (
{
name = bottom;
position = "{560, 0}";
},
{
name = top;
position = "{560, 760}";
}
);
color = -1;
layerId = "E6A13138-87C4-4EDC-BDCD-C4EF9152A586";
paths = (
{
closed = 1;
nodes = (
"360 0 LINE",
"572 688 LINE",
"549 688 LINE",
"759 0 LINE",
"867.994 0 LINE",
"1090 740 LINE",
"1009 740 LINE",
"802 40 LINE",
"821 40 LINE",
"610 740 LINE",
"512 740 LINE",
"300 40 LINE",
"320 40 LINE",
"114 740 LINE",
"28 740 LINE",
"251 0 LINE"
);
}
);
width = 1119;
}
);
leftKerningGroup = V;
rightKerningGroup = V;
unicode = 0057;
userData = {
com.typemytype.robofont.layerData = {
};
};
},
{
glyphname = X;
lastChange = "2016-12-22 13:06:26 +0000";
layers = (
{
color = -1;
layerId = "E6A13138-87C4-4EDC-BDCD-C4EF9152A586";
paths = (
{
closed = 1;
nodes = (
"668 0 LINE",
"385 378 LINE",
"337 440 LINE",
"110 740 LINE",
"13 740 LINE",
"286 377 LINE",
"335 315 LINE",
"572 0 LINE"
);
},
{
closed = 1;
nodes = (
"98 0 LINE",
"335 315 LINE",
"385 378 LINE",
"657 740 LINE",
"564 740 LINE",
"337 440 LINE",
"286 377 LINE",
"4 0 LINE"
);
}
);
width = 673;
}
);
leftKerningGroup = X;
rightKerningGroup = X;
unicode = 0058;
userData = {
com.typemytype.robofont.layerData = {
};
};
},
{
glyphname = Y;
lastChange = "2016-12-22 13:06:26 +0000";
layers = (
{
anchors = (
{
name = bottom;
position = "{309, 0}";
},
{
name = top;
position = "{309, 760}";
},
{
name = topleft;
position = "{2, 740}";
}
);
color = -1;
layerId = "E6A13138-87C4-4EDC-BDCD-C4EF9152A586";
paths = (
{
closed = 1;
nodes = (
"351 0 LINE",
"351 362 LINE",
"333 301 LINE",
"631 740 LINE",
"544 740 LINE",
"297 379 LINE",
"326 379 LINE",
"76 740 LINE",
"-17 740 LINE",
"287 301 LINE",
"268 363 LINE",
"268 0 LINE"
);
}
);
width = 618;
}
);
leftKerningGroup = Y;
rightKerningGroup = Y;
unicode = 0059;
userData = {
com.typemytype.robofont.layerData = {
};
};
},
{
glyphname = Z;
lastChange = "2016-12-22 13:06:26 +0000";
layers = (
{
anchors = (
{
name = bottom;
position = "{306, 0}";
},
{
name = top;
position = "{306, 760}";
}
);
color = -1;
layerId = "E6A13138-87C4-4EDC-BDCD-C4EF9152A586";
paths = (
{
closed = 1;
nodes = (
"581 0 LINE",
"581 71 LINE",
"124 71 LINE",
"128 52 LINE",
"575 694 LINE",
"575 740 LINE",
"36.994 740 LINE",
"37 669 LINE",
"482 669 LINE",
"477 688 LINE",
"31 46 LINE",
"31 0 LINE"
);
}
);
width = 612;
}
);
leftKerningGroup = Z;
rightKerningGroup = Z;
unicode = 005A;
userData = {
com.typemytype.robofont.layerData = {
};
};
},
{
glyphname = a;
lastChange = "2016-12-22 13:06:26 +0000";
layers = (
{
anchors = (
{
name = bottom;
position = "{278, 0}";
},
{
name = ogonek;
position = "{471, 0}";
},
{
name = top;
position = "{270, 600}";
}
);
color = -1;
layerId = "E6A13138-87C4-4EDC-BDCD-C4EF9152A586";
paths = (
{
closed = 1;
nodes = (
"290 -9 OFFCURVE",
"354 17 OFFCURVE",
"391 62 CURVE",
"396 62 LINE",
"402 0 LINE",
"471 0 LINE",
"471 353 LINE SMOOTH",
"471 503 OFFCURVE",
"396 551 OFFCURVE",
"252 551 CURVE SMOOTH",
"198 551 OFFCURVE",
"135 542 OFFCURVE",
"86 526 CURVE",
"86 459 LINE",
"140 477 OFFCURVE",
"197 484 OFFCURVE",
"242 484 CURVE SMOOTH",
"341 484 OFFCURVE",
"391 457 OFFCURVE",
"391 356 CURVE SMOOTH",
"391 120 LINE",
"350 75 OFFCURVE",
"296 54 OFFCURVE",
"242 54 CURVE SMOOTH",
"168 54 OFFCURVE",
"133 88 OFFCURVE",
"133 147 CURVE SMOOTH",
"133 204 OFFCURVE",
"169 236 OFFCURVE",
"261 246 CURVE SMOOTH",
"419 263 LINE",
"413 317 LINE",
"256 299 LINE SMOOTH",
"110 284 OFFCURVE",
"50 233 OFFCURVE",
"50 139 CURVE SMOOTH",
"50 48 OFFCURVE",
"114 -9 OFFCURVE",
"222 -9 CURVE SMOOTH"
);
}
);
width = 544;
}
);
leftKerningGroup = a;
rightKerningGroup = n;
rightMetricsKey = n;
unicode = 0061;
userData = {
com.typemytype.robofont.layerData = {
};
};
},
{
glyphname = ae;
lastChange = "2016-12-22 13:06:26 +0000";
layers = (
{
anchors = (
{
name = bottom;
position = "{432, 0}";
},
{
name = top;
position = "{432, 600}";
}
);
color = -1;
layerId = "E6A13138-87C4-4EDC-BDCD-C4EF9152A586";
paths = (
{
closed = 1;
nodes = (
"708 -10 OFFCURVE",
"758 -2 OFFCURVE",
"812 14 CURVE",
"812 80 LINE",
"761 65 OFFCURVE",
"713 57 OFFCURVE",
"668 57 CURVE SMOOTH",
"537 57 OFFCURVE",
"471 114 OFFCURVE",
"471 260 CURVE SMOOTH",
"471 286 LINE SMOOTH",
"471 432 OFFCURVE",
"525 491 OFFCURVE",
"618 491 CURVE SMOOTH",
"711 491 OFFCURVE",
"761 432 OFFCURVE",
"761 286 CURVE",
"782 299 LINE",
"452 299 LINE",
"452 244 LINE",
"840 244 LINE",
"840 271 LINE SMOOTH",
"840 458 OFFCURVE",
"759 551 OFFCURVE",
"621 551 CURVE SMOOTH",
"484 551 OFFCURVE",
"402 458 OFFCURVE",
"402 280 CURVE",
"391 273 LINE",
"391 76 OFFCURVE",
"483 -10 OFFCURVE",
"658 -10 CURVE SMOOTH"
);
},
{
closed = 1;
nodes = (
"302 -9 OFFCURVE",
"376 15 OFFCURVE",
"445 99 CURVE",
"415 146 LINE",
"365 77 OFFCURVE",
"302 54 OFFCURVE",
"244 54 CURVE SMOOTH",
"170 54 OFFCURVE",
"133 88 OFFCURVE",
"133 147 CURVE SMOOTH",
"133 204 OFFCURVE",
"168 246 OFFCURVE",
"271 246 CURVE SMOOTH",
"410 246 LINE",
"410 299 LINE",
"268 299 LINE SMOOTH",
"111 299 OFFCURVE",
"50 233 OFFCURVE",
"50 140 CURVE SMOOTH",
"50 48 OFFCURVE",
"116 -9 OFFCURVE",
"228 -9 CURVE SMOOTH"
);
},
{
closed = 1;
nodes = (
"460 263 LINE",
"460 354 LINE SMOOTH",
"460 501 OFFCURVE",
"388 551 OFFCURVE",
"250 551 CURVE SMOOTH",
"196 551 OFFCURVE",
"136 543 OFFCURVE",
"86 526 CURVE",
"86 459 LINE",
"140 477 OFFCURVE",
"198 484 OFFCURVE",
"242 484 CURVE SMOOTH",
"340 484 OFFCURVE",
"391 457 OFFCURVE",
"391 356 CURVE SMOOTH",
"391 273 LINE"
);
}
);
width = 881;
}
);
leftKerningGroup = a;
leftMetricsKey = a;
rightKerningGroup = e;
rightMetricsKey = e;
unicode = 00E6;
},
{
glyphname = b;
lastChange = "2016-12-22 13:06:40 +0000";
layers = (
{
anchors = (
{
name = bottom;
position = "{302, 0}";
},
{
name = top;
position = "{121, 808}";
}
);
color = -1;
layerId = "E6A13138-87C4-4EDC-BDCD-C4EF9152A586";
paths = (
{
closed = 1;
nodes = (
"454 -10 OFFCURVE",
"552 88 OFFCURVE",
"552 282 CURVE SMOOTH",
"552 475 OFFCURVE",
"453 551 OFFCURVE",
"330 551 CURVE SMOOTH",
"260 551 OFFCURVE",
"204 525 OFFCURVE",
"166 484 CURVE",
"162 484 LINE",
"162 808 LINE",
"80 808 LINE",
"80 17 LINE",
"137 -1 OFFCURVE",
"200 -9 OFFCURVE",
"262 -9 CURVE SMOOTH"
);
},
{
closed = 1;
nodes = (
"227 57 OFFCURVE",
"190 63 OFFCURVE",
"162 71 CURVE",
"162 417 LINE",
"199 462 OFFCURVE",
"252 481 OFFCURVE",
"306 481 CURVE SMOOTH",
"400 481 OFFCURVE",
"468 431 OFFCURVE",
"468 274 CURVE SMOOTH",
"468 123 OFFCURVE",
"401 57 OFFCURVE",
"270 57 CURVE SMOOTH"
);
}
);
width = 602;
}
);
leftKerningGroup = l;
leftMetricsKey = n;
rightKerningGroup = o;
rightMetricsKey = o;
unicode = 0062;
userData = {
com.typemytype.robofont.layerData = {
};
};
},
{
glyphname = c;
lastChange = "2016-12-22 13:06:26 +0000";
layers = (
{
anchors = (
{
name = bottom;
position = "{275, 0}";
},
{
name = top;
position = "{274, 600}";
}
);
color = -1;
layerId = "E6A13138-87C4-4EDC-BDCD-C4EF9152A586";
paths = (
{
closed = 1;
nodes = (
"352 -10 OFFCURVE",
"400 -1 OFFCURVE",
"445 15 CURVE",
"445 84 LINE",
"393 67 OFFCURVE",
"353 60 OFFCURVE",
"315 60 CURVE SMOOTH",
"197 60 OFFCURVE",
"135 120 OFFCURVE",
"135 273 CURVE SMOOTH",
"135 422 OFFCURVE",
"200 481 OFFCURVE",
"332 481 CURVE SMOOTH",
"372 481 OFFCURVE",
"408 476 OFFCURVE",
"445 466 CURVE",
"445 535 LINE",
"408 546 OFFCURVE",
"366 551 OFFCURVE",
"324 551 CURVE SMOOTH",
"148 551 OFFCURVE",
"50 464 OFFCURVE",
"50 271 CURVE SMOOTH",
"50 78 OFFCURVE",
"141 -10 OFFCURVE",
"304 -10 CURVE SMOOTH"
);
}
);
width = 466;
}
);
leftKerningGroup = o;
leftMetricsKey = o;
rightKerningGroup = c;
unicode = 0063;
userData = {
com.typemytype.robofont.layerData = {
};
};
},
{
glyphname = d;
lastChange = "2016-12-22 13:06:40 +0000";
layers = (
{
anchors = (
{
name = bottom;
position = "{302, 0}";
},
{
name = caronalt;
position = "{582, 808}";
},
{
name = center;
position = "{299, 271}";
},
{
name = stroke;
position = "{522, 678}";
},
{
name = top;
position = "{298, 600}";
},
{
name = topright;
position = "{578, 543}";
}
);
color = -1;
layerId = "E6A13138-87C4-4EDC-BDCD-C4EF9152A586";
paths = (
{
closed = 1;
nodes = (
"347 -9 OFFCURVE",
"404 18 OFFCURVE",
"441 62 CURVE",
"446 62 LINE",
"452 0 LINE",
"522 0 LINE",
"522 808 LINE",
"440 808 LINE",
"440 542 LINE",
"411 547 OFFCURVE",
"375 551 OFFCURVE",
"338 551 CURVE SMOOTH",
"148 551 OFFCURVE",
"50 454 OFFCURVE",
"50 260 CURVE SMOOTH",
"50 69 OFFCURVE",
"149 -9 OFFCURVE",
"278 -9 CURVE SMOOTH"
);
},
{
closed = 1;
nodes = (
"199 61 OFFCURVE",
"133 113 OFFCURVE",
"133 267 CURVE SMOOTH",
"133 419 OFFCURVE",
"201 484 OFFCURVE",
"338 484 CURVE SMOOTH",
"374 484 OFFCURVE",
"412 480 OFFCURVE",
"440 473 CURVE",
"440 130 LINE",
"402 80 OFFCURVE",
"349 61 OFFCURVE",
"297 61 CURVE SMOOTH"
);
}
);
width = 602;
}
);
leftKerningGroup = o;
leftMetricsKey = o;
rightKerningGroup = l;
rightMetricsKey = "=|n";
unicode = 0064;
userData = {
com.typemytype.robofont.layerData = {
};
};
},
{
glyphname = eth;
lastChange = "2016-12-22 13:06:27 +0000";
layers = (
{
color = -1;
layerId = "E6A13138-87C4-4EDC-BDCD-C4EF9152A586";
paths = (
{
closed = 1;
nodes = (
"444 -10 OFFCURVE",
"540 83 OFFCURVE",
"540 292 CURVE SMOOTH",
"540 491 OFFCURVE",
"422 700 OFFCURVE",
"268 808 CURVE",
"165 808 LINE",
"307 708 OFFCURVE",
"391 590 OFFCURVE",
"431 464 CURVE",
"471 438 LINE",
"430 522 OFFCURVE",
"363 550 OFFCURVE",
"289 550 CURVE SMOOTH",
"147 550 OFFCURVE",
"50 464 OFFCURVE",
"50 271 CURVE SMOOTH",
"50 76 OFFCURVE",
"146 -10 OFFCURVE",
"296 -10 CURVE SMOOTH"
);
},
{
closed = 1;
nodes = (
"195 57 OFFCURVE",
"133 113 OFFCURVE",
"133 272 CURVE SMOOTH",
"133 429 OFFCURVE",
"196 484 OFFCURVE",
"295 484 CURVE SMOOTH",
"394 484 OFFCURVE",
"457 429 OFFCURVE",
"457 270 CURVE SMOOTH",
"457 117 OFFCURVE",
"394 57 OFFCURVE",
"296 57 CURVE SMOOTH"
);
},
{
closed = 1;
nodes = (
"527 678 LINE",
"518 729 LINE",
"98 660 LINE",
"107 609 LINE"
);
}
);
width = 590;
}
);
leftKerningGroup = o;
leftMetricsKey = o;
widthMetricsKey = o;
rightKerningGroup = o;
unicode = 00F0;
userData = {
com.typemytype.robofont.layerData = {
};
};
},
{
glyphname = e;
lastChange = "2016-12-22 13:06:27 +0000";
layers = (
{
anchors = (
{
name = bottom;
position = "{283, 0}";
},
{
name = ogonek;
position = "{432, 0}";
},
{
name = top;
position = "{283, 600}";
}
);
color = -1;
layerId = "E6A13138-87C4-4EDC-BDCD-C4EF9152A586";
paths = (
{
closed = 1;
nodes = (
"373 -10 OFFCURVE",
"422 -2 OFFCURVE",
"478 14 CURVE",
"478 80 LINE",
"425 65 OFFCURVE",
"377 57 OFFCURVE",
"332 57 CURVE SMOOTH",
"198 57 OFFCURVE",
"133 114 OFFCURVE",
"133 260 CURVE SMOOTH",
"133 286 LINE SMOOTH",
"133 432 OFFCURVE",
"187 491 OFFCURVE",
"282 491 CURVE SMOOTH",
"376 491 OFFCURVE",
"427 432 OFFCURVE",
"427 286 CURVE",
"448 299 LINE",
"91 299 LINE",
"91 244 LINE",
"505 244 LINE",
"505 270 LINE SMOOTH",
"505 457 OFFCURVE",
"425 551 OFFCURVE",
"282 551 CURVE SMOOTH",
"137 551 OFFCURVE",
"50 457 OFFCURVE",
"50 271 CURVE SMOOTH",
"50 76 OFFCURVE",
"144 -10 OFFCURVE",
"322 -10 CURVE SMOOTH"
);
}
);
width = 546;
}
);
leftKerningGroup = o;
leftMetricsKey = o;
rightKerningGroup = e;
unicode = 0065;
userData = {
com.typemytype.robofont.layerData = {
};
};
},
{
glyphname = eogonek;
lastChange = "2016-12-22 13:06:27 +0000";
layers = (
{
color = -1;
layerId = "E6A13138-87C4-4EDC-BDCD-C4EF9152A586";
paths = (
{
closed = 1;
nodes = (
"423 -208 OFFCURVE",
"453 -201 OFFCURVE",
"478 -189 CURVE",
"478 -147 LINE",
"451 -161 OFFCURVE",
"426 -168 OFFCURVE",
"401 -168 CURVE SMOOTH",
"360 -168 OFFCURVE",
"335 -146 OFFCURVE",
"335 -111 CURVE SMOOTH",
"335 -69 OFFCURVE",
"363 -22 OFFCURVE",
"478 14 CURVE",
"478 80 LINE",
"425 65 OFFCURVE",
"377 57 OFFCURVE",
"332 57 CURVE SMOOTH",
"198 57 OFFCURVE",
"133 114 OFFCURVE",
"133 260 CURVE SMOOTH",
"133 286 LINE SMOOTH",
"133 432 OFFCURVE",
"187 491 OFFCURVE",
"282 491 CURVE SMOOTH",
"376 491 OFFCURVE",
"427 432 OFFCURVE",
"427 286 CURVE",
"448 299 LINE",
"91 299 LINE",
"91 244 LINE",
"505 244 LINE",
"505 270 LINE SMOOTH",
"505 457 OFFCURVE",
"425 551 OFFCURVE",
"282 551 CURVE SMOOTH",
"137 551 OFFCURVE",
"50 457 OFFCURVE",
"50 271 CURVE SMOOTH",
"50 76 OFFCURVE",
"144 -10 OFFCURVE",
"322 -10 CURVE SMOOTH",
"341 -10 OFFCURVE",
"362 -9 OFFCURVE",
"382 -6 CURVE",
"379 8 LINE",
"314 -20 OFFCURVE",
"283 -64 OFFCURVE",
"283 -116 CURVE SMOOTH",
"283 -172 OFFCURVE",
"323 -208 OFFCURVE",
"394 -208 CURVE SMOOTH"
);
}
);
width = 546;
}
);
leftKerningGroup = o;
leftMetricsKey = e;
widthMetricsKey = e;
rightKerningGroup = e;
unicode = 0119;
},
{
glyphname = f;
lastChange = "2016-12-22 13:06:27 +0000";
layers = (
{
color = -1;
layerId = "E6A13138-87C4-4EDC-BDCD-C4EF9152A586";
paths = (
{
closed = 1;
nodes = (
"198 0 LINE",
"198 614 LINE SMOOTH",
"198 712 OFFCURVE",
"242 749 OFFCURVE",
"336 749 CURVE SMOOTH",
"359 749 OFFCURVE",
"383 747 OFFCURVE",
"407 743 CURVE",
"407 812 LINE",
"382 816 OFFCURVE",
"355 818 OFFCURVE",
"328 818 CURVE SMOOTH",
"188 818 OFFCURVE",
"116 747 OFFCURVE",
"116 609 CURVE SMOOTH",
"116 0 LINE"
);
},
{
closed = 1;
nodes = (
"385 475 LINE",
"385 543 LINE",
"9 543 LINE",
"9 475 LINE"
);
}
);
width = 382;
}
);
leftKerningGroup = t;
rightKerningGroup = f;
unicode = 0066;
userData = {
com.typemytype.robofont.layerData = {
};
};
},
{
glyphname = g;
lastChange = "2016-12-22 13:06:40 +0000";
layers = (
{
anchors = (
{
name = bottom;
position = "{307, -220}";
},
{
name = top;
position = "{310, 600}";
}
);
color = -1;
layerId = "E6A13138-87C4-4EDC-BDCD-C4EF9152A586";
paths = (
{
closed = 1;
nodes = (
"434 -230 OFFCURVE",
"522 -156 OFFCURVE",
"522 26 CURVE SMOOTH",
"522 525 LINE",
"464 542 OFFCURVE",
"401 551 OFFCURVE",
"339 551 CURVE SMOOTH",
"147 551 OFFCURVE",
"50 453 OFFCURVE",
"50 260 CURVE SMOOTH",
"50 69 OFFCURVE",
"149 -7 OFFCURVE",
"271 -7 CURVE SMOOTH",
"341 -7 OFFCURVE",
"397 19 OFFCURVE",
"435 60 CURVE",
"440 60 LINE",
"440 13 LINE SMOOTH",
"440 -116 OFFCURVE",
"382 -163 OFFCURVE",
"254 -163 CURVE SMOOTH",
"203 -163 OFFCURVE",
"147 -154 OFFCURVE",
"85 -135 CURVE",
"85 -204 LINE",
"139 -221 OFFCURVE",
"206 -230 OFFCURVE",
"258 -230 CURVE SMOOTH"
);
},
{
closed = 1;
nodes = (
"201 63 OFFCURVE",
"133 113 OFFCURVE",
"133 268 CURVE SMOOTH",
"133 419 OFFCURVE",
"202 484 OFFCURVE",
"332 484 CURVE SMOOTH",
"374 484 OFFCURVE",
"412 478 OFFCURVE",
"440 470 CURVE",
"440 127 LINE",
"402 82 OFFCURVE",
"348 63 OFFCURVE",
"295 63 CURVE SMOOTH"
);
}
);
width = 602;
}
);
leftKerningGroup = o;
leftMetricsKey = o;
rightKerningGroup = u;
rightMetricsKey = "=|n";
unicode = 0067;
userData = {
com.typemytype.robofont.layerData = {
};
};
},
{
glyphname = h;
lastChange = "2016-12-22 13:06:27 +0000";
layers = (
{
anchors = (
{
name = bottom;
position = "{306, 0}";
},
{
name = center;
position = "{306, 271}";
},
{
name = stroke;
position = "{80, 677}";
},
{
name = top;
position = "{306, 808}";
}
);
color = -1;
layerId = "E6A13138-87C4-4EDC-BDCD-C4EF9152A586";
paths = (
{
closed = 1;
nodes = (
"162 0 LINE",
"162 406 LINE",
"205 456 OFFCURVE",
"268 477 OFFCURVE",
"325 477 CURVE SMOOTH",
"400 477 OFFCURVE",
"450 445 OFFCURVE",
"450 346 CURVE SMOOTH",
"450 0 LINE",
"532 0 LINE",
"532 351 LINE SMOOTH",
"532 496 OFFCURVE",
"455 551 OFFCURVE",
"347 551 CURVE SMOOTH",
"277 551 OFFCURVE",
"214 527 OFFCURVE",
"166 482 CURVE",
"162 482 LINE",
"162 808 LINE",
"80 808 LINE",
"80 0 LINE"
);
}
);
width = 605;
}
);
leftKerningGroup = l;
leftMetricsKey = n;
rightKerningGroup = n;
rightMetricsKey = n;
unicode = 0068;
userData = {
com.typemytype.robofont.layerData = {
};
};
},
{
glyphname = idotless;
lastChange = "2016-12-22 13:06:27 +0000";
layers = (
{
anchors = (
{
name = bottom;
position = "{121, 0}";
},
{
name = ogonek;
position = "{162, 0}";
},
{
name = top;
position = "{121, 600}";
}
);
color = -1;
layerId = "E6A13138-87C4-4EDC-BDCD-C4EF9152A586";
paths = (
{
closed = 1;
nodes = (
"162 0 LINE",
"162 543 LINE",
"80 543 LINE",
"80 0 LINE"
);
}
);
width = 242;
}
);
leftKerningGroup = n;
leftMetricsKey = n;
rightKerningGroup = u;
rightMetricsKey = "=|n";
unicode = 0131;
userData = {
com.typemytype.robofont.layerData = {
};
};
},
{
glyphname = jdotless;
lastChange = "2016-12-22 13:06:27 +0000";
layers = (
{
anchors = (
{
name = top;
position = "{120, 604}";
}
);
color = -1;
layerId = "E6A13138-87C4-4EDC-BDCD-C4EF9152A586";
paths = (
{
closed = 1;
nodes = (
"126 -132 OFFCURVE",
"162 -37 OFFCURVE",
"162 89 CURVE SMOOTH",
"162 543 LINE",
"80 543 LINE",
"80 85 LINE SMOOTH",
"80 -28 OFFCURVE",
"52 -110 OFFCURVE",
"-14 -195 CURVE",
"40 -232 LINE"
);
}
);
width = 242;
}
);
leftKerningGroup = j;
widthMetricsKey = "=idotless";
rightKerningGroup = u;
rightMetricsKey = "=|n";
unicode = 0237;
userData = {
com.typemytype.robofont.layerData = {
};
};
},
{
glyphname = k;
lastChange = "2016-12-22 13:06:27 +0000";
layers = (
{
anchors = (
{
name = bottom;
position = "{292, 0}";
},
{
name = top;
position = "{121, 808}";
}
);
color = -1;
layerId = "E6A13138-87C4-4EDC-BDCD-C4EF9152A586";
paths = (
{
closed = 1;
nodes = (
"559 0 LINE",
"322 290 LINE",
"322 268 LINE",
"543 543 LINE",
"451 543 LINE",
"236 278 LINE",
"466 0 LINE"
);
},
{
closed = 1;
nodes = (
"272 244 LINE",
"272 312 LINE",
"152 312 LINE",
"152 244 LINE"
);
},
{
closed = 1;
nodes = (
"162 0 LINE",
"162 808 LINE",
"80 808 LINE",
"80 0 LINE"
);
}
);
width = 549;
}
);
leftKerningGroup = l;
leftMetricsKey = n;
rightKerningGroup = k;
unicode = 006B;
userData = {
com.typemytype.robofont.layerData = {
};
};
},
{
glyphname = kgreenlandic;
lastChange = "2016-12-22 13:06:27 +0000";
layers = (
{
color = -1;
layerId = "E6A13138-87C4-4EDC-BDCD-C4EF9152A586";
paths = (
{
closed = 1;
nodes = (
"559 0 LINE",
"322 290 LINE",
"322 268 LINE",
"543 543 LINE",
"451 543 LINE",
"236 278 LINE",
"466 0 LINE"
);
},
{
closed = 1;
nodes = (
"162 0 LINE",
"162 543 LINE",
"80 543 LINE",
"80 0 LINE"
);
},
{
closed = 1;
nodes = (
"272 244 LINE",
"272 312 LINE",
"152 312 LINE",
"152 244 LINE"
);
}
);
width = 549;
}
);
leftMetricsKey = n;
rightKerningGroup = k;
rightMetricsKey = k;
unicode = 0138;
userData = {
com.typemytype.robofont.layerData = {
};
};
},
{
glyphname = l;
lastChange = "2016-12-22 13:06:40 +0000";
layers = (
{
anchors = (
{
name = bottom;
position = "{121, 0}";
},
{
name = caronalt;
position = "{223, 808}";
},
{
name = periodcentered;
position = "{263, 397}";
},
{
name = slash;
position = "{121, 357}";
},
{
name = top;
position = "{121, 808}";
}
);
color = -1;
layerId = "E6A13138-87C4-4EDC-BDCD-C4EF9152A586";
paths = (
{
closed = 1;
nodes = (
"162 0 LINE",
"162 808 LINE",
"80 808 LINE",
"80 0 LINE"
);
}
);
width = 242;
}
);
leftKerningGroup = l;
leftMetricsKey = n;
rightKerningGroup = l;
rightMetricsKey = "=|n";
unicode = 006C;
userData = {
com.typemytype.robofont.layerData = {
};
};
},
{
glyphname = ldot;
lastChange = "2016-12-22 13:06:27 +0000";
layers = (
{
color = -1;
layerId = "E6A13138-87C4-4EDC-BDCD-C4EF9152A586";
paths = (
{
closed = 1;
nodes = (
"162 0 LINE",
"162 808 LINE",
"80 808 LINE",
"80 0 LINE"
);
},
{
closed = 1;
nodes = (
"304 345 OFFCURVE",
"324 364 OFFCURVE",
"324 396 CURVE SMOOTH",
"324 428 OFFCURVE",
"304 448 OFFCURVE",
"267 448 CURVE SMOOTH",
"230 448 OFFCURVE",
"210 428 OFFCURVE",
"210 396 CURVE SMOOTH",
"210 364 OFFCURVE",
"230 345 OFFCURVE",
"267 345 CURVE SMOOTH"
);
}
);
width = 300;
}
);
leftKerningGroup = l;
leftMetricsKey = l;
unicode = 0140;
},
{
glyphname = m;
lastChange = "2016-12-22 13:06:27 +0000";
layers = (
{
anchors = (
{
name = bottom;
position = "{451, 0}";
},
{
name = top;
position = "{451, 600}";
}
);
color = -1;
layerId = "E6A13138-87C4-4EDC-BDCD-C4EF9152A586";
paths = (
{
closed = 1;
nodes = (
"162 0 LINE",
"162 405 LINE",
"200 456 OFFCURVE",
"254 478 OFFCURVE",
"303 478 CURVE SMOOTH",
"368 478 OFFCURVE",
"410 445 OFFCURVE",
"410 347 CURVE SMOOTH",
"410 0 LINE",
"491 0 LINE",
"491 352 LINE SMOOTH",
"491 496 OFFCURVE",
"422 551 OFFCURVE",
"325 551 CURVE SMOOTH",
"261 551 OFFCURVE",
"203 527 OFFCURVE",
"160 480 CURVE",
"155 480 LINE",
"149 543 LINE",
"80 543 LINE",
"80 0 LINE"
);
},
{
closed = 1;
nodes = (
"818 0 LINE",
"818 351 LINE SMOOTH",
"818 496 OFFCURVE",
"747 551 OFFCURVE",
"645 551 CURVE SMOOTH",
"583 551 OFFCURVE",
"511 527 OFFCURVE",
"455 458 CURVE",
"475 392 LINE",
"514 456 OFFCURVE",
"576 478 OFFCURVE",
"626 478 CURVE SMOOTH",
"691 478 OFFCURVE",
"736 445 OFFCURVE",
"736 347 CURVE SMOOTH",
"736 0 LINE"
);
}
);
width = 891;
}
);
leftKerningGroup = n;
leftMetricsKey = n;
rightKerningGroup = n;
rightMetricsKey = n;
unicode = 006D;
userData = {
com.typemytype.robofont.layerData = {
};
};
},
{
glyphname = n;
lastChange = "2016-12-22 13:06:27 +0000";
layers = (
{
anchors = (
{
name = apostrophe;
position = "{5, 600}";
},
{
name = bottom;
position = "{306, 0}";
},
{
name = top;
position = "{306, 600}";
}
);
color = -1;
layerId = "E6A13138-87C4-4EDC-BDCD-C4EF9152A586";
paths = (
{
closed = 1;
nodes = (
"162 0 LINE",
"162 407 LINE",
"206 459 OFFCURVE",
"271 478 OFFCURVE",
"325 478 CURVE SMOOTH",
"402 478 OFFCURVE",
"450 444 OFFCURVE",
"450 345 CURVE SMOOTH",
"450 0 LINE",
"532 0 LINE",
"532 349 LINE SMOOTH",
"532 495 OFFCURVE",
"455 551 OFFCURVE",
"344 551 CURVE SMOOTH",
"274 551 OFFCURVE",
"209 526 OFFCURVE",
"160 480 CURVE",
"155 480 LINE",
"149 543 LINE",
"80 543 LINE",
"80 0 LINE"
);
}
);
width = 605;
}
);
leftKerningGroup = n;
rightKerningGroup = n;
unicode = 006E;
userData = {
com.typemytype.robofont.layerData = {
};
};
},
{
glyphname = eng;
lastChange = "2016-12-22 13:06:27 +0000";
layers = (
{
color = -1;
layerId = "E6A13138-87C4-4EDC-BDCD-C4EF9152A586";
paths = (
{
closed = 1;
nodes = (
"497 -132 OFFCURVE",
"527 -43 OFFCURVE",
"532 74 CURVE SMOOTH",
"532 351 LINE SMOOTH",
"532 496 OFFCURVE",
"455 551 OFFCURVE",
"344 551 CURVE SMOOTH",
"273 551 OFFCURVE",
"209 527 OFFCURVE",
"160 480 CURVE",
"155 480 LINE",
"149 543 LINE",
"80 543 LINE",
"80 0 LINE",
"162 0 LINE",
"162 407 LINE",
"205 457 OFFCURVE",
"268 479 OFFCURVE",
"325 479 CURVE SMOOTH",
"400 479 OFFCURVE",
"450 445 OFFCURVE",
"450 347 CURVE SMOOTH",
"450 85 LINE SMOOTH",
"450 -28 OFFCURVE",
"422 -110 OFFCURVE",
"356 -195 CURVE",
"410 -232 LINE"
);
}
);
width = 605;
}
);
leftKerningGroup = n;
leftMetricsKey = n;
rightKerningGroup = n;
rightMetricsKey = n;
unicode = 014B;
},
{
glyphname = o;
lastChange = "2016-12-22 13:06:27 +0000";
layers = (
{
anchors = (
{
name = bottom;
position = "{295, 0}";
},
{
name = center;
position = "{295, 271}";
},
{
name = ogonek;
position = "{373, 0}";
},
{
name = top;
position = "{295, 600}";
},
{
name = topright;
position = "{344, 543}";
}
);
color = -1;
layerId = "E6A13138-87C4-4EDC-BDCD-C4EF9152A586";
paths = (
{
closed = 1;
nodes = (
"442 -10 OFFCURVE",
"540 79 OFFCURVE",
"540 271 CURVE SMOOTH",
"540 465 OFFCURVE",
"445 551 OFFCURVE",
"295 551 CURVE SMOOTH",
"146 551 OFFCURVE",
"50 464 OFFCURVE",
"50 271 CURVE SMOOTH",
"50 76 OFFCURVE",
"147 -10 OFFCURVE",
"295 -10 CURVE SMOOTH"
);
},
{
closed = 1;
nodes = (
"196 57 OFFCURVE",
"133 113 OFFCURVE",
"133 272 CURVE SMOOTH",
"133 429 OFFCURVE",
"196 484 OFFCURVE",
"295 484 CURVE SMOOTH",
"394 484 OFFCURVE",
"457 429 OFFCURVE",
"457 270 CURVE SMOOTH",
"457 113 OFFCURVE",
"394 57 OFFCURVE",
"295 57 CURVE SMOOTH"
);
}
);
width = 590;
}
);
leftKerningGroup = o;
rightKerningGroup = o;
unicode = 006F;
userData = {
com.typemytype.robofont.layerData = {
};
};
},
{
glyphname = ohorn;
lastChange = "2016-12-22 13:06:27 +0000";
layers = (
{
anchors = (
{
name = bottom;
position = "{293, 0}";
},
{
name = center;
position = "{295, 271}";
},
{
name = ogonek;
position = "{373, 0}";
},
{
name = top;
position = "{292, 600}";
}
);
color = -1;
layerId = "E6A13138-87C4-4EDC-BDCD-C4EF9152A586";
paths = (
{
closed = 1;
nodes = (
"442 -10 OFFCURVE",
"540 79 OFFCURVE",
"540 271 CURVE SMOOTH",
"540 395 OFFCURVE",
"502 478 OFFCURVE",
"426 520 CURVE",
"406 496 LINE",
"500 496 OFFCURVE",
"555 540 OFFCURVE",
"555 624 CURVE SMOOTH",
"555 653 OFFCURVE",
"551 673 OFFCURVE",
"543 698 CURVE",
"484 698 LINE",
"491 673 OFFCURVE",
"495 653 OFFCURVE",
"495 628 CURVE SMOOTH",
"495 570 OFFCURVE",
"458 545 OFFCURVE",
"394 545 CURVE SMOOTH",
"370 545 OFFCURVE",
"337 551 OFFCURVE",
"296 551 CURVE SMOOTH",
"146 551 OFFCURVE",
"50 464 OFFCURVE",
"50 271 CURVE SMOOTH",
"50 76 OFFCURVE",
"147 -10 OFFCURVE",
"295 -10 CURVE SMOOTH"
);
},
{
closed = 1;
nodes = (
"196 57 OFFCURVE",
"133 113 OFFCURVE",
"133 272 CURVE SMOOTH",
"133 429 OFFCURVE",
"196 484 OFFCURVE",
"295 484 CURVE SMOOTH",
"394 484 OFFCURVE",
"457 429 OFFCURVE",
"457 270 CURVE SMOOTH",
"457 113 OFFCURVE",
"394 57 OFFCURVE",
"295 57 CURVE SMOOTH"
);
}
);
width = 590;
}
);
leftKerningGroup = o;
leftMetricsKey = o;
widthMetricsKey = o;
rightKerningGroup = ohorn;
unicode = 01A1;
},
{
glyphname = ohorntilde;
lastChange = "2016-12-22 13:06:27 +0000";
layers = (
{
color = -1;
layerId = "E6A13138-87C4-4EDC-BDCD-C4EF9152A586";
paths = (
{
closed = 1;
nodes = (
"442 -10 OFFCURVE",
"540 79 OFFCURVE",
"540 271 CURVE SMOOTH",
"540 395 OFFCURVE",
"502 478 OFFCURVE",
"426 520 CURVE",
"406 496 LINE",
"500 496 OFFCURVE",
"555 540 OFFCURVE",
"555 624 CURVE SMOOTH",
"555 653 OFFCURVE",
"551 673 OFFCURVE",
"543 698 CURVE",
"484 698 LINE",
"491 673 OFFCURVE",
"495 653 OFFCURVE",
"495 628 CURVE SMOOTH",
"495 570 OFFCURVE",
"458 545 OFFCURVE",
"394 545 CURVE SMOOTH",
"370 545 OFFCURVE",
"337 551 OFFCURVE",
"296 551 CURVE SMOOTH",
"146 551 OFFCURVE",
"50 464 OFFCURVE",
"50 271 CURVE SMOOTH",
"50 76 OFFCURVE",
"147 -10 OFFCURVE",
"295 -10 CURVE SMOOTH"
);
},
{
closed = 1;
nodes = (
"196 57 OFFCURVE",
"133 113 OFFCURVE",
"133 272 CURVE SMOOTH",
"133 429 OFFCURVE",
"196 484 OFFCURVE",
"295 484 CURVE SMOOTH",
"394 484 OFFCURVE",
"457 429 OFFCURVE",
"457 270 CURVE SMOOTH",
"457 113 OFFCURVE",
"394 57 OFFCURVE",
"295 57 CURVE SMOOTH"
);
},
{
closed = 1;
nodes = (
"398 672 OFFCURVE",
"427 683 OFFCURVE",
"449 705 CURVE",
"449 764 LINE",
"423 738 OFFCURVE",
"397 726 OFFCURVE",
"364 726 CURVE SMOOTH",
"317 726 OFFCURVE",
"273 767 OFFCURVE",
"216 767 CURVE SMOOTH",
"180 767 OFFCURVE",
"152 756 OFFCURVE",
"130 734 CURVE",
"130 675 LINE",
"156 701 OFFCURVE",
"182 713 OFFCURVE",
"215 713 CURVE SMOOTH",
"262 713 OFFCURVE",
"305 672 OFFCURVE",
"363 672 CURVE SMOOTH"
);
}
);
width = 590;
}
);
leftKerningGroup = o;
leftMetricsKey = o;
widthMetricsKey = o;
rightKerningGroup = ohorn;
unicode = 1EE1;
},
{
glyphname = oogonek;
lastChange = "2016-12-22 13:06:27 +0000";
layers = (
{
anchors = (
{
name = bottom;
position = "{295, 0}";
},
{
name = center;
position = "{295, 271}";
},
{
name = top;
position = "{295, 600}";
},
{
name = topright;
position = "{344, 543}";
}
);
color = -1;
layerId = "E6A13138-87C4-4EDC-BDCD-C4EF9152A586";
paths = (
{
closed = 1;
nodes = (
"348 -208 OFFCURVE",
"377 -201 OFFCURVE",
"402 -189 CURVE",
"395 -151 LINE",
"371 -162 OFFCURVE",
"348 -168 OFFCURVE",
"326 -168 CURVE SMOOTH",
"285 -168 OFFCURVE",
"260 -147 OFFCURVE",
"260 -110 CURVE SMOOTH",
"260 -71 OFFCURVE",
"283 -27 OFFCURVE",
"380 2 CURVE SMOOTH",
"479 32 OFFCURVE",
"540 118 OFFCURVE",
"540 271 CURVE SMOOTH",
"540 465 OFFCURVE",
"445 551 OFFCURVE",
"295 551 CURVE SMOOTH",
"146 551 OFFCURVE",
"50 464 OFFCURVE",
"50 271 CURVE SMOOTH",
"50 76 OFFCURVE",
"147 -10 OFFCURVE",
"295 -10 CURVE",
"299 6 LINE",
"232 -26 OFFCURVE",
"207 -68 OFFCURVE",
"207 -116 CURVE SMOOTH",
"207 -173 OFFCURVE",
"249 -208 OFFCURVE",
"319 -208 CURVE SMOOTH"
);
},
{
closed = 1;
nodes = (
"196 57 OFFCURVE",
"133 113 OFFCURVE",
"133 272 CURVE SMOOTH",
"133 429 OFFCURVE",
"196 484 OFFCURVE",
"295 484 CURVE SMOOTH",
"394 484 OFFCURVE",
"457 429 OFFCURVE",
"457 270 CURVE SMOOTH",
"457 113 OFFCURVE",
"394 57 OFFCURVE",
"295 57 CURVE SMOOTH"
);
}
);
width = 590;
}
);
leftKerningGroup = o;
leftMetricsKey = o;
widthMetricsKey = o;
rightKerningGroup = o;
unicode = 01EB;
},
{
glyphname = oe;
lastChange = "2016-12-22 13:06:27 +0000";
layers = (
{
anchors = (
{
name = bottom;
position = "{495, 0}";
},
{
name = top;
position = "{495, 587}";
}
);
color = -1;
layerId = "E6A13138-87C4-4EDC-BDCD-C4EF9152A586";
paths = (
{
closed = 1;
nodes = (
"435 -10 OFFCURVE",
"524 82 OFFCURVE",
"524 271 CURVE SMOOTH",
"524 461 OFFCURVE",
"438 551 OFFCURVE",
"291 551 CURVE SMOOTH",
"146 551 OFFCURVE",
"50 464 OFFCURVE",
"50 271 CURVE SMOOTH",
"50 76 OFFCURVE",
"147 -10 OFFCURVE",
"291 -10 CURVE SMOOTH"
);
},
{
closed = 1;
nodes = (
"196 57 OFFCURVE",
"133 113 OFFCURVE",
"133 272 CURVE SMOOTH",
"133 429 OFFCURVE",
"196 484 OFFCURVE",
"293 484 CURVE SMOOTH",
"391 484 OFFCURVE",
"454 429 OFFCURVE",
"454 270 CURVE SMOOTH",
"454 113 OFFCURVE",
"391 57 OFFCURVE",
"293 57 CURVE SMOOTH"
);
},
{
closed = 1;
nodes = (
"774 -10 OFFCURVE",
"824 -2 OFFCURVE",
"878 14 CURVE",
"878 80 LINE",
"827 65 OFFCURVE",
"779 57 OFFCURVE",
"734 57 CURVE SMOOTH",
"602 57 OFFCURVE",
"537 114 OFFCURVE",
"537 260 CURVE SMOOTH",
"537 286 LINE SMOOTH",
"537 432 OFFCURVE",
"591 491 OFFCURVE",
"684 491 CURVE SMOOTH",
"777 491 OFFCURVE",
"827 432 OFFCURVE",
"827 286 CURVE",
"848 299 LINE",
"518 299 LINE",
"518 244 LINE",
"906 244 LINE",
"906 271 LINE SMOOTH",
"906 458 OFFCURVE",
"825 551 OFFCURVE",
"687 551 CURVE SMOOTH",
"550 551 OFFCURVE",
"468 457 OFFCURVE",
"468 280 CURVE",
"461 273 LINE",
"461 78 OFFCURVE",
"548 -10 OFFCURVE",
"724 -10 CURVE SMOOTH"
);
}
);
width = 947;
}
);
leftKerningGroup = o;
leftMetricsKey = o;
rightKerningGroup = e;
rightMetricsKey = e;
unicode = 0153;
},
{
glyphname = p;
lastChange = "2016-12-22 13:06:40 +0000";
layers = (
{
color = -1;
layerId = "E6A13138-87C4-4EDC-BDCD-C4EF9152A586";
paths = (
{
closed = 1;
nodes = (
"162 -220 LINE",
"162 -1 LINE",
"191 -5 OFFCURVE",
"227 -9 OFFCURVE",
"263 -9 CURVE SMOOTH",
"454 -9 OFFCURVE",
"552 88 OFFCURVE",
"552 281 CURVE SMOOTH",
"552 477 OFFCURVE",
"450 551 OFFCURVE",
"323 551 CURVE SMOOTH",
"255 551 OFFCURVE",
"197 523 OFFCURVE",
"160 480 CURVE",
"156 480 LINE",
"150 543 LINE",
"80 543 LINE",
"80 -220 LINE"
);
},
{
closed = 1;
nodes = (
"228 57 OFFCURVE",
"190 62 OFFCURVE",
"162 69 CURVE",
"162 412 LINE",
"199 461 OFFCURVE",
"252 481 OFFCURVE",
"304 481 CURVE SMOOTH",
"400 481 OFFCURVE",
"468 431 OFFCURVE",
"468 274 CURVE SMOOTH",
"468 123 OFFCURVE",
"401 57 OFFCURVE",
"264 57 CURVE SMOOTH"
);
}
);
width = 602;
}
);
leftKerningGroup = n;
leftMetricsKey = n;
rightKerningGroup = o;
rightMetricsKey = o;
unicode = 0070;
userData = {
com.typemytype.robofont.layerData = {
};
};
},
{
glyphname = thorn;
lastChange = "2016-12-22 13:06:40 +0000";
layers = (
{
color = -1;
layerId = "E6A13138-87C4-4EDC-BDCD-C4EF9152A586";
paths = (
{
closed = 1;
nodes = (
"162 -220 LINE",
"162 -1 LINE",
"191 -5 OFFCURVE",
"227 -9 OFFCURVE",
"263 -9 CURVE SMOOTH",
"454 -9 OFFCURVE",
"552 88 OFFCURVE",
"552 281 CURVE SMOOTH",
"552 475 OFFCURVE",
"452 551 OFFCURVE",
"330 551 CURVE SMOOTH",
"260 551 OFFCURVE",
"204 525 OFFCURVE",
"166 482 CURVE",
"162 482 LINE",
"162 808 LINE",
"80 808 LINE",
"80 -220 LINE"
);
},
{
closed = 1;
nodes = (
"228 57 OFFCURVE",
"190 62 OFFCURVE",
"162 69 CURVE",
"162 413 LINE",
"199 461 OFFCURVE",
"253 481 OFFCURVE",
"305 481 CURVE SMOOTH",
"400 481 OFFCURVE",
"468 431 OFFCURVE",
"468 274 CURVE SMOOTH",
"468 123 OFFCURVE",
"401 57 OFFCURVE",
"264 57 CURVE SMOOTH"
);
}
);
width = 602;
}
);
leftKerningGroup = KERN_h_2ND;
leftMetricsKey = n;
rightKerningGroup = o;
rightMetricsKey = o;
unicode = 00FE;
userData = {
com.typemytype.robofont.layerData = {
};
};
},
{
glyphname = q;
lastChange = "2016-12-22 13:06:40 +0000";
layers = (
{
color = -1;
layerId = "E6A13138-87C4-4EDC-BDCD-C4EF9152A586";
paths = (
{
closed = 1;
nodes = (
"522 -220 LINE",
"522 525 LINE",
"464 542 OFFCURVE",
"401 551 OFFCURVE",
"339 551 CURVE SMOOTH",
"147 551 OFFCURVE",
"50 454 OFFCURVE",
"50 260 CURVE SMOOTH",
"50 66 OFFCURVE",
"148 -9 OFFCURVE",
"271 -9 CURVE SMOOTH",
"341 -9 OFFCURVE",
"397 17 OFFCURVE",
"435 58 CURVE",
"440 58 LINE",
"440 -220 LINE"
);
},
{
closed = 1;
nodes = (
"202 61 OFFCURVE",
"133 110 OFFCURVE",
"133 267 CURVE SMOOTH",
"133 419 OFFCURVE",
"201 484 OFFCURVE",
"332 484 CURVE SMOOTH",
"374 484 OFFCURVE",
"412 478 OFFCURVE",
"440 470 CURVE",
"440 125 LINE",
"402 80 OFFCURVE",
"348 61 OFFCURVE",
"295 61 CURVE SMOOTH"
);
}
);
width = 602;
}
);
leftKerningGroup = o;
leftMetricsKey = o;
rightKerningGroup = u;
rightMetricsKey = "=|n";
unicode = 0071;
userData = {
com.typemytype.robofont.layerData = {
};
};
},
{
glyphname = r;
lastChange = "2016-12-22 13:06:27 +0000";
layers = (
{
anchors = (
{
name = bottom;
position = "{121, 0}";
},
{
name = top;
position = "{228, 600}";
}
);
color = -1;
layerId = "E6A13138-87C4-4EDC-BDCD-C4EF9152A586";
paths = (
{
closed = 1;
nodes = (
"162 0 LINE",
"162 397 LINE",
"202 448 OFFCURVE",
"272 471 OFFCURVE",
"326 471 CURVE SMOOTH",
"345 471 OFFCURVE",
"363 471 OFFCURVE",
"380 468 CURVE",
"380 544 LINE",
"363 547 OFFCURVE",
"349 548 OFFCURVE",
"330 548 CURVE SMOOTH",
"266 548 OFFCURVE",
"201 521 OFFCURVE",
"160 472 CURVE",
"155 472 LINE",
"148 543 LINE",
"80 543 LINE",
"80 0 LINE"
);
}
);
width = 385;
}
);
leftKerningGroup = n;
leftMetricsKey = n;
rightKerningGroup = r;
unicode = 0072;
userData = {
com.typemytype.robofont.layerData = {
};
};
},
{
glyphname = s;
lastChange = "2016-12-22 13:06:27 +0000";
layers = (
{
anchors = (
{
name = bottom;
position = "{243, 0}";
},
{
name = top;
position = "{243, 600}";
}
);
color = -1;
layerId = "E6A13138-87C4-4EDC-BDCD-C4EF9152A586";
paths = (
{
closed = 1;
nodes = (
"370 -10 OFFCURVE",
"445 52 OFFCURVE",
"445 150 CURVE SMOOTH",
"445 233 OFFCURVE",
"400 277 OFFCURVE",
"297 296 CURVE SMOOTH",
"214 312 LINE SMOOTH",
"147 324 OFFCURVE",
"128 354 OFFCURVE",
"128 395 CURVE SMOOTH",
"128 447 OFFCURVE",
"165 486 OFFCURVE",
"280 486 CURVE SMOOTH",
"326 486 OFFCURVE",
"366 482 OFFCURVE",
"414 469 CURVE",
"414 534 LINE",
"371 545 OFFCURVE",
"326 551 OFFCURVE",
"279 551 CURVE SMOOTH",
"118 551 OFFCURVE",
"49 485 OFFCURVE",
"49 393 CURVE SMOOTH",
"49 314 OFFCURVE",
"90 264 OFFCURVE",
"194 245 CURVE SMOOTH",
"277 230 LINE SMOOTH",
"344 217 OFFCURVE",
"366 193 OFFCURVE",
"366 146 CURVE SMOOTH",
"366 89 OFFCURVE",
"326 55 OFFCURVE",
"219 55 CURVE SMOOTH",
"167 55 OFFCURVE",
"116 61 OFFCURVE",
"59 77 CURVE",
"59 12 LINE",
"109 -3 OFFCURVE",
"162 -10 OFFCURVE",
"218 -10 CURVE SMOOTH"
);
}
);
width = 481;
}
);
leftKerningGroup = s;
rightKerningGroup = s;
unicode = 0073;
userData = {
com.typemytype.robofont.layerData = {
};
};
},
{
glyphname = germandbls;
lastChange = "2016-12-22 13:06:27 +0000";
layers = (
{
color = -1;
layerId = "E6A13138-87C4-4EDC-BDCD-C4EF9152A586";
paths = (
{
closed = 1;
nodes = (
"623 -10 OFFCURVE",
"698 52 OFFCURVE",
"698 150 CURVE SMOOTH",
"698 233 OFFCURVE",
"654 276 OFFCURVE",
"550 296 CURVE SMOOTH",
"467 312 LINE SMOOTH",
"402 324 OFFCURVE",
"381 354 OFFCURVE",
"381 395 CURVE SMOOTH",
"381 447 OFFCURVE",
"418 486 OFFCURVE",
"534 486 CURVE SMOOTH",
"569 486 OFFCURVE",
"593 483 OFFCURVE",
"612 480 CURVE",
"620 511 OFFCURVE",
"626 552 OFFCURVE",
"626 585 CURVE SMOOTH",
"626 749 OFFCURVE",
"524 818 OFFCURVE",
"385 818 CURVE SMOOTH",
"214 818 OFFCURVE",
"116 727 OFFCURVE",
"116 549 CURVE SMOOTH",
"116 0 LINE",
"198 0 LINE",
"198 548 LINE SMOOTH",
"198 695 OFFCURVE",
"265 756 OFFCURVE",
"389 756 CURVE SMOOTH",
"489 756 OFFCURVE",
"563 712 OFFCURVE",
"563 589 CURVE SMOOTH",
"563 565 OFFCURVE",
"559 536 OFFCURVE",
"552 511 CURVE",
"600 544 LINE",
"576 547 OFFCURVE",
"548 549 OFFCURVE",
"525 549 CURVE SMOOTH",
"372 549 OFFCURVE",
"302 485 OFFCURVE",
"302 392 CURVE SMOOTH",
"302 314 OFFCURVE",
"344 264 OFFCURVE",
"447 245 CURVE SMOOTH",
"530 230 LINE SMOOTH",
"597 217 OFFCURVE",
"619 193 OFFCURVE",
"619 146 CURVE SMOOTH",
"619 89 OFFCURVE",
"579 55 OFFCURVE",
"472 55 CURVE SMOOTH",
"420 55 OFFCURVE",
"368 61 OFFCURVE",
"312 77 CURVE",
"312 12 LINE",
"362 -3 OFFCURVE",
"416 -10 OFFCURVE",
"471 -10 CURVE SMOOTH"
);
},
{
closed = 1;
nodes = (
"155 473 LINE",
"155 543 LINE",
"9 543 LINE",
"9 473 LINE"
);
}
);
width = 734;
}
);
leftKerningGroup = t;
leftMetricsKey = f;
rightKerningGroup = s;
rightMetricsKey = s;
unicode = 00DF;
},
{
glyphname = t;
lastChange = "2016-12-22 13:06:27 +0000";
layers = (
{
anchors = (
{
name = bottom;
position = "{251, 0}";
},
{
name = caronalt;
position = "{282, 808}";
},
{
name = stroke;
position = "{112, 316}";
},
{
name = top;
position = "{153, 745}";
},
{
name = topright;
position = "{370, 808}";
}
);
color = -1;
layerId = "E6A13138-87C4-4EDC-BDCD-C4EF9152A586";
paths = (
{
closed = 1;
nodes = (
"331 -9 OFFCURVE",
"359 -6 OFFCURVE",
"390 1 CURVE",
"390 70 LINE",
"360 64 OFFCURVE",
"340 61 OFFCURVE",
"318 61 CURVE SMOOTH",
"236 61 OFFCURVE",
"194 96 OFFCURVE",
"194 191 CURVE SMOOTH",
"194 740 LINE",
"126 740 LINE",
"112 543 LINE",
"112 178 LINE SMOOTH",
"112 48 OFFCURVE",
"181 -9 OFFCURVE",
"300 -9 CURVE SMOOTH"
);
},
{
closed = 1;
nodes = (
"381 475 LINE",
"381 543 LINE",
"5 543 LINE",
"5 475 LINE"
);
}
);
width = 397;
}
);
leftKerningGroup = t;
rightKerningGroup = t;
unicode = 0074;
userData = {
com.typemytype.robofont.layerData = {
};
};
},
{
glyphname = u;
lastChange = "2016-12-22 13:06:27 +0000";
layers = (
{
anchors = (
{
name = bottom;
position = "{297, 0}";
},
{
name = ogonek;
position = "{520, 0}";
},
{
name = top;
position = "{297, 600}";
},
{
name = topright;
position = "{444, 543}";
}
);
color = -1;
layerId = "E6A13138-87C4-4EDC-BDCD-C4EF9152A586";
paths = (
{
closed = 1;
nodes = (
"328 -9 OFFCURVE",
"391 15 OFFCURVE",
"440 60 CURVE",
"445 60 LINE",
"451 0 LINE",
"520 0 LINE",
"520 543 LINE",
"438 543 LINE",
"438 135 LINE",
"395 86 OFFCURVE",
"332 64 OFFCURVE",
"277 64 CURVE SMOOTH",
"204 64 OFFCURVE",
"155 97 OFFCURVE",
"155 195 CURVE SMOOTH",
"155 543 LINE",
"73 543 LINE",
"73 191 LINE SMOOTH",
"73 46 OFFCURVE",
"150 -9 OFFCURVE",
"259 -9 CURVE SMOOTH"
);
}
);
width = 600;
}
);
leftKerningGroup = u;
leftMetricsKey = "=|n";
rightKerningGroup = u;
rightMetricsKey = "=|n";
unicode = 0075;
userData = {
com.typemytype.robofont.layerData = {
};
};
},
{
glyphname = uhorn;
lastChange = "2016-12-22 13:06:40 +0000";
layers = (
{
anchors = (
{
name = bottom;
position = "{297, 0}";
},
{
name = ogonek;
position = "{520, 0}";
},
{
name = top;
position = "{297, 600}";
}
);
color = -1;
layerId = "E6A13138-87C4-4EDC-BDCD-C4EF9152A586";
paths = (
{
closed = 1;
nodes = (
"328 -9 OFFCURVE",
"391 15 OFFCURVE",
"440 60 CURVE",
"445 60 LINE",
"451 0 LINE",
"520 0 LINE",
"520 527 LINE",
"485 493 LINE",
"578 493 OFFCURVE",
"633 538 OFFCURVE",
"633 622 CURVE SMOOTH",
"633 650 OFFCURVE",
"630 671 OFFCURVE",
"621 695 CURVE",
"562 695 LINE",
"569 670 OFFCURVE",
"574 650 OFFCURVE",
"574 625 CURVE SMOOTH",
"574 567 OFFCURVE",
"537 543 OFFCURVE",
"472 543 CURVE SMOOTH",
"438 543 LINE",
"438 135 LINE",
"395 86 OFFCURVE",
"332 64 OFFCURVE",
"277 64 CURVE SMOOTH",
"204 64 OFFCURVE",
"155 97 OFFCURVE",
"155 195 CURVE SMOOTH",
"155 543 LINE",
"73 543 LINE",
"73 191 LINE SMOOTH",
"73 46 OFFCURVE",
"150 -9 OFFCURVE",
"259 -9 CURVE SMOOTH"
);
}
);
width = 610;
}
);
leftKerningGroup = u;
leftMetricsKey = u;
widthMetricsKey = "=u+10";
rightKerningGroup = uhorn;
unicode = 01B0;
},
{
glyphname = uhorntilde;
lastChange = "2016-12-22 13:06:27 +0000";
layers = (
{
color = -1;
layerId = "E6A13138-87C4-4EDC-BDCD-C4EF9152A586";
paths = (
{
closed = 1;
nodes = (
"328 -9 OFFCURVE",
"391 15 OFFCURVE",
"440 60 CURVE",
"445 60 LINE",
"451 0 LINE",
"520 0 LINE",
"520 527 LINE",
"485 493 LINE",
"578 493 OFFCURVE",
"633 538 OFFCURVE",
"633 622 CURVE SMOOTH",
"633 650 OFFCURVE",
"630 671 OFFCURVE",
"621 695 CURVE",
"562 695 LINE",
"569 670 OFFCURVE",
"574 650 OFFCURVE",
"574 625 CURVE SMOOTH",
"574 567 OFFCURVE",
"537 543 OFFCURVE",
"472 543 CURVE SMOOTH",
"438 543 LINE",
"438 135 LINE",
"395 86 OFFCURVE",
"332 64 OFFCURVE",
"277 64 CURVE SMOOTH",
"204 64 OFFCURVE",
"155 97 OFFCURVE",
"155 195 CURVE SMOOTH",
"155 543 LINE",
"73 543 LINE",
"73 191 LINE SMOOTH",
"73 46 OFFCURVE",
"150 -9 OFFCURVE",
"259 -9 CURVE SMOOTH"
);
},
{
closed = 1;
nodes = (
"408 672 OFFCURVE",
"436 683 OFFCURVE",
"458 705 CURVE",
"458 764 LINE",
"432 738 OFFCURVE",
"406 726 OFFCURVE",
"372 726 CURVE SMOOTH",
"325 726 OFFCURVE",
"279 767 OFFCURVE",
"222 767 CURVE SMOOTH",
"186 767 OFFCURVE",
"157 756 OFFCURVE",
"135 734 CURVE",
"135 675 LINE",
"161 701 OFFCURVE",
"187 713 OFFCURVE",
"221 713 CURVE SMOOTH",
"268 713 OFFCURVE",
"314 672 OFFCURVE",
"371 672 CURVE SMOOTH"
);
}
);
width = 613;
}
);
leftKerningGroup = u;
rightKerningGroup = uhorn;
unicode = 1EEF;
},
{
glyphname = v;
lastChange = "2016-12-22 13:06:27 +0000";
layers = (
{
anchors = (
{
name = bottom;
position = "{281, 0}";
},
{
name = top;
position = "{281, 600}";
}
);
color = -1;
layerId = "E6A13138-87C4-4EDC-BDCD-C4EF9152A586";
paths = (
{
closed = 1;
nodes = (
"333 0 LINE",
"552 543 LINE",
"470 543 LINE",
"278 60 LINE",
"288 60 LINE",
"96 543 LINE",
"9 543 LINE",
"228 0 LINE"
);
}
);
width = 561;
}
);
leftKerningGroup = v;
rightKerningGroup = v;
unicode = 0076;
userData = {
com.typemytype.robofont.layerData = {
};
};
},
{
glyphname = w;
lastChange = "2016-12-22 13:06:27 +0000";
layers = (
{
anchors = (
{
name = bottom;
position = "{445, 0}";
},
{
name = top;
position = "{446, 600}";
}
);
color = -1;
layerId = "E6A13138-87C4-4EDC-BDCD-C4EF9152A586";
paths = (
{
closed = 1;
nodes = (
"298 0 LINE",
"450 478 LINE",
"441 478 LINE",
"592 0 LINE",
"689 0 LINE",
"857 543 LINE",
"779 543 LINE",
"634 71 LINE",
"643 71 LINE",
"495 543 LINE",
"398 543 LINE",
"250 71 LINE",
"257 71 LINE",
"113 543 LINE",
"33 543 LINE",
"201 0 LINE"
);
}
);
width = 889;
}
);
leftKerningGroup = v;
rightKerningGroup = v;
unicode = 0077;
userData = {
com.typemytype.robofont.layerData = {
};
};
},
{
glyphname = x;
lastChange = "2016-12-22 13:06:27 +0000";
layers = (
{
anchors = (
{
name = bottom;
position = "{271, 0}";
},
{
name = top;
position = "{271, 600}";
}
);
color = -1;
layerId = "E6A13138-87C4-4EDC-BDCD-C4EF9152A586";
paths = (
{
closed = 1;
nodes = (
"533 0 LINE",
"320 275 LINE",
"272 333 LINE",
"108 543 LINE",
"13 543 LINE",
"221 273 LINE",
"270 216 LINE",
"438 0 LINE"
);
},
{
closed = 1;
nodes = (
"102 0 LINE",
"270 216 LINE",
"320 275 LINE",
"527 543 LINE",
"435 543 LINE",
"272 333 LINE",
"221 273 LINE",
"9 0 LINE"
);
}
);
width = 540;
}
);
leftKerningGroup = x;
rightKerningGroup = x;
unicode = 0078;
userData = {
com.typemytype.robofont.layerData = {
};
};
},
{
glyphname = y;
lastChange = "2016-12-22 13:06:27 +0000";
layers = (
{
anchors = (
{
name = bottom;
position = "{429, 0}";
},
{
name = top;
position = "{281, 600}";
}
);
color = -1;
layerId = "E6A13138-87C4-4EDC-BDCD-C4EF9152A586";
paths = (
{
closed = 1;
nodes = (
"244 -220 LINE",
"552 543 LINE",
"470 543 LINE",
"278 60 LINE",
"251 0 LINE",
"162 -220 LINE"
);
},
{
closed = 1;
nodes = (
"306 0 LINE",
"96 543 LINE",
"9 543 LINE",
"228 0 LINE"
);
}
);
width = 561;
}
);
leftKerningGroup = v;
leftMetricsKey = v;
widthMetricsKey = v;
rightKerningGroup = v;
unicode = 0079;
userData = {
com.typemytype.robofont.layerData = {
};
};
},
{
glyphname = z;
lastChange = "2016-12-22 13:06:27 +0000";
layers = (
{
anchors = (
{
name = bottom;
position = "{246, 0}";
},
{
name = top;
position = "{246, 600}";
}
);
color = -1;
layerId = "E6A13138-87C4-4EDC-BDCD-C4EF9152A586";
paths = (
{
closed = 1;
nodes = (
"461 0 LINE",
"461 68 LINE",
"123 68 LINE",
"123 49 LINE",
"455 492 LINE",
"455 543 LINE",
"37 543 LINE",
"37 475 LINE",
"363 475 LINE",
"363 493 LINE",
"31 51 LINE",
"31 0 LINE"
);
}
);
width = 488;
}
);
leftKerningGroup = z;
rightKerningGroup = z;
unicode = 007A;
userData = {
com.typemytype.robofont.layerData = {
};
};
},
{
color = 9;
export = 0;
glyphname = o.comb;
lastChange = "2016-12-22 13:06:27 +0000";
layers = (
{
anchors = (
{
name = bottom;
position = "{295, -16}";
},
{
name = center;
position = "{295, 271}";
},
{
name = ogonek;
position = "{362, 8}";
},
{
name = top;
position = "{295, 611}";
},
{
name = topright;
position = "{417, 543}";
}
);
color = -1;
layerId = "E6A13138-87C4-4EDC-BDCD-C4EF9152A586";
paths = (
{
closed = 1;
nodes = (
"442 -10 OFFCURVE",
"540 79 OFFCURVE",
"540 271 CURVE SMOOTH",
"540 465 OFFCURVE",
"445 551 OFFCURVE",
"295 551 CURVE SMOOTH",
"146 551 OFFCURVE",
"50 464 OFFCURVE",
"50 271 CURVE SMOOTH",
"50 76 OFFCURVE",
"147 -10 OFFCURVE",
"295 -10 CURVE SMOOTH"
);
},
{
closed = 1;
nodes = (
"195 56 OFFCURVE",
"132 112 OFFCURVE",
"132 272 CURVE SMOOTH",
"132 430 OFFCURVE",
"195 485 OFFCURVE",
"295 485 CURVE SMOOTH",
"395 485 OFFCURVE",
"458 430 OFFCURVE",
"458 270 CURVE SMOOTH",
"458 112 OFFCURVE",
"395 56 OFFCURVE",
"295 56 CURVE SMOOTH"
);
}
);
width = 590;
}
);
leftKerningGroup = KERN_o_2ND;
leftMetricsKey = o;
rightKerningGroup = KERN_o_1ST;
rightMetricsKey = o;
userData = {
com.typemytype.robofont.layerData = {
};
};
},
{
color = 9;
export = 0;
glyphname = f.short;
lastChange = "2016-12-22 13:06:27 +0000";
layers = (
{
color = -1;
layerId = "E6A13138-87C4-4EDC-BDCD-C4EF9152A586";
paths = (
{
closed = 1;
nodes = (
"198 0 LINE",
"198 616 LINE SMOOTH",
"198 712 OFFCURVE",
"242 749 OFFCURVE",
"331 749 CURVE SMOOTH",
"354 749 OFFCURVE",
"378 747 OFFCURVE",
"401 742 CURVE",
"401 811 LINE",
"376 816 OFFCURVE",
"350 818 OFFCURVE",
"323 818 CURVE SMOOTH",
"188 818 OFFCURVE",
"116 747 OFFCURVE",
"116 611 CURVE SMOOTH",
"116 0 LINE"
);
},
{
closed = 1;
nodes = (
"385 475 LINE",
"385 543 LINE",
"9 543 LINE",
"9 475 LINE"
);
}
);
width = 382;
}
);
leftKerningGroup = KERN_f_2ND;
rightKerningGroup = KERN_f_1ST;
userData = {
com.typemytype.robofont.layerData = {
};
};
},
{
glyphname = a.sc;
lastChange = "2016-12-22 13:06:27 +0000";
layers = (
{
anchors = (
{
name = bottom;
position = "{312, 0}";
},
{
name = ogonek;
position = "{608, 0}";
},
{
name = top;
position = "{312, 615}";
}
);
color = -1;
layerId = "E6A13138-87C4-4EDC-BDCD-C4EF9152A586";
paths = (
{
closed = 1;
nodes = (
"98 0 LINE",
"317 560 LINE",
"305 560 LINE",
"524 0 LINE",
"608 0 LINE",
"370 595 LINE",
"253 595 LINE",
"16 0 LINE"
);
},
{
closed = 1;
nodes = (
"477 185 LINE",
"458 250 LINE",
"165 250 LINE",
"146 185 LINE"
);
}
);
width = 624;
}
);
leftKerningGroup = a.sc;
note = "\012    520\012  ";
rightKerningGroup = a.sc;
},
{
glyphname = ae.sc;
lastChange = "2016-12-22 13:06:27 +0000";
layers = (
{
anchors = (
{
name = bottom;
position = "{451, 0}";
},
{
name = top;
position = "{419, 615}";
}
);
color = -1;
layerId = "E6A13138-87C4-4EDC-BDCD-C4EF9152A586";
paths = (
{
closed = 1;
nodes = (
"98 0 LINE",
"311 530 LINE",
"415 530 LINE",
"416 595 LINE",
"255 595 LINE",
"16 0 LINE"
);
},
{
closed = 1;
nodes = (
"438 185 LINE",
"438 250 LINE",
"167 250 LINE",
"148 185 LINE"
);
},
{
closed = 1;
nodes = (
"811 0 LINE",
"811 65 LINE",
"503 65 LINE",
"463 530 LINE",
"807 530 LINE",
"807 595 LINE",
"378 595 LINE",
"428 0 LINE"
);
},
{
closed = 1;
nodes = (
"763 272 LINE",
"763 337 LINE",
"448 337 LINE",
"448 272 LINE"
);
}
);
width = 854;
}
);
leftKerningGroup = a.sc;
leftMetricsKey = a.sc;
rightKerningGroup = e.sc;
rightMetricsKey = e.sc;
},
{
glyphname = b.sc;
lastChange = "2016-12-22 13:06:27 +0000";
layers = (
{
anchors = (
{
name = bottom;
position = "{306, 0}";
},
{
name = top;
position = "{306, 615}";
}
);
color = -1;
layerId = "E6A13138-87C4-4EDC-BDCD-C4EF9152A586";
paths = (
{
closed = 1;
nodes = (
"475 -5 OFFCURVE",
"554 55 OFFCURVE",
"554 164 CURVE SMOOTH",
"554 249 OFFCURVE",
"501 299 OFFCURVE",
"408 310 CURVE",
"406 304 LINE",
"495 317 OFFCURVE",
"536 372 OFFCURVE",
"536 440 CURVE SMOOTH",
"536 548 OFFCURVE",
"460 602 OFFCURVE",
"280 602 CURVE SMOOTH",
"216 602 OFFCURVE",
"148 595 OFFCURVE",
"90 583 CURVE",
"90 5 LINE",
"149 -2 OFFCURVE",
"206 -5 OFFCURVE",
"263 -5 CURVE SMOOTH"
);
},
{
closed = 1;
nodes = (
"237 54 OFFCURVE",
"205 56 OFFCURVE",
"170 60 CURVE",
"170 533 LINE",
"203 539 OFFCURVE",
"245 542 OFFCURVE",
"288 542 CURVE SMOOTH",
"409 542 OFFCURVE",
"458 511 OFFCURVE",
"458 437 CURVE SMOOTH",
"458 373 OFFCURVE",
"418 336 OFFCURVE",
"305 336 CURVE SMOOTH",
"159 336 LINE",
"159 275 LINE",
"315 275 LINE SMOOTH",
"429 275 OFFCURVE",
"476 239 OFFCURVE",
"476 167 CURVE SMOOTH",
"476 93 OFFCURVE",
"429 54 OFFCURVE",
"278 54 CURVE SMOOTH"
);
}
);
width = 591;
}
);
leftKerningGroup = h.sc;
leftMetricsKey = h.sc;
rightKerningGroup = b.sc;
},
{
glyphname = c.sc;
lastChange = "2016-12-22 13:06:27 +0000";
layers = (
{
anchors = (
{
name = bottom;
position = "{328, 0}";
},
{
name = top;
position = "{322, 615}";
}
);
color = -1;
layerId = "E6A13138-87C4-4EDC-BDCD-C4EF9152A586";
paths = (
{
closed = 1;
nodes = (
"415 -7 OFFCURVE",
"467 0 OFFCURVE",
"513 15 CURVE",
"513 84 LINE",
"460 68 OFFCURVE",
"415 61 OFFCURVE",
"365 61 CURVE SMOOTH",
"221 61 OFFCURVE",
"135 121 OFFCURVE",
"135 298 CURVE SMOOTH",
"135 466 OFFCURVE",
"217 534 OFFCURVE",
"371 534 CURVE SMOOTH",
"420 534 OFFCURVE",
"468 527 OFFCURVE",
"513 516 CURVE",
"513 585 LINE",
"467 597 OFFCURVE",
"419 602 OFFCURVE",
"366 602 CURVE SMOOTH",
"167 602 OFFCURVE",
"48 505 OFFCURVE",
"48 297 CURVE SMOOTH",
"48 77 OFFCURVE",
"170 -7 OFFCURVE",
"358 -7 CURVE SMOOTH"
);
}
);
width = 537;
}
);
leftKerningGroup = o.sc;
leftMetricsKey = o.sc;
rightKerningGroup = c.sc;
},
{
glyphname = d.sc;
lastChange = "2016-12-22 13:06:27 +0000";
layers = (
{
anchors = (
{
name = bottom;
position = "{311, 0}";
},
{
name = center;
position = "{336, 297}";
},
{
name = stroke;
position = "{90, 304}";
},
{
name = top;
position = "{308, 615}";
}
);
color = -1;
layerId = "E6A13138-87C4-4EDC-BDCD-C4EF9152A586";
paths = (
{
closed = 1;
nodes = (
"493 -5 OFFCURVE",
"614 90 OFFCURVE",
"614 297 CURVE SMOOTH",
"614 503 OFFCURVE",
"497 601 OFFCURVE",
"273 601 CURVE SMOOTH",
"215 601 OFFCURVE",
"147 595 OFFCURVE",
"90 583 CURVE",
"90 5 LINE",
"145 -2 OFFCURVE",
"203 -5 OFFCURVE",
"258 -5 CURVE SMOOTH"
);
},
{
closed = 1;
nodes = (
"237 62 OFFCURVE",
"203 64 OFFCURVE",
"172 68 CURVE",
"172 525 LINE",
"200 531 OFFCURVE",
"242 534 OFFCURVE",
"278 534 CURVE SMOOTH",
"444 534 OFFCURVE",
"529 462 OFFCURVE",
"529 298 CURVE SMOOTH",
"529 133 OFFCURVE",
"445 62 OFFCURVE",
"276 62 CURVE SMOOTH"
);
}
);
width = 661;
}
);
leftKerningGroup = h.sc;
leftMetricsKey = h.sc;
rightKerningGroup = o.sc;
rightMetricsKey = o.sc;
},
{
glyphname = e.sc;
lastChange = "2016-12-22 13:06:27 +0000";
layers = (
{
anchors = (
{
name = bottom;
position = "{312, 0}";
},
{
name = ogonek;
position = "{482, 0}";
},
{
name = top;
position = "{310, 615}";
},
{
name = topleft;
position = "{33, 595}";
}
);
color = -1;
layerId = "E6A13138-87C4-4EDC-BDCD-C4EF9152A586";
paths = (
{
closed = 1;
nodes = (
"518 0 LINE",
"518 65 LINE",
"171 65 LINE",
"171 530 LINE",
"513 530 LINE",
"513 595 LINE",
"90 595 LINE",
"90 0 LINE"
);
},
{
closed = 1;
nodes = (
"471 272 LINE",
"471 337 LINE",
"138 337 LINE",
"138 272 LINE"
);
}
);
width = 561;
}
);
leftKerningGroup = h.sc;
leftMetricsKey = h.sc;
rightKerningGroup = e.sc;
},
{
glyphname = schwa.sc;
lastChange = "2016-12-22 13:06:27 +0000";
layers = (
{
anchors = (
{
name = bottom;
position = "{332, 0}";
},
{
name = top;
position = "{332, 615}";
}
);
color = -1;
layerId = "E6A13138-87C4-4EDC-BDCD-C4EF9152A586";
paths = (
{
closed = 1;
nodes = (
"501 -7 OFFCURVE",
"617 86 OFFCURVE",
"617 293 CURVE SMOOTH",
"617 510 OFFCURVE",
"489 602 OFFCURVE",
"263 602 CURVE SMOOTH",
"204 602 OFFCURVE",
"140 597 OFFCURVE",
"80 583 CURVE",
"80 515 LINE",
"138 529 OFFCURVE",
"204 536 OFFCURVE",
"260 536 CURVE SMOOTH",
"436 536 OFFCURVE",
"534 471 OFFCURVE",
"534 292 CURVE SMOOTH",
"534 119 OFFCURVE",
"457 57 OFFCURVE",
"335 57 CURVE SMOOTH",
"204 57 OFFCURVE",
"127 120 OFFCURVE",
"127 292 CURVE",
"96 265 LINE",
"561 265 LINE",
"561 325 LINE",
"43 325 LINE",
"43 292 LINE SMOOTH",
"43 84 OFFCURVE",
"161 -7 OFFCURVE",
"334 -7 CURVE SMOOTH"
);
}
);
width = 664;
}
);
leftKerningGroup = o.sc;
leftMetricsKey = "=o.sc-5";
rightKerningGroup = o.sc;
rightMetricsKey = o.sc;
},
{
glyphname = f.sc;
lastChange = "2016-12-22 13:06:27 +0000";
layers = (
{
color = -1;
layerId = "E6A13138-87C4-4EDC-BDCD-C4EF9152A586";
paths = (
{
closed = 1;
nodes = (
"172 0 LINE",
"172 529 LINE",
"511 529 LINE",
"511 595 LINE",
"90 595 LINE",
"90 0 LINE"
);
},
{
closed = 1;
nodes = (
"467 264 LINE",
"467 330 LINE",
"145 330 LINE",
"145 264 LINE"
);
}
);
width = 541;
}
);
leftKerningGroup = h.sc;
leftMetricsKey = h.sc;
rightKerningGroup = f.sc;
},
{
glyphname = g.sc;
lastChange = "2016-12-22 13:06:27 +0000";
layers = (
{
anchors = (
{
name = bottom;
position = "{342, 0}";
},
{
name = top;
position = "{342, 615}";
}
);
color = -1;
layerId = "E6A13138-87C4-4EDC-BDCD-C4EF9152A586";
paths = (
{
closed = 1;
nodes = (
"445 -5 OFFCURVE",
"500 -1 OFFCURVE",
"553 7 CURVE",
"553 289 LINE",
"475 289 LINE",
"475 39 LINE",
"509 71 LINE",
"475 65 OFFCURVE",
"430 61 OFFCURVE",
"390 61 CURVE SMOOTH",
"220 61 OFFCURVE",
"135 136 OFFCURVE",
"134 296 CURVE SMOOTH",
"134 467 OFFCURVE",
"231 534 OFFCURVE",
"389 534 CURVE SMOOTH",
"436 534 OFFCURVE",
"482 529 OFFCURVE",
"535 515 CURVE",
"535 584 LINE",
"490 596 OFFCURVE",
"437 602 OFFCURVE",
"383 602 CURVE SMOOTH",
"179 602 OFFCURVE",
"47 505 OFFCURVE",
"48 297 CURVE SMOOTH",
"48 93 OFFCURVE",
"166 -5 OFFCURVE",
"396 -5 CURVE SMOOTH"
);
}
);
width = 634;
}
);
leftKerningGroup = o.sc;
leftMetricsKey = o.sc;
rightKerningGroup = g.sc;
},
{
glyphname = h.sc;
lastChange = "2016-12-22 13:06:27 +0000";
layers = (
{
anchors = (
{
name = bottom;
position = "{346, 0}";
},
{
name = center;
position = "{346, 469}";
},
{
name = top;
position = "{346, 615}";
},
{
name = topleft;
position = "{32, 595}";
}
);
color = -1;
layerId = "E6A13138-87C4-4EDC-BDCD-C4EF9152A586";
paths = (
{
closed = 1;
nodes = (
"172 0 LINE",
"172 270 LINE",
"519 270 LINE",
"519 0 LINE",
"602 0 LINE",
"602 595 LINE",
"519 595 LINE",
"519 341 LINE",
"172 341 LINE",
"172 595 LINE",
"90 595 LINE",
"90 0 LINE"
);
}
);
width = 691;
}
);
leftKerningGroup = h.sc;
rightKerningGroup = h.sc;
},
{
glyphname = i.sc;
lastChange = "2016-12-22 13:06:40 +0000";
layers = (
{
anchors = (
{
name = bottom;
position = "{131.006, 0}";
},
{
name = ogonek;
position = "{172, 0}";
},
{
name = top;
position = "{131, 615}";
}
);
color = -1;
layerId = "E6A13138-87C4-4EDC-BDCD-C4EF9152A586";
paths = (
{
closed = 1;
nodes = (
"172 0 LINE",
"172 595 LINE",
"90 595 LINE",
"90 0 LINE"
);
}
);
width = 261;
}
);
leftKerningGroup = h.sc;
leftMetricsKey = h.sc;
rightKerningGroup = h.sc;
rightMetricsKey = h.sc;
},
{
glyphname = j.sc;
lastChange = "2016-12-22 13:06:40 +0000";
layers = (
{
anchors = (
{
name = bottom;
position = "{189, 0}";
},
{
name = top;
position = "{131, 615}";
}
);
color = -1;
layerId = "E6A13138-87C4-4EDC-BDCD-C4EF9152A586";
paths = (
{
closed = 1;
nodes = (
"142 -57 OFFCURVE",
"169 16 OFFCURVE",
"172 111 CURVE",
"172 595 LINE",
"90 595 LINE",
"90 117 LINE SMOOTH",
"90 28 OFFCURVE",
"67 -37 OFFCURVE",
"11 -103 CURVE",
"65 -139 LINE"
);
}
);
width = 261;
}
);
leftKerningGroup = h.sc;
widthMetricsKey = i.sc;
rightKerningGroup = h.sc;
rightMetricsKey = i.sc;
},
{
glyphname = k.sc;
lastChange = "2016-12-22 13:06:27 +0000";
layers = (
{
anchors = (
{
name = bottom;
position = "{308, 0}";
},
{
name = top;
position = "{306, 615}";
}
);
color = -1;
layerId = "E6A13138-87C4-4EDC-BDCD-C4EF9152A586";
paths = (
{
closed = 1;
nodes = (
"587 0 LINE",
"329 317 LINE",
"328 295 LINE",
"569 595 LINE",
"478 595 LINE",
"244 304 LINE",
"493 0 LINE"
);
},
{
closed = 1;
nodes = (
"172 0 LINE",
"172 595 LINE",
"90 595 LINE",
"90 0 LINE"
);
},
{
closed = 1;
nodes = (
"282 270 LINE",
"282 341 LINE",
"159 341 LINE",
"159 270 LINE"
);
}
);
width = 581;
}
);
leftKerningGroup = h.sc;
leftMetricsKey = h.sc;
rightKerningGroup = k.sc;
},
{
glyphname = l.sc;
lastChange = "2016-12-22 13:06:27 +0000";
layers = (
{
anchors = (
{
name = bottom;
position = "{296, 0}";
},
{
name = caronalt;
position = "{337, 595}";
},
{
name = periodcentered;
position = "{372, 331}";
},
{
name = slash;
position = "{132, 323}";
},
{
name = top;
position = "{132, 615}";
}
);
color = -1;
layerId = "E6A13138-87C4-4EDC-BDCD-C4EF9152A586";
paths = (
{
closed = 1;
nodes = (
"501 0 LINE",
"501 68 LINE",
"172 68 LINE",
"172 595 LINE",
"90 595 LINE",
"90 0 LINE"
);
}
);
width = 508;
}
);
leftKerningGroup = h.sc;
leftMetricsKey = h.sc;
rightKerningGroup = l.sc;
},
{
color = 0;
glyphname = ldot.sc;
lastChange = "2016-12-22 13:06:27 +0000";
layers = (
{
anchors = (
{
name = bottom;
position = "{296, 0}";
},
{
name = caronalt;
position = "{337, 595}";
},
{
name = periodcentered;
position = "{372, 331}";
},
{
name = slash;
position = "{132, 323}";
},
{
name = top;
position = "{132, 615}";
}
);
color = -1;
layerId = "E6A13138-87C4-4EDC-BDCD-C4EF9152A586";
paths = (
{
closed = 1;
nodes = (
"501 0 LINE",
"501 68 LINE",
"172 68 LINE",
"172 595 LINE",
"90 595 LINE",
"90 0 LINE"
);
},
{
closed = 1;
nodes = (
"408 281 OFFCURVE",
"427 299 OFFCURVE",
"427 330 CURVE SMOOTH",
"427 362 OFFCURVE",
"408 381 OFFCURVE",
"372 381 CURVE SMOOTH",
"336 381 OFFCURVE",
"317 362 OFFCURVE",
"317 330 CURVE SMOOTH",
"317 299 OFFCURVE",
"336 281 OFFCURVE",
"372 281 CURVE SMOOTH"
);
}
);
width = 508;
}
);
leftKerningGroup = h.sc;
rightKerningGroup = l.sc;
},
{
glyphname = m.sc;
lastChange = "2016-12-22 13:06:27 +0000";
layers = (
{
anchors = (
{
name = bottom;
position = "{419, 0}";
},
{
name = top;
position = "{419, 615}";
}
);
color = -1;
layerId = "E6A13138-87C4-4EDC-BDCD-C4EF9152A586";
paths = (
{
closed = 1;
nodes = (
"169 0 LINE",
"169 525 LINE",
"144 525 LINE",
"379 83 LINE",
"450 83 LINE",
"681 525 LINE",
"660 525 LINE",
"660 0 LINE",
"738 0 LINE",
"738 595 LINE",
"640 595 LINE",
"409 146 LINE",
"424 146 LINE",
"189 595 LINE",
"92 595 LINE",
"92 0 LINE"
);
}
);
width = 829;
}
);
leftKerningGroup = h.sc;
leftMetricsKey = "=h.sc+2";
rightKerningGroup = h.sc;
rightMetricsKey = "=h.sc+2";
},
{
glyphname = n.sc;
lastChange = "2016-12-22 13:06:40 +0000";
layers = (
{
anchors = (
{
name = bottom;
position = "{351, 0}";
},
{
name = top;
position = "{351, 615}";
}
);
color = -1;
layerId = "E6A13138-87C4-4EDC-BDCD-C4EF9152A586";
paths = (
{
closed = 1;
nodes = (
"167 0 LINE",
"167 500 LINE",
"151 500 LINE",
"528 0 LINE",
"612 0 LINE",
"612 595 LINE",
"535 595 LINE",
"535 95 LINE",
"550 95 LINE",
"173 595 LINE",
"90 595 LINE",
"90 0 LINE"
);
}
);
width = 701;
}
);
leftKerningGroup = h.sc;
leftMetricsKey = h.sc;
rightKerningGroup = h.sc;
rightMetricsKey = h.sc;
},
{
glyphname = eng.sc;
lastChange = "2016-12-22 13:06:40 +0000";
layers = (
{
color = -1;
layerId = "E6A13138-87C4-4EDC-BDCD-C4EF9152A586";
paths = (
{
closed = 1;
nodes = (
"167 0 LINE",
"167 500 LINE",
"151 500 LINE",
"533 -6 LINE",
"550 95 LINE",
"173 595 LINE",
"90 595 LINE",
"90 0 LINE"
);
},
{
closed = 1;
nodes = (
"584 -151 OFFCURVE",
"608 -78 OFFCURVE",
"612 18 CURVE",
"612 595 LINE",
"535 595 LINE",
"535 24 LINE SMOOTH",
"535 -66 OFFCURVE",
"511 -130 OFFCURVE",
"456 -196 CURVE",
"508 -232 LINE"
);
}
);
width = 701;
}
);
leftKerningGroup = h.sc;
leftMetricsKey = n.sc;
widthMetricsKey = n.sc;
rightKerningGroup = h.sc;
},
{
glyphname = o.sc;
lastChange = "2016-12-22 13:06:27 +0000";
layers = (
{
anchors = (
{
name = bottom;
position = "{334, 0}";
},
{
name = center;
position = "{334, 297}";
},
{
name = ogonek;
position = "{411, 0}";
},
{
name = top;
position = "{334, 615}";
},
{
name = topleft;
position = "{21, 595}";
},
{
name = topright;
position = "{413, 595}";
}
);
color = -1;
layerId = "E6A13138-87C4-4EDC-BDCD-C4EF9152A586";
paths = (
{
closed = 1;
nodes = (
"505 -7 OFFCURVE",
"621 88 OFFCURVE",
"621 297 CURVE SMOOTH",
"621 507 OFFCURVE",
"506 602 OFFCURVE",
"334 602 CURVE SMOOTH",
"164 602 OFFCURVE",
"48 507 OFFCURVE",
"48 297 CURVE SMOOTH",
"48 88 OFFCURVE",
"163 -7 OFFCURVE",
"334 -7 CURVE SMOOTH"
);
},
{
closed = 1;
nodes = (
"212 59 OFFCURVE",
"133 126 OFFCURVE",
"133 300 CURVE SMOOTH",
"133 469 OFFCURVE",
"213 536 OFFCURVE",
"334 536 CURVE SMOOTH",
"456 536 OFFCURVE",
"536 469 OFFCURVE",
"536 295 CURVE SMOOTH",
"536 126 OFFCURVE",
"456 59 OFFCURVE",
"334 59 CURVE SMOOTH"
);
}
);
width = 668;
}
);
leftKerningGroup = o.sc;
rightKerningGroup = o.sc;
},
{
glyphname = ohorn.sc;
lastChange = "2016-12-22 13:06:27 +0000";
layers = (
{
anchors = (
{
name = bottom;
position = "{334, 0}";
},
{
name = top;
position = "{334, 615}";
}
);
color = -1;
layerId = "E6A13138-87C4-4EDC-BDCD-C4EF9152A586";
paths = (
{
closed = 1;
nodes = (
"506 -7 OFFCURVE",
"621 85 OFFCURVE",
"621 297 CURVE SMOOTH",
"621 434 OFFCURVE",
"572 521 OFFCURVE",
"493 565 CURVE",
"491 548 LINE",
"575 548 OFFCURVE",
"624 585 OFFCURVE",
"624 654 CURVE SMOOTH",
"624 677 OFFCURVE",
"621 694 OFFCURVE",
"614 714 CURVE",
"555 714 LINE",
"560 693 OFFCURVE",
"564 677 OFFCURVE",
"564 657 CURVE SMOOTH",
"564 612 OFFCURVE",
"533 593 OFFCURVE",
"477 593 CURVE SMOOTH",
"423 593 OFFCURVE",
"382 602 OFFCURVE",
"334 602 CURVE SMOOTH",
"164 602 OFFCURVE",
"48 507 OFFCURVE",
"48 297 CURVE SMOOTH",
"48 88 OFFCURVE",
"163 -7 OFFCURVE",
"334 -7 CURVE SMOOTH"
);
},
{
closed = 1;
nodes = (
"212 59 OFFCURVE",
"133 126 OFFCURVE",
"133 300 CURVE SMOOTH",
"133 469 OFFCURVE",
"213 536 OFFCURVE",
"334 536 CURVE SMOOTH",
"456 536 OFFCURVE",
"536 469 OFFCURVE",
"536 295 CURVE SMOOTH",
"536 126 OFFCURVE",
"456 59 OFFCURVE",
"334 59 CURVE SMOOTH"
);
}
);
width = 668;
}
);
leftKerningGroup = o.sc;
leftMetricsKey = o.sc;
widthMetricsKey = o.sc;
rightKerningGroup = o.sc;
},
{
glyphname = ohorntilde.sc;
lastChange = "2016-12-22 13:06:27 +0000";
layers = (
{
color = -1;
layerId = "E6A13138-87C4-4EDC-BDCD-C4EF9152A586";
paths = (
{
closed = 1;
nodes = (
"506 -7 OFFCURVE",
"621 85 OFFCURVE",
"621 297 CURVE SMOOTH",
"621 434 OFFCURVE",
"572 521 OFFCURVE",
"493 565 CURVE",
"491 548 LINE",
"575 548 OFFCURVE",
"624 585 OFFCURVE",
"624 654 CURVE SMOOTH",
"624 677 OFFCURVE",
"621 694 OFFCURVE",
"614 714 CURVE",
"555 714 LINE",
"560 693 OFFCURVE",
"564 677 OFFCURVE",
"564 657 CURVE SMOOTH",
"564 612 OFFCURVE",
"533 593 OFFCURVE",
"477 593 CURVE SMOOTH",
"423 593 OFFCURVE",
"382 602 OFFCURVE",
"334 602 CURVE SMOOTH",
"164 602 OFFCURVE",
"48 507 OFFCURVE",
"48 297 CURVE SMOOTH",
"48 88 OFFCURVE",
"163 -7 OFFCURVE",
"334 -7 CURVE SMOOTH"
);
},
{
closed = 1;
nodes = (
"212 59 OFFCURVE",
"133 126 OFFCURVE",
"133 300 CURVE SMOOTH",
"133 469 OFFCURVE",
"213 536 OFFCURVE",
"334 536 CURVE SMOOTH",
"456 536 OFFCURVE",
"536 469 OFFCURVE",
"536 295 CURVE SMOOTH",
"536 126 OFFCURVE",
"456 59 OFFCURVE",
"334 59 CURVE SMOOTH"
);
},
{
closed = 1;
nodes = (
"454 689 OFFCURVE",
"482 699 OFFCURVE",
"503 721 CURVE",
"503 777 LINE",
"478 753 OFFCURVE",
"452 742 OFFCURVE",
"414 742 CURVE SMOOTH",
"362 742 OFFCURVE",
"317 780 OFFCURVE",
"255 780 CURVE SMOOTH",
"215 780 OFFCURVE",
"187 769 OFFCURVE",
"165 747 CURVE",
"165 691 LINE",
"191 715 OFFCURVE",
"216 726 OFFCURVE",
"254 726 CURVE SMOOTH",
"306 726 OFFCURVE",
"351 689 OFFCURVE",
"413 689 CURVE SMOOTH"
);
}
);
width = 668;
}
);
leftKerningGroup = o.sc;
rightKerningGroup = o.sc;
},
{
glyphname = oogonek.sc;
lastChange = "2016-12-22 13:06:27 +0000";
layers = (
{
anchors = (
{
name = top;
position = "{334, 615}";
}
);
color = -1;
layerId = "E6A13138-87C4-4EDC-BDCD-C4EF9152A586";
paths = (
{
closed = 1;
nodes = (
"404 -208 OFFCURVE",
"434 -201 OFFCURVE",
"463 -189 CURVE",
"463 -149 LINE",
"429 -162 OFFCURVE",
"404 -168 OFFCURVE",
"378 -168 CURVE SMOOTH",
"328 -168 OFFCURVE",
"302 -147 OFFCURVE",
"302 -110 CURVE SMOOTH",
"302 -69 OFFCURVE",
"328 -27 OFFCURVE",
"434 6 CURVE SMOOTH",
"547 39 OFFCURVE",
"621 129 OFFCURVE",
"621 297 CURVE SMOOTH",
"621 507 OFFCURVE",
"506 602 OFFCURVE",
"334 602 CURVE SMOOTH",
"164 602 OFFCURVE",
"48 507 OFFCURVE",
"48 297 CURVE SMOOTH",
"48 88 OFFCURVE",
"163 -7 OFFCURVE",
"334 -7 CURVE SMOOTH",
"354 -7 LINE",
"353 9 LINE",
"279 -22 OFFCURVE",
"250 -65 OFFCURVE",
"250 -116 CURVE SMOOTH",
"250 -173 OFFCURVE",
"292 -208 OFFCURVE",
"371 -208 CURVE SMOOTH"
);
},
{
closed = 1;
nodes = (
"212 59 OFFCURVE",
"133 126 OFFCURVE",
"133 300 CURVE SMOOTH",
"133 469 OFFCURVE",
"213 536 OFFCURVE",
"334 536 CURVE SMOOTH",
"456 536 OFFCURVE",
"536 469 OFFCURVE",
"536 295 CURVE SMOOTH",
"536 126 OFFCURVE",
"456 59 OFFCURVE",
"334 59 CURVE SMOOTH"
);
}
);
width = 668;
}
);
leftKerningGroup = o.sc;
rightKerningGroup = o.sc;
},
{
glyphname = oe.sc;
lastChange = "2016-12-22 13:06:27 +0000";
layers = (
{
anchors = (
{
name = bottom;
position = "{518, 0}";
},
{
name = top;
position = "{518, 615}";
}
);
color = -1;
layerId = "E6A13138-87C4-4EDC-BDCD-C4EF9152A586";
paths = (
{
closed = 1;
nodes = (
"439 -4 OFFCURVE",
"493 0 OFFCURVE",
"540 0 CURVE SMOOTH",
"890 0 LINE",
"890 65 LINE",
"558 65 LINE",
"558 530 LINE",
"886 530 LINE",
"886 595 LINE",
"535 595 LINE SMOOTH",
"490 595 OFFCURVE",
"436 601 OFFCURVE",
"390 601 CURVE SMOOTH",
"167 601 OFFCURVE",
"48 503 OFFCURVE",
"48 297 CURVE SMOOTH",
"48 91 OFFCURVE",
"164 -4 OFFCURVE",
"393 -4 CURVE SMOOTH"
);
},
{
closed = 1;
nodes = (
"217 63 OFFCURVE",
"133 133 OFFCURVE",
"133 297 CURVE SMOOTH",
"133 461 OFFCURVE",
"216 534 OFFCURVE",
"378 534 CURVE SMOOTH",
"414 534 OFFCURVE",
"444 532 OFFCURVE",
"477 529 CURVE",
"477 66 LINE",
"449 64 OFFCURVE",
"417 63 OFFCURVE",
"378 63 CURVE SMOOTH"
);
},
{
closed = 1;
nodes = (
"842 272 LINE",
"842 337 LINE",
"530 337 LINE",
"530 272 LINE"
);
}
);
width = 933;
}
);
leftKerningGroup = o.sc;
leftMetricsKey = o.sc;
rightKerningGroup = e.sc;
rightMetricsKey = e.sc;
},
{
glyphname = p.sc;
lastChange = "2016-12-22 13:06:27 +0000";
layers = (
{
color = -1;
layerId = "E6A13138-87C4-4EDC-BDCD-C4EF9152A586";
paths = (
{
closed = 1;
nodes = (
"172 0 LINE",
"172 194 LINE",
"200 191 OFFCURVE",
"230 190 OFFCURVE",
"261 190 CURVE SMOOTH",
"450 190 OFFCURVE",
"537 262 OFFCURVE",
"537 396 CURVE SMOOTH",
"537 539 OFFCURVE",
"444 602 OFFCURVE",
"269 602 CURVE SMOOTH",
"203 602 OFFCURVE",
"149 596 OFFCURVE",
"90 584 CURVE",
"90 0 LINE"
);
},
{
closed = 1;
nodes = (
"228 252 OFFCURVE",
"201 255 OFFCURVE",
"172 258 CURVE",
"172 531 LINE",
"203 536 OFFCURVE",
"236 539 OFFCURVE",
"275 539 CURVE SMOOTH",
"396 539 OFFCURVE",
"456 496 OFFCURVE",
"456 396 CURVE SMOOTH",
"456 298 OFFCURVE",
"399 252 OFFCURVE",
"262 252 CURVE SMOOTH"
);
}
);
width = 582;
}
);
leftKerningGroup = h.sc;
leftMetricsKey = h.sc;
rightKerningGroup = p.sc;
},
{
glyphname = thorn.sc;
lastChange = "2016-12-22 13:06:27 +0000";
layers = (
{
color = -1;
layerId = "E6A13138-87C4-4EDC-BDCD-C4EF9152A586";
paths = (
{
closed = 1;
nodes = (
"172 0 LINE",
"172 103 LINE",
"201 101 OFFCURVE",
"230 100 OFFCURVE",
"262 100 CURVE SMOOTH",
"450 100 OFFCURVE",
"537 173 OFFCURVE",
"537 306 CURVE SMOOTH",
"537 448 OFFCURVE",
"444 511 OFFCURVE",
"270 511 CURVE SMOOTH",
"229 511 OFFCURVE",
"199 508 OFFCURVE",
"172 504 CURVE",
"172 596 LINE",
"90 596 LINE",
"90 0 LINE"
);
},
{
closed = 1;
nodes = (
"228 162 OFFCURVE",
"201 164 OFFCURVE",
"172 167 CURVE",
"172 441 LINE",
"203 446 OFFCURVE",
"235 449 OFFCURVE",
"275 449 CURVE SMOOTH",
"396 449 OFFCURVE",
"456 405 OFFCURVE",
"456 305 CURVE SMOOTH",
"456 209 OFFCURVE",
"399 162 OFFCURVE",
"262 162 CURVE SMOOTH"
);
}
);
width = 587;
}
);
leftKerningGroup = h.sc;
leftMetricsKey = h.sc;
rightKerningGroup = thorn.sc;
rightMetricsKey = "=p.sc+5";
},
{
glyphname = q.sc;
lastChange = "2016-12-22 13:06:27 +0000";
layers = (
{
color = -1;
layerId = "E6A13138-87C4-4EDC-BDCD-C4EF9152A586";
paths = (
{
closed = 1;
nodes = (
"609 -35 LINE",
"507 -26 OFFCURVE",
"393 -8 OFFCURVE",
"312 23 CURVE",
"289 3 LINE",
"502 -24 OFFCURVE",
"621 86 OFFCURVE",
"621 297 CURVE SMOOTH",
"621 507 OFFCURVE",
"506 602 OFFCURVE",
"334 602 CURVE SMOOTH",
"164 602 OFFCURVE",
"48 507 OFFCURVE",
"48 296 CURVE SMOOTH",
"48 66 OFFCURVE",
"171 -53 OFFCURVE",
"597 -101 CURVE"
);
},
{
closed = 1;
nodes = (
"212 59 OFFCURVE",
"133 126 OFFCURVE",
"133 300 CURVE SMOOTH",
"133 469 OFFCURVE",
"213 536 OFFCURVE",
"334 536 CURVE SMOOTH",
"456 536 OFFCURVE",
"536 469 OFFCURVE",
"536 295 CURVE SMOOTH",
"536 126 OFFCURVE",
"456 59 OFFCURVE",
"334 59 CURVE SMOOTH"
);
}
);
width = 668;
}
);
leftKerningGroup = o.sc;
leftMetricsKey = o.sc;
widthMetricsKey = o.sc;
rightKerningGroup = o.sc;
},
{
glyphname = r.sc;
lastChange = "2016-12-22 13:06:27 +0000";
layers = (
{
anchors = (
{
name = bottom;
position = "{322, 0}";
},
{
name = top;
position = "{298, 615}";
}
);
color = -1;
layerId = "E6A13138-87C4-4EDC-BDCD-C4EF9152A586";
paths = (
{
closed = 1;
nodes = (
"171 0 LINE",
"171 244 LINE",
"203 241 OFFCURVE",
"231 240 OFFCURVE",
"267 240 CURVE SMOOTH",
"443 240 OFFCURVE",
"537 302 OFFCURVE",
"537 422 CURVE SMOOTH",
"537 546 OFFCURVE",
"451 602 OFFCURVE",
"274 602 CURVE SMOOTH",
"205 602 OFFCURVE",
"142 593 OFFCURVE",
"90 583 CURVE",
"90 0 LINE"
);
},
{
closed = 1;
nodes = (
"585 0 LINE",
"354 280 LINE",
"264 280 LINE",
"492 0 LINE"
);
},
{
closed = 1;
nodes = (
"227 301 OFFCURVE",
"207 303 OFFCURVE",
"171 305 CURVE",
"171 531 LINE",
"204 537 OFFCURVE",
"235 540 OFFCURVE",
"280 540 CURVE SMOOTH",
"404 540 OFFCURVE",
"458 508 OFFCURVE",
"458 420 CURVE SMOOTH",
"458 340 OFFCURVE",
"403 301 OFFCURVE",
"268 301 CURVE SMOOTH"
);
}
);
width = 625;
}
);
leftKerningGroup = h.sc;
leftMetricsKey = h.sc;
rightKerningGroup = r.sc;
},
{
glyphname = s.sc;
lastChange = "2016-12-22 13:06:27 +0000";
layers = (
{
anchors = (
{
name = bottom;
position = "{253, 0}";
},
{
name = top;
position = "{253, 615}";
}
);
color = -1;
layerId = "E6A13138-87C4-4EDC-BDCD-C4EF9152A586";
paths = (
{
closed = 1;
nodes = (
"383 -7 OFFCURVE",
"464 61 OFFCURVE",
"464 165 CURVE SMOOTH",
"464 253 OFFCURVE",
"414 302 OFFCURVE",
"277 329 CURVE SMOOTH",
"246 335 LINE SMOOTH",
"149 355 OFFCURVE",
"121 381 OFFCURVE",
"121 437 CURVE SMOOTH",
"121 498 OFFCURVE",
"168 536 OFFCURVE",
"285 536 CURVE SMOOTH",
"335 536 OFFCURVE",
"386 529 OFFCURVE",
"435 516 CURVE",
"435 584 LINE",
"390 596 OFFCURVE",
"337 602 OFFCURVE",
"284 602 CURVE SMOOTH",
"116 602 OFFCURVE",
"40 533 OFFCURVE",
"40 433 CURVE SMOOTH",
"40 344 OFFCURVE",
"91 293 OFFCURVE",
"221 268 CURVE SMOOTH",
"252 261 LINE SMOOTH",
"353 241 OFFCURVE",
"383 216 OFFCURVE",
"383 161 CURVE SMOOTH",
"383 96 OFFCURVE",
"335 59 OFFCURVE",
"222 59 CURVE SMOOTH",
"173 59 OFFCURVE",
"110 68 OFFCURVE",
"51 85 CURVE",
"51 17 LINE",
"103 1 OFFCURVE",
"165 -7 OFFCURVE",
"222 -7 CURVE SMOOTH"
);
}
);
width = 504;
}
);
leftKerningGroup = s.sc;
rightKerningGroup = s.sc;
},
{
glyphname = germandbls.sc;
lastChange = "2016-12-22 13:06:27 +0000";
layers = (
{
color = -1;
layerId = "E6A13138-87C4-4EDC-BDCD-C4EF9152A586";
paths = (
{
closed = 1;
nodes = (
"682 -7 OFFCURVE",
"762 61 OFFCURVE",
"762 165 CURVE SMOOTH",
"762 253 OFFCURVE",
"713 302 OFFCURVE",
"578 329 CURVE SMOOTH",
"547 335 LINE SMOOTH",
"453 354 OFFCURVE",
"425 381 OFFCURVE",
"425 437 CURVE SMOOTH",
"425 498 OFFCURVE",
"471 536 OFFCURVE",
"586 536 CURVE SMOOTH",
"635 536 OFFCURVE",
"685 529 OFFCURVE",
"733 516 CURVE",
"733 584 LINE",
"690 596 OFFCURVE",
"637 602 OFFCURVE",
"585 602 CURVE SMOOTH",
"419 602 OFFCURVE",
"345 533 OFFCURVE",
"345 433 CURVE SMOOTH",
"345 344 OFFCURVE",
"395 293 OFFCURVE",
"523 268 CURVE SMOOTH",
"553 261 LINE SMOOTH",
"652 241 OFFCURVE",
"682 216 OFFCURVE",
"682 161 CURVE SMOOTH",
"682 96 OFFCURVE",
"635 59 OFFCURVE",
"524 59 CURVE SMOOTH",
"475 59 OFFCURVE",
"414 68 OFFCURVE",
"356 85 CURVE",
"356 17 LINE",
"407 1 OFFCURVE",
"468 -7 OFFCURVE",
"524 -7 CURVE SMOOTH"
);
},
{
closed = 1;
nodes = (
"172 0 LINE",
"172 378 LINE SMOOTH",
"172 487 OFFCURVE",
"224 536 OFFCURVE",
"335 536 CURVE SMOOTH",
"370 536 OFFCURVE",
"398 531 OFFCURVE",
"422 520 CURVE",
"480 572 LINE",
"440 592 OFFCURVE",
"391 602 OFFCURVE",
"335 602 CURVE SMOOTH",
"169 602 OFFCURVE",
"90 525 OFFCURVE",
"90 368 CURVE SMOOTH",
"90 0 LINE"
);
}
);
width = 802;
}
);
leftKerningGroup = h.sc;
leftMetricsKey = h.sc;
rightKerningGroup = s.sc;
rightMetricsKey = s.sc;
},
{
glyphname = t.sc;
lastChange = "2016-12-22 13:06:27 +0000";
layers = (
{
anchors = (
{
name = bottom;
position = "{269, 0}";
},
{
name = center;
position = "{269, 307}";
},
{
name = top;
position = "{269, 615}";
}
);
color = -1;
layerId = "E6A13138-87C4-4EDC-BDCD-C4EF9152A586";
paths = (
{
closed = 1;
nodes = (
"311 0 LINE",
"311 527 LINE",
"532 527 LINE",
"532 595 LINE",
"7 595 LINE",
"7 527 LINE",
"228 527 LINE",
"228 0 LINE"
);
}
);
width = 539;
}
);
leftKerningGroup = t.sc;
rightKerningGroup = t.sc;
},
{
glyphname = u.sc;
lastChange = "2016-12-22 13:06:27 +0000";
layers = (
{
anchors = (
{
name = bottom;
position = "{340, 0}";
},
{
name = ogonek;
position = "{416, 1}";
},
{
name = top;
position = "{340, 615}";
},
{
name = topright;
position = "{515, 595}";
}
);
color = -1;
layerId = "E6A13138-87C4-4EDC-BDCD-C4EF9152A586";
paths = (
{
closed = 1;
nodes = (
"513 -7 OFFCURVE",
"592 70 OFFCURVE",
"592 238 CURVE SMOOTH",
"592 595 LINE",
"511 595 LINE",
"511 230 LINE SMOOTH",
"511 112 OFFCURVE",
"457 60 OFFCURVE",
"340 60 CURVE SMOOTH",
"223 60 OFFCURVE",
"169 112 OFFCURVE",
"169 230 CURVE SMOOTH",
"169 595 LINE",
"86 595 LINE",
"86 238 LINE SMOOTH",
"86 70 OFFCURVE",
"166 -7 OFFCURVE",
"340 -7 CURVE SMOOTH"
);
}
);
width = 677;
}
);
leftKerningGroup = u.sc;
rightKerningGroup = u.sc;
},
{
glyphname = uhorn.sc;
lastChange = "2016-12-22 13:06:27 +0000";
layers = (
{
anchors = (
{
name = bottom;
position = "{339, 0}";
},
{
name = top;
position = "{339, 615}";
}
);
color = -1;
layerId = "E6A13138-87C4-4EDC-BDCD-C4EF9152A586";
paths = (
{
closed = 1;
nodes = (
"513 -7 OFFCURVE",
"592 70 OFFCURVE",
"592 238 CURVE SMOOTH",
"592 555 LINE",
"652 563 OFFCURVE",
"687 598 OFFCURVE",
"687 654 CURVE SMOOTH",
"687 677 OFFCURVE",
"684 694 OFFCURVE",
"677 714 CURVE",
"618 714 LINE",
"624 693 OFFCURVE",
"627 677 OFFCURVE",
"627 657 CURVE SMOOTH",
"627 612 OFFCURVE",
"596 595 OFFCURVE",
"540 595 CURVE SMOOTH",
"511 595 LINE",
"511 230 LINE SMOOTH",
"511 112 OFFCURVE",
"457 60 OFFCURVE",
"340 60 CURVE SMOOTH",
"223 60 OFFCURVE",
"169 112 OFFCURVE",
"169 230 CURVE SMOOTH",
"169 595 LINE",
"86 595 LINE",
"86 238 LINE SMOOTH",
"86 70 OFFCURVE",
"166 -7 OFFCURVE",
"340 -7 CURVE SMOOTH"
);
}
);
width = 677;
}
);
leftKerningGroup = u.sc;
leftMetricsKey = u.sc;
widthMetricsKey = u.sc;
rightKerningGroup = u.sc;
},
{
glyphname = uhorntilde.sc;
lastChange = "2016-12-22 13:06:27 +0000";
layers = (
{
color = -1;
layerId = "E6A13138-87C4-4EDC-BDCD-C4EF9152A586";
paths = (
{
closed = 1;
nodes = (
"513 -7 OFFCURVE",
"592 70 OFFCURVE",
"592 238 CURVE SMOOTH",
"592 555 LINE",
"652 563 OFFCURVE",
"687 598 OFFCURVE",
"687 654 CURVE SMOOTH",
"687 677 OFFCURVE",
"684 694 OFFCURVE",
"677 714 CURVE",
"618 714 LINE",
"624 693 OFFCURVE",
"627 677 OFFCURVE",
"627 657 CURVE SMOOTH",
"627 612 OFFCURVE",
"596 595 OFFCURVE",
"540 595 CURVE SMOOTH",
"511 595 LINE",
"511 230 LINE SMOOTH",
"511 112 OFFCURVE",
"457 60 OFFCURVE",
"340 60 CURVE SMOOTH",
"223 60 OFFCURVE",
"169 112 OFFCURVE",
"169 230 CURVE SMOOTH",
"169 595 LINE",
"86 595 LINE",
"86 238 LINE SMOOTH",
"86 70 OFFCURVE",
"166 -7 OFFCURVE",
"340 -7 CURVE SMOOTH"
);
},
{
closed = 1;
nodes = (
"460 689 OFFCURVE",
"489 699 OFFCURVE",
"510 721 CURVE",
"510 777 LINE",
"485 753 OFFCURVE",
"459 742 OFFCURVE",
"421 742 CURVE SMOOTH",
"368 742 OFFCURVE",
"322 780 OFFCURVE",
"259 780 CURVE SMOOTH",
"218 780 OFFCURVE",
"190 769 OFFCURVE",
"168 747 CURVE",
"168 691 LINE",
"194 715 OFFCURVE",
"220 726 OFFCURVE",
"258 726 CURVE SMOOTH",
"311 726 OFFCURVE",
"356 689 OFFCURVE",
"419 689 CURVE SMOOTH"
);
}
);
width = 677;
}
);
leftKerningGroup = u.sc;
rightKerningGroup = u.sc;
},
{
glyphname = uogonek.sc;
lastChange = "2016-12-22 13:06:27 +0000";
layers = (
{
color = -1;
layerId = "E6A13138-87C4-4EDC-BDCD-C4EF9152A586";
paths = (
{
closed = 1;
nodes = (
"511 230 LINE SMOOTH",
"511 112 OFFCURVE",
"457 60 OFFCURVE",
"340 60 CURVE SMOOTH",
"223 60 OFFCURVE",
"169 112 OFFCURVE",
"169 230 CURVE SMOOTH",
"169 595 LINE",
"86 595 LINE",
"86 238 LINE SMOOTH",
"86 70 OFFCURVE",
"166 -7 OFFCURVE",
"340 -7 CURVE SMOOTH",
"360 -7 LINE",
"356 9 LINE",
"282 -23 OFFCURVE",
"255 -67 OFFCURVE",
"255 -115 CURVE SMOOTH",
"255 -172 OFFCURVE",
"297 -207 OFFCURVE",
"376 -207 CURVE SMOOTH",
"409 -207 OFFCURVE",
"439 -200 OFFCURVE",
"468 -188 CURVE",
"468 -148 LINE",
"434 -161 OFFCURVE",
"409 -166 OFFCURVE",
"383 -166 CURVE SMOOTH",
"333 -166 OFFCURVE",
"307 -146 OFFCURVE",
"307 -108 CURVE SMOOTH",
"307 -68 OFFCURVE",
"337 -21 OFFCURVE",
"434 2 CURVE SMOOTH",
"541 29 OFFCURVE",
"592 104 OFFCURVE",
"592 238 CURVE SMOOTH",
"592 595 LINE",
"511 595 LINE"
);
}
);
width = 677;
}
);
leftKerningGroup = u.sc;
rightKerningGroup = u.sc;
},
{
glyphname = v.sc;
lastChange = "2016-12-22 13:06:27 +0000";
layers = (
{
color = -1;
layerId = "E6A13138-87C4-4EDC-BDCD-C4EF9152A586";
paths = (
{
closed = 1;
nodes = (
"363 0 LINE",
"598 595 LINE",
"516 595 LINE",
"295 34 LINE",
"312 34 LINE",
"93 595 LINE",
"6 595 LINE",
"242 0 LINE"
);
}
);
width = 604;
}
);
leftKerningGroup = v.sc;
rightKerningGroup = v.sc;
},
{
glyphname = w.sc;
lastChange = "2016-12-22 13:06:27 +0000";
layers = (
{
anchors = (
{
name = bottom;
position = "{491, 0}";
},
{
name = top;
position = "{491, 615}";
}
);
color = -1;
layerId = "E6A13138-87C4-4EDC-BDCD-C4EF9152A586";
paths = (
{
closed = 1;
nodes = (
"324 0 LINE",
"502 549 LINE",
"480 549 LINE",
"656 0 LINE",
"764 0 LINE",
"951 595 LINE",
"872 595 LINE",
"698 37 LINE",
"715 37 LINE",
"540 595 LINE",
"444 595 LINE",
"265 37 LINE",
"286 37 LINE",
"113 595 LINE",
"29 595 LINE",
"217 0 LINE"
);
}
);
width = 980;
}
);
leftKerningGroup = v.sc;
rightKerningGroup = v.sc;
},
{
glyphname = x.sc;
lastChange = "2016-12-22 13:06:27 +0000";
layers = (
{
color = -1;
layerId = "E6A13138-87C4-4EDC-BDCD-C4EF9152A586";
paths = (
{
closed = 1;
nodes = (
"585 0 LINE",
"344 306 LINE",
"295 363 LINE",
"109 595 LINE",
"13 595 LINE",
"245 305 LINE",
"294 247 LINE",
"490 0 LINE"
);
},
{
closed = 1;
nodes = (
"99 0 LINE",
"294 247 LINE",
"344 306 LINE",
"573 595 LINE",
"481 595 LINE",
"295 363 LINE",
"245 305 LINE",
"4 0 LINE"
);
}
);
width = 589;
}
);
leftKerningGroup = x.sc;
rightKerningGroup = x.sc;
},
{
glyphname = y.sc;
lastChange = "2016-12-22 13:06:27 +0000";
layers = (
{
anchors = (
{
name = bottom;
position = "{269, 0}";
},
{
name = top;
position = "{269, 615}";
},
{
name = topleft;
position = "{2, 595}";
}
);
color = -1;
layerId = "E6A13138-87C4-4EDC-BDCD-C4EF9152A586";
paths = (
{
closed = 1;
nodes = (
"311 0 LINE",
"311 294 LINE",
"293 235 LINE",
"549 595 LINE",
"464 595 LINE",
"258 310 LINE",
"285 310 LINE",
"77 595 LINE",
"-15 595 LINE",
"246 235 LINE",
"228 294 LINE",
"228 0 LINE"
);
}
);
width = 539;
}
);
leftKerningGroup = y.sc;
rightKerningGroup = y.sc;
},
{
glyphname = z.sc;
lastChange = "2016-12-22 13:06:27 +0000";
layers = (
{
anchors = (
{
name = bottom;
position = "{269, 0}";
},
{
name = top;
position = "{270, 615}";
}
);
color = -1;
layerId = "E6A13138-87C4-4EDC-BDCD-C4EF9152A586";
paths = (
{
closed = 1;
nodes = (
"508 0 LINE",
"508 68 LINE",
"124 68 LINE",
"128 51 LINE",
"503 550 LINE",
"503 595 LINE",
"36 595 LINE",
"36 527 LINE",
"410 527 LINE",
"406 544 LINE",
"32 45 LINE",
"32 0 LINE"
);
}
);
width = 540;
}
);
leftKerningGroup = z.sc;
rightKerningGroup = z.sc;
},
{
glyphname = ordfeminine;
lastChange = "2016-12-22 13:06:27 +0000";
layers = (
{
color = -1;
layerId = "E6A13138-87C4-4EDC-BDCD-C4EF9152A586";
paths = (
{
closed = 1;
nodes = (
"240 297 OFFCURVE",
"293 319 OFFCURVE",
"325 354 CURVE",
"330 354 LINE",
"336 305 LINE",
"400 305 LINE",
"400 583 LINE SMOOTH",
"400 707 OFFCURVE",
"336 747 OFFCURVE",
"210 747 CURVE SMOOTH",
"164 747 OFFCURVE",
"111 741 OFFCURVE",
"68 727 CURVE",
"68 666 LINE",
"114 681 OFFCURVE",
"161 687 OFFCURVE",
"199 687 CURVE SMOOTH",
"284 687 OFFCURVE",
"324 665 OFFCURVE",
"324 590 CURVE SMOOTH",
"324 403 LINE",
"291 370 OFFCURVE",
"248 354 OFFCURVE",
"204.994 353.994 CURVE SMOOTH",
"143 354 OFFCURVE",
"114 381 OFFCURVE",
"114 426 CURVE SMOOTH",
"114 470 OFFCURVE",
"143 494 OFFCURVE",
"219 502 CURVE SMOOTH",
"350 515 LINE",
"344 560 LINE",
"210 547 LINE SMOOTH",
"88 536 OFFCURVE",
"37 495 OFFCURVE",
"37 418 CURVE SMOOTH",
"37 345 OFFCURVE",
"90 297 OFFCURVE",
"183 297 CURVE SMOOTH"
);
}
);
width = 459;
}
);
leftKerningGroup = ord;
rightKerningGroup = ord;
unicode = 00AA;
},
{
glyphname = ordmasculine;
lastChange = "2016-12-22 13:06:27 +0000";
layers = (
{
color = -1;
layerId = "E6A13138-87C4-4EDC-BDCD-C4EF9152A586";
paths = (
{
closed = 1;
nodes = (
"379 297 OFFCURVE",
"462 371 OFFCURVE",
"462 523 CURVE SMOOTH",
"462 675 OFFCURVE",
"379 747 OFFCURVE",
"252 747 CURVE SMOOTH",
"124 747 OFFCURVE",
"41 675 OFFCURVE",
"41 523 CURVE SMOOTH",
"41 371 OFFCURVE",
"124 297 OFFCURVE",
"252 297 CURVE SMOOTH"
);
},
{
closed = 1;
nodes = (
"171 359 OFFCURVE",
"119 403 OFFCURVE",
"119 523 CURVE SMOOTH",
"119 643 OFFCURVE",
"171 686 OFFCURVE",
"252 686 CURVE SMOOTH",
"332 686 OFFCURVE",
"385 643 OFFCURVE",
"385 523 CURVE SMOOTH",
"385 403 OFFCURVE",
"332 359 OFFCURVE",
"252 359 CURVE SMOOTH"
);
}
);
width = 503;
}
);
leftKerningGroup = ord;
rightKerningGroup = ord;
unicode = 00BA;
},
{
glyphname = Delta;
lastChange = "2016-12-22 13:06:27 +0000";
layers = (
{
color = -1;
layerId = "E6A13138-87C4-4EDC-BDCD-C4EF9152A586";
paths = (
{
closed = 1;
nodes = (
"696 0 LINE",
"414 740 LINE",
"297 740 LINE",
"15 0 LINE"
);
},
{
closed = 1;
nodes = (
"362 700 LINE",
"348 700 LINE",
"600 35 LINE",
"610 70 LINE",
"100 70 LINE",
"110 35 LINE"
);
}
);
width = 711;
}
);
leftKerningGroup = A;
leftMetricsKey = A;
rightKerningGroup = A;
rightMetricsKey = A;
unicode = 0394;
},
{
glyphname = Omega;
lastChange = "2016-12-22 13:06:27 +0000";
layers = (
{
color = -1;
layerId = "E6A13138-87C4-4EDC-BDCD-C4EF9152A586";
paths = (
{
closed = 1;
nodes = (
"327 0 LINE",
"327 59 LINE",
"202 143 OFFCURVE",
"141 245 OFFCURVE",
"141 394 CURVE SMOOTH",
"141 579 OFFCURVE",
"227 678 OFFCURVE",
"384 678 CURVE SMOOTH",
"542 678 OFFCURVE",
"627 579 OFFCURVE",
"627 394 CURVE SMOOTH",
"627 245 OFFCURVE",
"566 143 OFFCURVE",
"442 59 CURVE",
"442 0 LINE",
"713 0 LINE",
"713 69 LINE",
"505 69 LINE",
"498 40 LINE",
"636 113 OFFCURVE",
"713 234 OFFCURVE",
"713 400 CURVE SMOOTH",
"713 621 OFFCURVE",
"591 749 OFFCURVE",
"384 749 CURVE SMOOTH",
"177 749 OFFCURVE",
"55 621 OFFCURVE",
"55 400 CURVE SMOOTH",
"55 234 OFFCURVE",
"132 113 OFFCURVE",
"270 40 CURVE",
"263 69 LINE",
"55 69 LINE",
"55 0 LINE"
);
}
);
width = 768;
}
);
leftMetricsKey = O;
rightMetricsKey = O;
unicode = 03A9;
},
{
color = 1;
glyphname = Delta.tf;
lastChange = "2016-12-22 13:06:27 +0000";
layers = (
{
color = -1;
layerId = "E6A13138-87C4-4EDC-BDCD-C4EF9152A586";
paths = (
{
closed = 1;
nodes = (
"589 0 LINE",
"352 740 LINE",
"252 740 LINE",
"16 0 LINE"
);
},
{
closed = 1;
nodes = (
"314 702 LINE",
"290 702 LINE",
"501 35 LINE",
"516 70 LINE",
"88 70 LINE",
"103 35 LINE"
);
}
);
width = 605;
}
);
widthMetricsKey = zero.tf;
},
{
color = 1;
glyphname = Omega.tf;
lastChange = "2016-12-22 13:06:27 +0000";
layers = (
{
color = -1;
layerId = "E6A13138-87C4-4EDC-BDCD-C4EF9152A586";
paths = (
{
closed = 1;
nodes = (
"262 0 LINE",
"262 59 LINE",
"171 143 OFFCURVE",
"134 244 OFFCURVE",
"134 394 CURVE SMOOTH",
"134 608 OFFCURVE",
"200 677 OFFCURVE",
"302 678 CURVE SMOOTH",
"405 678 OFFCURVE",
"470 608 OFFCURVE",
"470 394 CURVE SMOOTH",
"470 244 OFFCURVE",
"433 143 OFFCURVE",
"343 59 CURVE",
"343 0 LINE",
"559 0 LINE",
"559 69 LINE",
"394 69 LINE",
"389 40 LINE",
"496 113 OFFCURVE",
"553 234 OFFCURVE",
"553 400 CURVE SMOOTH",
"553 644 OFFCURVE",
"457 749 OFFCURVE",
"302 749 CURVE SMOOTH",
"147 749 OFFCURVE",
"52 644 OFFCURVE",
"52 400 CURVE SMOOTH",
"52 234 OFFCURVE",
"108 113 OFFCURVE",
"215 40 CURVE",
"210 69 LINE",
"46 69 LINE",
"46 0 LINE"
);
}
);
width = 605;
}
);
widthMetricsKey = zero.tf;
},
{
glyphname = pi;
lastChange = "2016-12-22 13:06:27 +0000";
layers = (
{
color = -1;
layerId = "E6A13138-87C4-4EDC-BDCD-C4EF9152A586";
paths = (
{
closed = 1;
nodes = (
"633 -9 OFFCURVE",
"662 -6 OFFCURVE",
"683 -1 CURVE",
"683 68 LINE",
"663 64 OFFCURVE",
"644 61 OFFCURVE",
"627 61 CURVE SMOOTH",
"562 61 OFFCURVE",
"532 88 OFFCURVE",
"532 172 CURVE SMOOTH",
"532 505 LINE",
"448 505 LINE",
"450 159 LINE SMOOTH",
"451 39 OFFCURVE",
"509 -9 OFFCURVE",
"609 -9 CURVE SMOOTH"
);
},
{
closed = 1;
nodes = (
"194 -1 LINE",
"194 505 LINE",
"112 505 LINE",
"112 -1 LINE"
);
},
{
closed = 1;
nodes = (
"639 475 LINE",
"639 543 LINE",
"5 543 LINE",
"5 475 LINE"
);
}
);
width = 690;
}
);
leftMetricsKey = t;
rightMetricsKey = t;
unicode = 03C0;
},
{
color = 1;
glyphname = mu.tf;
lastChange = "2016-12-22 13:06:27 +0000";
layers = (
{
color = -1;
layerId = "E6A13138-87C4-4EDC-BDCD-C4EF9152A586";
paths = (
{
closed = 1;
nodes = (
"341 -9 OFFCURVE",
"400 15 OFFCURVE",
"446 60 CURVE",
"451 60 LINE",
"457.006 0 LINE",
"526 0 LINE",
"526 543 LINE",
"444 543 LINE",
"444 135 LINE",
"400 86 OFFCURVE",
"338 64 OFFCURVE",
"283 64 CURVE SMOOTH",
"210 64 OFFCURVE",
"160 97 OFFCURVE",
"160 195 CURVE SMOOTH",
"160 268 LINE",
"115 268 LINE",
"115 191 LINE SMOOTH",
"115 46 OFFCURVE",
"178 -9 OFFCURVE",
"278 -9 CURVE SMOOTH"
);
},
{
closed = 1;
nodes = (
"160 -220 LINE",
"160 543 LINE",
"78 543 LINE",
"78 -220 LINE"
);
}
);
width = 605;
}
);
widthMetricsKey = zero.tf;
userData = {
com.typemytype.robofont.layerData = {
};
};
},
{
color = 1;
glyphname = pi.tf;
lastChange = "2016-12-22 13:06:27 +0000";
layers = (
{
color = -1;
layerId = "E6A13138-87C4-4EDC-BDCD-C4EF9152A586";
paths = (
{
closed = 1;
nodes = (
"556 -9 OFFCURVE",
"583 -6 OFFCURVE",
"605 -1 CURVE",
"605 68 LINE",
"584 64 OFFCURVE",
"565 61 OFFCURVE",
"548 61 CURVE SMOOTH",
"495 61 OFFCURVE",
"466 88 OFFCURVE",
"466 167 CURVE SMOOTH",
"466 505 LINE",
"385 505 LINE",
"387 152 LINE SMOOTH",
"388 39 OFFCURVE",
"442 -9 OFFCURVE",
"529 -9 CURVE SMOOTH"
);
},
{
closed = 1;
nodes = (
"175 -1 LINE",
"175 505 LINE",
"96 505 LINE",
"96 -1 LINE"
);
},
{
closed = 1;
nodes = (
"562 475 LINE",
"562 543 LINE",
"0 543 LINE",
"0 475 LINE"
);
}
);
width = 605;
}
);
widthMetricsKey = zero.tf;
},
{
glyphname = zero;
lastChange = "2016-12-22 13:06:27 +0000";
layers = (
{
color = -1;
layerId = "E6A13138-87C4-4EDC-BDCD-C4EF9152A586";
paths = (
{
closed = 1;
nodes = (
"496 -9 OFFCURVE",
"602 96 OFFCURVE",
"602 370 CURVE SMOOTH",
"602 644 OFFCURVE",
"498 749 OFFCURVE",
"331 749 CURVE SMOOTH",
"164 749 OFFCURVE",
"60 644 OFFCURVE",
"60 370 CURVE SMOOTH",
"60 96 OFFCURVE",
"166 -9 OFFCURVE",
"331 -9 CURVE SMOOTH"
);
},
{
closed = 1;
nodes = (
"217 62 OFFCURVE",
"144 133 OFFCURVE",
"144 371 CURVE SMOOTH",
"144 607 OFFCURVE",
"217 678 OFFCURVE",
"331 678 CURVE SMOOTH",
"445 678 OFFCURVE",
"518 607 OFFCURVE",
"518 369 CURVE SMOOTH",
"518 133 OFFCURVE",
"445 62 OFFCURVE",
"331 62 CURVE SMOOTH"
);
}
);
width = 662;
}
);
leftKerningGroup = O;
leftMetricsKey = "=O+5";
note = "\012    600\012  ";
rightKerningGroup = O;
rightMetricsKey = "=O+5";
unicode = 0030;
userData = {
com.typemytype.robofont.layerData = {
};
};
},
{
glyphname = one;
lastChange = "2016-12-22 13:06:27 +0000";
layers = (
{
color = -1;
layerId = "E6A13138-87C4-4EDC-BDCD-C4EF9152A586";
paths = (
{
closed = 1;
nodes = (
"300 0 LINE",
"300 742 LINE",
"246 742 LINE",
"11 576 LINE",
"11 493 LINE",
"246 658 LINE",
"216 682 LINE",
"216 0 LINE"
);
}
);
width = 393;
}
);
leftKerningGroup = one;
rightKerningGroup = H;
rightMetricsKey = "=H+5";
unicode = 0031;
userData = {
com.typemytype.robofont.layerData = {
};
};
},
{
glyphname = two;
lastChange = "2016-12-22 13:06:27 +0000";
layers = (
{
color = -1;
layerId = "E6A13138-87C4-4EDC-BDCD-C4EF9152A586";
paths = (
{
closed = 1;
nodes = (
"491 0 LINE",
"491 71 LINE",
"120 71 LINE",
"126 48 LINE",
"324 287 LINE SMOOTH",
"416 397 OFFCURVE",
"446 466 OFFCURVE",
"447 548 CURVE SMOOTH",
"447 687 OFFCURVE",
"361 749 OFFCURVE",
"203 749 CURVE SMOOTH",
"136 749 OFFCURVE",
"70 738 OFFCURVE",
"23 720 CURVE",
"23 649 LINE",
"74 668 OFFCURVE",
"133 679 OFFCURVE",
"197 679 CURVE SMOOTH",
"309 679 OFFCURVE",
"364 636 OFFCURVE",
"364 541 CURVE SMOOTH",
"364 477 OFFCURVE",
"336 417 OFFCURVE",
"256 320 CURVE SMOOTH",
"32 46 LINE",
"32 0 LINE"
);
}
);
width = 523;
}
);
leftKerningGroup = two;
rightKerningGroup = two;
unicode = 0032;
userData = {
com.typemytype.robofont.layerData = {
};
};
},
{
glyphname = three;
lastChange = "2016-12-22 13:06:27 +0000";
layers = (
{
color = -1;
layerId = "E6A13138-87C4-4EDC-BDCD-C4EF9152A586";
paths = (
{
closed = 1;
nodes = (
"406 -9 OFFCURVE",
"497 70 OFFCURVE",
"497 203 CURVE SMOOTH",
"497 309 OFFCURVE",
"429 375 OFFCURVE",
"305 390 CURVE",
"305 378 LINE",
"407 398 OFFCURVE",
"472 463 OFFCURVE",
"472 561 CURVE SMOOTH",
"472 679 OFFCURVE",
"386 749 OFFCURVE",
"228 749 CURVE SMOOTH",
"165 749 OFFCURVE",
"99 739 OFFCURVE",
"46 722 CURVE",
"46 655 LINE",
"103 674 OFFCURVE",
"163 683 OFFCURVE",
"221 683 CURVE SMOOTH",
"332 683 OFFCURVE",
"391 636 OFFCURVE",
"391 555 CURVE SMOOTH",
"391 461 OFFCURVE",
"320 413 OFFCURVE",
"182 413 CURVE SMOOTH",
"128 413 LINE",
"128 346 LINE",
"229 346 LINE SMOOTH",
"358 346 OFFCURVE",
"417 296 OFFCURVE",
"417 207 CURVE SMOOTH",
"417 111 OFFCURVE",
"353 57 OFFCURVE",
"214 57 CURVE SMOOTH",
"154 57 OFFCURVE",
"87 68 OFFCURVE",
"26 87 CURVE",
"26 20 LINE",
"84 1 OFFCURVE",
"151 -9 OFFCURVE",
"215 -9 CURVE SMOOTH"
);
}
);
width = 531;
}
);
leftKerningGroup = three;
rightKerningGroup = B;
unicode = 0033;
userData = {
com.typemytype.robofont.layerData = {
};
};
},
{
glyphname = four;
lastChange = "2016-12-22 13:06:27 +0000";
layers = (
{
color = -1;
layerId = "E6A13138-87C4-4EDC-BDCD-C4EF9152A586";
paths = (
{
closed = 1;
nodes = (
"602 177 LINE",
"602 245 LINE",
"95 245 LINE",
"107 222 LINE",
"414 740 LINE",
"330.006 740 LINE",
"23 223 LINE",
"23 177 LINE"
);
},
{
closed = 1;
nodes = (
"492 0 LINE",
"492 490 LINE",
"426 490 LINE",
"415 245 LINE",
"415 0 LINE"
);
}
);
width = 621;
}
);
leftKerningGroup = four;
rightKerningGroup = four;
unicode = 0034;
userData = {
com.typemytype.robofont.layerData = {
};
};
},
{
glyphname = five;
lastChange = "2016-12-22 13:06:27 +0000";
layers = (
{
color = -1;
layerId = "E6A13138-87C4-4EDC-BDCD-C4EF9152A586";
paths = (
{
closed = 1;
nodes = (
"414 -9 OFFCURVE",
"510 68 OFFCURVE",
"510 211 CURVE SMOOTH",
"510 345 OFFCURVE",
"423 414 OFFCURVE",
"196 428 CURVE SMOOTH",
"97 433 LINE",
"150 398 LINE",
"172 706 LINE",
"133 673 LINE",
"479 673 LINE",
"479 740 LINE",
"95 740 LINE",
"69 367 LINE",
"167 362 LINE SMOOTH",
"367 350 OFFCURVE",
"430 304 OFFCURVE",
"430 210 CURVE SMOOTH",
"430 109 OFFCURVE",
"364 58 OFFCURVE",
"227 58 CURVE SMOOTH",
"167 58 OFFCURVE",
"99 69 OFFCURVE",
"39 88 CURVE",
"39 21 LINE",
"96 2 OFFCURVE",
"164 -9 OFFCURVE",
"229 -9 CURVE SMOOTH"
);
}
);
width = 538;
}
);
leftKerningGroup = five;
rightKerningGroup = five;
unicode = 0035;
userData = {
com.typemytype.robofont.layerData = {
};
};
},
{
glyphname = six;
lastChange = "2016-12-22 13:06:27 +0000";
layers = (
{
color = -1;
layerId = "E6A13138-87C4-4EDC-BDCD-C4EF9152A586";
paths = (
{
closed = 1;
nodes = (
"480 -9 OFFCURVE",
"576 67 OFFCURVE",
"576 209 CURVE SMOOTH",
"576 355 OFFCURVE",
"481 426 OFFCURVE",
"333 426 CURVE SMOOTH",
"258 426 OFFCURVE",
"178 401 OFFCURVE",
"131 360 CURVE",
"131 293 LINE",
"180 341 OFFCURVE",
"258 361 OFFCURVE",
"320 361 CURVE SMOOTH",
"432 361 OFFCURVE",
"498 312 OFFCURVE",
"498 207 CURVE SMOOTH",
"498 103 OFFCURVE",
"432 56 OFFCURVE",
"339 56 CURVE SMOOTH",
"219 56 OFFCURVE",
"147 127 OFFCURVE",
"147 337 CURVE SMOOTH",
"147 366 LINE SMOOTH",
"147 582 OFFCURVE",
"231 682 OFFCURVE",
"399 682 CURVE SMOOTH",
"444 682 OFFCURVE",
"498 675 OFFCURVE",
"541 658 CURVE",
"541 727 LINE",
"498 743 OFFCURVE",
"446 749 OFFCURVE",
"395 749 CURVE SMOOTH",
"182 749 OFFCURVE",
"64 619 OFFCURVE",
"64 346 CURVE SMOOTH",
"64 92 OFFCURVE",
"172 -9 OFFCURVE",
"339 -9 CURVE SMOOTH"
);
}
);
width = 608;
}
);
leftKerningGroup = O;
rightKerningGroup = six;
unicode = 0036;
userData = {
com.typemytype.robofont.layerData = {
};
};
},
{
glyphname = seven;
lastChange = "2016-12-22 13:06:27 +0000";
layers = (
{
color = -1;
layerId = "E6A13138-87C4-4EDC-BDCD-C4EF9152A586";
paths = (
{
closed = 1;
nodes = (
"175.994 0 LINE",
"466 694 LINE",
"466 740 LINE",
"5 740 LINE",
"5 669 LINE",
"409 669 LINE",
"384 695 LINE",
"89 0 LINE"
);
}
);
width = 494;
}
);
leftKerningGroup = seven;
rightKerningGroup = V;
unicode = 0037;
userData = {
com.typemytype.robofont.layerData = {
};
};
},
{
glyphname = eight;
lastChange = "2016-12-22 13:06:27 +0000";
layers = (
{
color = -1;
layerId = "E6A13138-87C4-4EDC-BDCD-C4EF9152A586";
paths = (
{
closed = 1;
nodes = (
"514 -9 OFFCURVE",
"609 72 OFFCURVE",
"609 193 CURVE SMOOTH",
"609 299 OFFCURVE",
"543 363 OFFCURVE",
"362 401 CURVE SMOOTH",
"206 434 OFFCURVE",
"159 477 OFFCURVE",
"159 558 CURVE SMOOTH",
"159 636 OFFCURVE",
"216 686 OFFCURVE",
"331 686 CURVE SMOOTH",
"444 686 OFFCURVE",
"509 641 OFFCURVE",
"509 556 CURVE SMOOTH",
"509 480 OFFCURVE",
"468 431 OFFCURVE",
"372 392 CURVE",
"429 367 LINE",
"533 405 OFFCURVE",
"583 472 OFFCURVE",
"583 562 CURVE SMOOTH",
"583 679 OFFCURVE",
"490 749 OFFCURVE",
"333 749 CURVE SMOOTH",
"169 749 OFFCURVE",
"78 674 OFFCURVE",
"78 555 CURVE SMOOTH",
"78 446 OFFCURVE",
"145 376 OFFCURVE",
"329 338 CURVE SMOOTH",
"478 307 OFFCURVE",
"529 268 OFFCURVE",
"529 188 CURVE SMOOTH",
"529 102 OFFCURVE",
"463 54 OFFCURVE",
"336 54 CURVE SMOOTH",
"202 54 OFFCURVE",
"132 103 OFFCURVE",
"132 195 CURVE SMOOTH",
"132 270 OFFCURVE",
"182 334 OFFCURVE",
"282 361 CURVE",
"218 387 LINE",
"113 354 OFFCURVE",
"52 284 OFFCURVE",
"52 187 CURVE SMOOTH",
"52 63 OFFCURVE",
"148 -9 OFFCURVE",
"335 -9 CURVE SMOOTH"
);
}
);
width = 662;
}
);
leftKerningGroup = eight;
rightKerningGroup = B;
unicode = 0038;
userData = {
com.typemytype.robofont.layerData = {
};
};
},
{
glyphname = zero.osf;
lastChange = "2016-12-22 13:06:40 +0000";
layers = (
{
color = -1;
layerId = "E6A13138-87C4-4EDC-BDCD-C4EF9152A586";
paths = (
{
closed = 1;
nodes = (
"493 -9 OFFCURVE",
"602 89 OFFCURVE",
"602 271 CURVE SMOOTH",
"602 453 OFFCURVE",
"493 551 OFFCURVE",
"328 551 CURVE SMOOTH",
"163 551 OFFCURVE",
"55 453 OFFCURVE",
"55 271 CURVE SMOOTH",
"55 90 OFFCURVE",
"163 -9 OFFCURVE",
"328 -9 CURVE SMOOTH"
);
},
{
closed = 1;
nodes = (
"210 58 OFFCURVE",
"138 126 OFFCURVE",
"138 271 CURVE SMOOTH",
"138 416 OFFCURVE",
"211 484 OFFCURVE",
"328 484 CURVE SMOOTH",
"446 484 OFFCURVE",
"518 416 OFFCURVE",
"518 271 CURVE SMOOTH",
"518 126 OFFCURVE",
"446 58 OFFCURVE",
"328 58 CURVE SMOOTH"
);
}
);
width = 657;
}
);
leftKerningGroup = o;
leftMetricsKey = "=o+5";
note = "\012    600\012  ";
rightKerningGroup = o;
rightMetricsKey = "=o+5";
userData = {
com.typemytype.robofont.layerData = {
};
};
},
{
glyphname = one.osf;
lastChange = "2016-12-22 13:06:27 +0000";
layers = (
{
color = -1;
layerId = "E6A13138-87C4-4EDC-BDCD-C4EF9152A586";
paths = (
{
closed = 1;
nodes = (
"291 0 LINE",
"291 546 LINE",
"237 546 LINE",
"3 397 LINE",
"3 317 LINE",
"237 465 LINE",
"208 485 LINE",
"208 0 LINE"
);
}
);
width = 376;
}
);
leftKerningGroup = one.osf;
rightKerningGroup = u;
rightMetricsKey = "=|n+5";
userData = {
com.typemytype.robofont.layerData = {
};
};
},
{
glyphname = two.osf;
lastChange = "2016-12-22 13:06:27 +0000";
layers = (
{
color = -1;
layerId = "E6A13138-87C4-4EDC-BDCD-C4EF9152A586";
paths = (
{
closed = 1;
nodes = (
"504 0 LINE",
"504 66 LINE",
"134 66 LINE",
"144 43 LINE",
"277 142 LINE SMOOTH",
"418 247 OFFCURVE",
"455 313 OFFCURVE",
"455 390 CURVE SMOOTH",
"455 495 OFFCURVE",
"378 551 OFFCURVE",
"221 551 CURVE SMOOTH",
"159 551 OFFCURVE",
"88 540 OFFCURVE",
"37 521 CURVE",
"37 453 LINE",
"97 475 OFFCURVE",
"157 484 OFFCURVE",
"214 484 CURVE SMOOTH",
"328 484 OFFCURVE",
"371 448 OFFCURVE",
"371 382 CURVE SMOOTH",
"371 322 OFFCURVE",
"341 271 OFFCURVE",
"202 167 CURVE SMOOTH",
"46 50 LINE",
"46 0 LINE"
);
}
);
width = 529;
}
);
leftKerningGroup = two.osf;
rightKerningGroup = two.osf;
userData = {
com.typemytype.robofont.layerData = {
};
};
},
{
glyphname = three.osf;
lastChange = "2016-12-22 13:06:27 +0000";
layers = (
{
color = -1;
layerId = "E6A13138-87C4-4EDC-BDCD-C4EF9152A586";
paths = (
{
closed = 1;
nodes = (
"385 -210 OFFCURVE",
"476 -130 OFFCURVE",
"476 3 CURVE SMOOTH",
"476 110 OFFCURVE",
"408 176 OFFCURVE",
"285 190 CURVE",
"285 178 LINE",
"386 199 OFFCURVE",
"451 264 OFFCURVE",
"451 362 CURVE SMOOTH",
"451 481 OFFCURVE",
"365 551 OFFCURVE",
"207 551 CURVE SMOOTH",
"144 551 OFFCURVE",
"79 541 OFFCURVE",
"26 524 CURVE",
"26 456 LINE",
"83 476 OFFCURVE",
"143 484 OFFCURVE",
"200 484 CURVE SMOOTH",
"312 484 OFFCURVE",
"370 438 OFFCURVE",
"370 356 CURVE SMOOTH",
"370 262 OFFCURVE",
"299 214 OFFCURVE",
"162 214 CURVE SMOOTH",
"107 214 LINE",
"107 147 LINE",
"209 147 LINE SMOOTH",
"338 147 OFFCURVE",
"396 96 OFFCURVE",
"396 7 CURVE SMOOTH",
"396 -90 OFFCURVE",
"333 -143 OFFCURVE",
"193 -143 CURVE SMOOTH",
"134 -143 OFFCURVE",
"67 -133 OFFCURVE",
"5 -113 CURVE",
"5 -181 LINE",
"63 -200 OFFCURVE",
"130 -210 OFFCURVE",
"195 -210 CURVE SMOOTH"
);
}
);
width = 525;
}
);
leftKerningGroup = three.osf;
rightKerningGroup = three.osf;
userData = {
com.typemytype.robofont.layerData = {
};
};
},
{
glyphname = four.osf;
lastChange = "2016-12-22 13:06:27 +0000";
layers = (
{
color = -1;
layerId = "E6A13138-87C4-4EDC-BDCD-C4EF9152A586";
paths = (
{
closed = 1;
nodes = (
"585 0 LINE",
"585 68 LINE",
"89 68 LINE",
"102 45 LINE",
"402 543 LINE",
"318 543 LINE",
"18 46 LINE",
"18 0 LINE"
);
},
{
closed = 1;
nodes = (
"485 -200 LINE",
"485 313 LINE",
"419 313 LINE",
"408 68 LINE",
"408 -200 LINE"
);
}
);
width = 603;
}
);
leftKerningGroup = four.osf;
rightKerningGroup = four.osf;
userData = {
com.typemytype.robofont.layerData = {
};
};
},
{
glyphname = five.osf;
lastChange = "2016-12-22 13:06:27 +0000";
layers = (
{
color = -1;
layerId = "E6A13138-87C4-4EDC-BDCD-C4EF9152A586";
paths = (
{
closed = 1;
nodes = (
"407 -209 OFFCURVE",
"503 -132 OFFCURVE",
"503 12 CURVE SMOOTH",
"503 147 OFFCURVE",
"416 216 OFFCURVE",
"190 230 CURVE SMOOTH",
"92 235 LINE",
"145 200 LINE",
"166 508 LINE",
"128 475 LINE",
"474 475 LINE",
"474 543 LINE",
"89 543 LINE",
"64 169 LINE",
"162 164 LINE SMOOTH",
"360 152 OFFCURVE",
"423 106 OFFCURVE",
"423 11 CURVE SMOOTH",
"423 -91 OFFCURVE",
"357 -142 OFFCURVE",
"221 -142 CURVE SMOOTH",
"161 -142 OFFCURVE",
"94 -131 OFFCURVE",
"34 -112 CURVE",
"34 -179 LINE",
"91 -198 OFFCURVE",
"158 -209 OFFCURVE",
"223 -209 CURVE SMOOTH"
);
}
);
width = 530;
}
);
leftKerningGroup = five.osf;
rightKerningGroup = five.osf;
userData = {
com.typemytype.robofont.layerData = {
};
};
},
{
glyphname = six.osf;
lastChange = "2016-12-22 13:06:27 +0000";
layers = (
{
color = -1;
layerId = "E6A13138-87C4-4EDC-BDCD-C4EF9152A586";
paths = (
{
closed = 1;
nodes = (
"475 -9 OFFCURVE",
"572 67 OFFCURVE",
"572 209 CURVE SMOOTH",
"572 355 OFFCURVE",
"476 426 OFFCURVE",
"329 426 CURVE SMOOTH",
"254 426 OFFCURVE",
"174 401 OFFCURVE",
"127 360 CURVE",
"127 293 LINE",
"175 341 OFFCURVE",
"254 361 OFFCURVE",
"315 361 CURVE SMOOTH",
"428 361 OFFCURVE",
"494 312 OFFCURVE",
"494 207 CURVE SMOOTH",
"494 103 OFFCURVE",
"428 56 OFFCURVE",
"334 56 CURVE SMOOTH",
"215 56 OFFCURVE",
"142 127 OFFCURVE",
"142 337 CURVE SMOOTH",
"142.006 366.006 LINE SMOOTH",
"142 582 OFFCURVE",
"227 682 OFFCURVE",
"394 682 CURVE SMOOTH",
"440 682 OFFCURVE",
"493 675 OFFCURVE",
"537 658 CURVE",
"537 727 LINE",
"494 743 OFFCURVE",
"442 749 OFFCURVE",
"391 749 CURVE SMOOTH",
"177 749 OFFCURVE",
"60 619 OFFCURVE",
"60 346 CURVE SMOOTH",
"60 92 OFFCURVE",
"167 -9 OFFCURVE",
"334 -9 CURVE SMOOTH"
);
}
);
width = 609;
}
);
leftKerningGroup = O;
rightKerningGroup = six;
userData = {
com.typemytype.robofont.layerData = {
};
};
},
{
glyphname = seven.osf;
lastChange = "2016-12-22 13:06:27 +0000";
layers = (
{
color = -1;
layerId = "E6A13138-87C4-4EDC-BDCD-C4EF9152A586";
paths = (
{
closed = 1;
nodes = (
"171 -200 LINE",
"462 497 LINE",
"462 543 LINE",
"0 543 LINE",
"0 472 LINE",
"405 472 LINE",
"380 498 LINE",
"83 -200 LINE"
);
}
);
width = 484;
}
);
leftKerningGroup = seven.osf;
rightKerningGroup = seven.osf;
userData = {
com.typemytype.robofont.layerData = {
};
};
},
{
glyphname = eight.osf;
lastChange = "2016-12-22 13:06:27 +0000";
layers = (
{
color = -1;
layerId = "E6A13138-87C4-4EDC-BDCD-C4EF9152A586";
paths = (
{
closed = 1;
nodes = (
"515 -9 OFFCURVE",
"610 72 OFFCURVE",
"610 193 CURVE SMOOTH",
"610 299 OFFCURVE",
"544 363 OFFCURVE",
"363 401 CURVE SMOOTH",
"206 434 OFFCURVE",
"159 477 OFFCURVE",
"159 558 CURVE SMOOTH",
"159 636 OFFCURVE",
"217 686 OFFCURVE",
"332 686 CURVE SMOOTH",
"445 686 OFFCURVE",
"509 641 OFFCURVE",
"509 556 CURVE SMOOTH",
"509 480 OFFCURVE",
"469 431 OFFCURVE",
"372 392 CURVE",
"430 367 LINE",
"533 405 OFFCURVE",
"584 472 OFFCURVE",
"584 562 CURVE SMOOTH",
"584 679 OFFCURVE",
"491 749 OFFCURVE",
"333 749 CURVE SMOOTH",
"170 749 OFFCURVE",
"78 674 OFFCURVE",
"78 555 CURVE SMOOTH",
"78 446 OFFCURVE",
"145 376 OFFCURVE",
"329 338 CURVE SMOOTH",
"479 307 OFFCURVE",
"530 268 OFFCURVE",
"530 188 CURVE SMOOTH",
"530 102 OFFCURVE",
"463 54 OFFCURVE",
"336 54 CURVE SMOOTH",
"203 54 OFFCURVE",
"133 103 OFFCURVE",
"133 195 CURVE SMOOTH",
"133 270 OFFCURVE",
"183 334 OFFCURVE",
"282 361 CURVE",
"219 387 LINE",
"114 354 OFFCURVE",
"53 284 OFFCURVE",
"53 187 CURVE SMOOTH",
"53 63 OFFCURVE",
"149 -9 OFFCURVE",
"336 -9 CURVE SMOOTH"
);
}
);
width = 663;
}
);
leftKerningGroup = eight;
rightKerningGroup = B;
userData = {
com.typemytype.robofont.layerData = {
};
};
},
{
glyphname = nine.osf;
lastChange = "2016-12-22 13:06:27 +0000";
layers = (
{
color = -1;
layerId = "E6A13138-87C4-4EDC-BDCD-C4EF9152A586";
paths = (
{
closed = 1;
nodes = (
"432 -209 OFFCURVE",
"549 -79 OFFCURVE",
"549 195 CURVE SMOOTH",
"549 451 OFFCURVE",
"442 552 OFFCURVE",
"275 552 CURVE SMOOTH",
"134 552 OFFCURVE",
"37 476 OFFCURVE",
"37 333 CURVE SMOOTH",
"37 186 OFFCURVE",
"133 115 OFFCURVE",
"281 115 CURVE SMOOTH",
"356 115 OFFCURVE",
"435 140 OFFCURVE",
"483 181 CURVE",
"483 248 LINE",
"434 200 OFFCURVE",
"356 180 OFFCURVE",
"294 180 CURVE SMOOTH",
"181 180 OFFCURVE",
"115 229 OFFCURVE",
"115 335 CURVE SMOOTH",
"115 440 OFFCURVE",
"181 487 OFFCURVE",
"275 487 CURVE SMOOTH",
"394 487 OFFCURVE",
"467 416 OFFCURVE",
"467 205 CURVE SMOOTH",
"467 175 LINE SMOOTH",
"467 -42 OFFCURVE",
"383 -142 OFFCURVE",
"215 -142 CURVE SMOOTH",
"169 -142 OFFCURVE",
"116 -135 OFFCURVE",
"73 -118 CURVE",
"73 -187 LINE",
"115 -203 OFFCURVE",
"168 -209 OFFCURVE",
"218 -209 CURVE SMOOTH"
);
}
);
width = 609;
}
);
leftKerningGroup = o;
leftMetricsKey = "=|six.osf";
rightKerningGroup = nine.osf;
rightMetricsKey = "=|six.osf";
userData = {
com.typemytype.robofont.layerData = {
};
};
},
{
glyphname = zero.tf;
lastChange = "2016-12-22 13:06:27 +0000";
layers = (
{
color = -1;
layerId = "E6A13138-87C4-4EDC-BDCD-C4EF9152A586";
paths = (
{
closed = 1;
nodes = (
"455 -9 OFFCURVE",
"553 96 OFFCURVE",
"553 370 CURVE SMOOTH",
"553 644 OFFCURVE",
"457 749 OFFCURVE",
"302 749 CURVE SMOOTH",
"147 749 OFFCURVE",
"52 644 OFFCURVE",
"52 370 CURVE SMOOTH",
"52 96 OFFCURVE",
"149 -9 OFFCURVE",
"302 -9 CURVE SMOOTH"
);
},
{
closed = 1;
nodes = (
"200 62 OFFCURVE",
"134 132 OFFCURVE",
"134 371 CURVE SMOOTH",
"134 608 OFFCURVE",
"200 678 OFFCURVE",
"302 678 CURVE SMOOTH",
"405 678 OFFCURVE",
"470 608 OFFCURVE",
"470 369 CURVE SMOOTH",
"470 132 OFFCURVE",
"405 62 OFFCURVE",
"302 62 CURVE SMOOTH"
);
}
);
width = 605;
}
);
note = "\012    600\012  ";
},
{
glyphname = one.tf;
lastChange = "2016-12-22 13:06:27 +0000";
layers = (
{
color = -1;
layerId = "E6A13138-87C4-4EDC-BDCD-C4EF9152A586";
paths = (
{
closed = 1;
nodes = (
"375 0 LINE",
"375 742 LINE",
"321 742 LINE",
"106 590 LINE",
"106 507 LINE",
"321 658 LINE",
"292 683 LINE",
"292 0 LINE"
);
},
{
closed = 1;
nodes = (
"552 0 LINE",
"552 71 LINE",
"106 71 LINE",
"106 0 LINE"
);
}
);
width = 605;
}
);
},
{
glyphname = two.tf;
lastChange = "2016-12-22 13:06:27 +0000";
layers = (
{
color = -1;
layerId = "E6A13138-87C4-4EDC-BDCD-C4EF9152A586";
paths = (
{
closed = 1;
nodes = (
"546 0 LINE",
"546 71 LINE",
"160 71 LINE",
"165 48 LINE",
"371 287 LINE SMOOTH",
"466 397 OFFCURVE",
"501 466 OFFCURVE",
"501 548 CURVE SMOOTH",
"502 687 OFFCURVE",
"412 749 OFFCURVE",
"248 749 CURVE SMOOTH",
"178 749 OFFCURVE",
"109 738 OFFCURVE",
"60 720 CURVE",
"60 649 LINE",
"113 668 OFFCURVE",
"175 679 OFFCURVE",
"241 679 CURVE SMOOTH",
"360 679 OFFCURVE",
"418 636 OFFCURVE",
"418 541 CURVE SMOOTH",
"418 477 OFFCURVE",
"387 417 OFFCURVE",
"304 320 CURVE SMOOTH",
"69 46 LINE",
"69 0 LINE"
);
}
);
width = 605;
}
);
},
{
glyphname = three.tf;
lastChange = "2016-12-22 13:06:27 +0000";
layers = (
{
color = -1;
layerId = "E6A13138-87C4-4EDC-BDCD-C4EF9152A586";
paths = (
{
closed = 1;
nodes = (
"448 -9 OFFCURVE",
"543 70 OFFCURVE",
"543 203 CURVE SMOOTH",
"543 309 OFFCURVE",
"472 376 OFFCURVE",
"343 390 CURVE",
"343 378 LINE",
"449 399 OFFCURVE",
"517 463 OFFCURVE",
"517 561 CURVE SMOOTH",
"517 679 OFFCURVE",
"427 749 OFFCURVE",
"263 749 CURVE SMOOTH",
"197 749 OFFCURVE",
"129 739 OFFCURVE",
"74 722 CURVE",
"74 655 LINE",
"133 674 OFFCURVE",
"196 683 OFFCURVE",
"255 683 CURVE SMOOTH",
"374 683 OFFCURVE",
"435 636 OFFCURVE",
"435 555 CURVE SMOOTH",
"435 461 OFFCURVE",
"361 413 OFFCURVE",
"215 413 CURVE SMOOTH",
"159 413 LINE",
"159 346 LINE",
"265 346 LINE SMOOTH",
"400 346 OFFCURVE",
"463 296 OFFCURVE",
"463 207 CURVE SMOOTH",
"463 111 OFFCURVE",
"395 57 OFFCURVE",
"248 57 CURVE SMOOTH",
"186 57 OFFCURVE",
"116 68 OFFCURVE",
"52 87 CURVE",
"52 20 LINE",
"113 1 OFFCURVE",
"183 -9 OFFCURVE",
"249 -9 CURVE SMOOTH"
);
}
);
width = 605;
}
);
},
{
glyphname = four.tf;
lastChange = "2016-12-22 13:06:27 +0000";
layers = (
{
color = -1;
layerId = "E6A13138-87C4-4EDC-BDCD-C4EF9152A586";
paths = (
{
closed = 1;
nodes = (
"586 177 LINE",
"586 245 LINE",
"93 245 LINE",
"105 222 LINE",
"396 740 LINE",
"314 740 LINE",
"22 223 LINE",
"22 177 LINE"
);
},
{
closed = 1;
nodes = (
"476 0 LINE",
"476 490 LINE",
"410 490 LINE",
"400 245 LINE",
"400 0 LINE"
);
}
);
width = 605;
}
);
},
{
glyphname = five.tf;
lastChange = "2016-12-22 13:06:27 +0000";
layers = (
{
color = -1;
layerId = "E6A13138-87C4-4EDC-BDCD-C4EF9152A586";
paths = (
{
closed = 1;
nodes = (
"452 -9 OFFCURVE",
"552 68 OFFCURVE",
"553 211 CURVE SMOOTH",
"553 345 OFFCURVE",
"461 414 OFFCURVE",
"225 428 CURVE SMOOTH",
"123 433 LINE",
"174 398 LINE",
"197 706 LINE",
"160 673 LINE",
"521 673 LINE",
"521 740 LINE",
"120 740 LINE",
"93 367 LINE",
"196 362 LINE SMOOTH",
"405 350 OFFCURVE",
"472 304 OFFCURVE",
"472 210 CURVE SMOOTH",
"472 109 OFFCURVE",
"402 58 OFFCURVE",
"258 58 CURVE SMOOTH",
"195 58 OFFCURVE",
"125 69 OFFCURVE",
"62 88 CURVE",
"62 21 LINE",
"121 2 OFFCURVE",
"192 -9 OFFCURVE",
"259 -9 CURVE SMOOTH"
);
}
);
width = 605;
}
);
},
{
glyphname = six.tf;
lastChange = "2016-12-22 13:06:27 +0000";
layers = (
{
color = -1;
layerId = "E6A13138-87C4-4EDC-BDCD-C4EF9152A586";
paths = (
{
closed = 1;
nodes = (
"473 -9 OFFCURVE",
"568 67 OFFCURVE",
"568 209 CURVE SMOOTH",
"568 355 OFFCURVE",
"474 426 OFFCURVE",
"332 426 CURVE SMOOTH",
"259 426 OFFCURVE",
"182 401 OFFCURVE",
"136 360 CURVE",
"136 293 LINE",
"184 341 OFFCURVE",
"259 361 OFFCURVE",
"318 361 CURVE SMOOTH",
"427 361 OFFCURVE",
"490 312 OFFCURVE",
"490 207 CURVE SMOOTH",
"490 103 OFFCURVE",
"427 56 OFFCURVE",
"337 56 CURVE SMOOTH",
"221 56 OFFCURVE",
"152 127 OFFCURVE",
"152 337 CURVE SMOOTH",
"152 366 LINE SMOOTH",
"152 582 OFFCURVE",
"233 682 OFFCURVE",
"395 682 CURVE SMOOTH",
"439 682 OFFCURVE",
"491 675 OFFCURVE",
"533 658 CURVE",
"533 727 LINE",
"491 743 OFFCURVE",
"441 749 OFFCURVE",
"392 749 CURVE SMOOTH",
"185 749 OFFCURVE",
"70 619 OFFCURVE",
"70 346 CURVE SMOOTH",
"70 92 OFFCURVE",
"175 -9 OFFCURVE",
"336 -9 CURVE SMOOTH"
);
}
);
width = 605;
}
);
},
{
glyphname = seven.tf;
lastChange = "2016-12-22 13:06:27 +0000";
layers = (
{
color = -1;
layerId = "E6A13138-87C4-4EDC-BDCD-C4EF9152A586";
paths = (
{
closed = 1;
nodes = (
"218 0 LINE",
"541 694 LINE",
"541 740 LINE",
"37 740 LINE",
"37 669 LINE",
"484 669 LINE",
"458 695 LINE",
"130 0 LINE"
);
}
);
width = 605;
}
);
},
{
glyphname = eight.tf;
lastChange = "2016-12-22 13:06:27 +0000";
layers = (
{
color = -1;
layerId = "E6A13138-87C4-4EDC-BDCD-C4EF9152A586";
paths = (
{
closed = 1;
nodes = (
"474 -9 OFFCURVE",
"564 72 OFFCURVE",
"564 193 CURVE SMOOTH",
"564 299 OFFCURVE",
"502 363 OFFCURVE",
"332 401 CURVE SMOOTH",
"188 434 OFFCURVE",
"145 477 OFFCURVE",
"145 558 CURVE SMOOTH",
"145 636 OFFCURVE",
"198 686 OFFCURVE",
"303 686 CURVE SMOOTH",
"405 686 OFFCURVE",
"465 641 OFFCURVE",
"465 556 CURVE SMOOTH",
"465 480 OFFCURVE",
"427 431 OFFCURVE",
"339 392 CURVE",
"395 367 LINE",
"492 405 OFFCURVE",
"539 472 OFFCURVE",
"539 562 CURVE SMOOTH",
"539 679 OFFCURVE",
"452 749 OFFCURVE",
"304 749 CURVE SMOOTH",
"150 749 OFFCURVE",
"64 674 OFFCURVE",
"64 555 CURVE SMOOTH",
"64 446 OFFCURVE",
"127 376 OFFCURVE",
"300 338 CURVE SMOOTH",
"437 308 OFFCURVE",
"484 268 OFFCURVE",
"484 189 CURVE SMOOTH",
"484 102 OFFCURVE",
"423 54 OFFCURVE",
"307 54 CURVE SMOOTH",
"185 54 OFFCURVE",
"120 103 OFFCURVE",
"120 195 CURVE SMOOTH",
"120 270 OFFCURVE",
"166 334 OFFCURVE",
"258 361 CURVE",
"196 387 LINE",
"97 354 OFFCURVE",
"41 284 OFFCURVE",
"41 187 CURVE SMOOTH",
"41 63 OFFCURVE",
"131 -9 OFFCURVE",
"306 -9 CURVE SMOOTH"
);
}
);
width = 605;
}
);
},
{
glyphname = nine.tf;
lastChange = "2016-12-22 13:06:27 +0000";
layers = (
{
color = -1;
layerId = "E6A13138-87C4-4EDC-BDCD-C4EF9152A586";
paths = (
{
closed = 1;
nodes = (
"420 -9 OFFCURVE",
"534 121 OFFCURVE",
"534 394 CURVE SMOOTH",
"534 648 OFFCURVE",
"430 749 OFFCURVE",
"268 749 CURVE SMOOTH",
"131 749 OFFCURVE",
"37 673 OFFCURVE",
"37 531 CURVE SMOOTH",
"37 385 OFFCURVE",
"130 314 OFFCURVE",
"273 314 CURVE SMOOTH",
"346 314 OFFCURVE",
"422 339 OFFCURVE",
"468 380 CURVE",
"468 447 LINE",
"421 399 OFFCURVE",
"346 379 OFFCURVE",
"286 379 CURVE SMOOTH",
"178 379 OFFCURVE",
"115 428 OFFCURVE",
"115 533 CURVE SMOOTH",
"115 637 OFFCURVE",
"178 684 OFFCURVE",
"268 684 CURVE SMOOTH",
"383 684 OFFCURVE",
"452 613 OFFCURVE",
"452 403 CURVE SMOOTH",
"452 374 LINE SMOOTH",
"452 158 OFFCURVE",
"371 58 OFFCURVE",
"209 58 CURVE SMOOTH",
"166 58 OFFCURVE",
"114 65 OFFCURVE",
"72 82 CURVE",
"72 13 LINE",
"113 -3 OFFCURVE",
"164 -9 OFFCURVE",
"213 -9 CURVE SMOOTH"
);
}
);
width = 605;
}
);
},
{
glyphname = zero.tosf;
lastChange = "2016-12-22 13:06:27 +0000";
layers = (
{
color = -1;
layerId = "E6A13138-87C4-4EDC-BDCD-C4EF9152A586";
paths = (
{
closed = 1;
nodes = (
"459 -9 OFFCURVE",
"554 94 OFFCURVE",
"554 271 CURVE SMOOTH",
"554 449 OFFCURVE",
"459 551 OFFCURVE",
"302 551 CURVE SMOOTH",
"146 551 OFFCURVE",
"50 449 OFFCURVE",
"50 271 CURVE SMOOTH",
"50 94 OFFCURVE",
"146 -9 OFFCURVE",
"302 -9 CURVE SMOOTH"
);
},
{
closed = 1;
nodes = (
"196 57 OFFCURVE",
"133 129 OFFCURVE",
"133 271 CURVE SMOOTH",
"133 413 OFFCURVE",
"196 484 OFFCURVE",
"302 484 CURVE SMOOTH",
"409 484 OFFCURVE",
"471 413 OFFCURVE",
"471 271 CURVE SMOOTH",
"471 129 OFFCURVE",
"409 57 OFFCURVE",
"302 57 CURVE SMOOTH"
);
}
);
width = 605;
}
);
note = "\012    600\012  ";
},
{
glyphname = one.tosf;
lastChange = "2016-12-22 13:06:27 +0000";
layers = (
{
color = -1;
layerId = "E6A13138-87C4-4EDC-BDCD-C4EF9152A586";
paths = (
{
closed = 1;
nodes = (
"373 0 LINE",
"373 546 LINE",
"319 546 LINE",
"103 419 LINE",
"103 343 LINE",
"319 470 LINE",
"290 486 LINE",
"290 0 LINE"
);
},
{
closed = 1;
nodes = (
"557 0 LINE",
"557 68 LINE",
"104 68 LINE",
"104 0 LINE"
);
}
);
width = 605;
}
);
},
{
glyphname = two.tosf;
lastChange = "2016-12-22 13:06:27 +0000";
layers = (
{
color = -1;
layerId = "E6A13138-87C4-4EDC-BDCD-C4EF9152A586";
paths = (
{
closed = 1;
nodes = (
"552 0 LINE",
"552 66 LINE",
"166 66 LINE",
"173 43 LINE",
"321 149 LINE SMOOTH",
"462 248 OFFCURVE",
"502 312 OFFCURVE",
"502 390 CURVE SMOOTH",
"502 496 OFFCURVE",
"423 551 OFFCURVE",
"258 551 CURVE SMOOTH",
"192 551 OFFCURVE",
"119 540 OFFCURVE",
"65 521 CURVE",
"65 453 LINE",
"128 475 OFFCURVE",
"191 484 OFFCURVE",
"250 484 CURVE SMOOTH",
"373 484 OFFCURVE",
"420 448 OFFCURVE",
"420 382 CURVE SMOOTH",
"420 322 OFFCURVE",
"385 272 OFFCURVE",
"245 174 CURVE SMOOTH",
"74 50 LINE",
"74 0 LINE"
);
}
);
width = 605;
}
);
},
{
glyphname = three.tosf;
lastChange = "2016-12-22 13:06:27 +0000";
layers = (
{
color = -1;
layerId = "E6A13138-87C4-4EDC-BDCD-C4EF9152A586";
paths = (
{
closed = 1;
nodes = (
"431 -210 OFFCURVE",
"526 -130 OFFCURVE",
"526 3 CURVE SMOOTH",
"526 110 OFFCURVE",
"456 176 OFFCURVE",
"326 190 CURVE",
"326 178 LINE",
"432 199 OFFCURVE",
"500 264 OFFCURVE",
"500 362 CURVE SMOOTH",
"500 481 OFFCURVE",
"410 551 OFFCURVE",
"245 551 CURVE SMOOTH",
"179 551 OFFCURVE",
"112 541 OFFCURVE",
"56 524 CURVE",
"56 456 LINE",
"116 476 OFFCURVE",
"178 484 OFFCURVE",
"238 484 CURVE SMOOTH",
"356 484 OFFCURVE",
"419 438 OFFCURVE",
"419 356 CURVE SMOOTH",
"419 262 OFFCURVE",
"344 214 OFFCURVE",
"198 214 CURVE SMOOTH",
"142 214 LINE",
"142 147 LINE",
"248 147 LINE SMOOTH",
"384 147 OFFCURVE",
"446 96 OFFCURVE",
"446 7 CURVE SMOOTH",
"446 -90 OFFCURVE",
"378 -143 OFFCURVE",
"231 -143 CURVE SMOOTH",
"169 -143 OFFCURVE",
"99 -133 OFFCURVE",
"35 -113 CURVE",
"35 -181 LINE",
"96 -200 OFFCURVE",
"166 -210 OFFCURVE",
"232 -210 CURVE SMOOTH"
);
}
);
width = 605;
}
);
},
{
glyphname = four.tosf;
lastChange = "2016-12-22 13:06:27 +0000";
layers = (
{
color = -1;
layerId = "E6A13138-87C4-4EDC-BDCD-C4EF9152A586";
paths = (
{
closed = 1;
nodes = (
"577 0 LINE",
"577 68 LINE",
"97 68 LINE",
"110 45 LINE",
"402 543 LINE",
"319 543 LINE",
"26 46 LINE",
"26 0 LINE"
);
},
{
closed = 1;
nodes = (
"478 -200 LINE",
"478 313 LINE",
"412 313 LINE",
"401 68 LINE",
"401 -200 LINE"
);
}
);
width = 605;
}
);
},
{
glyphname = five.tosf;
lastChange = "2016-12-22 13:06:27 +0000";
layers = (
{
color = -1;
layerId = "E6A13138-87C4-4EDC-BDCD-C4EF9152A586";
paths = (
{
closed = 1;
nodes = (
"450 -209 OFFCURVE",
"550 -132 OFFCURVE",
"550 12 CURVE SMOOTH",
"550 147 OFFCURVE",
"459 216 OFFCURVE",
"223 230 CURVE SMOOTH",
"121 235 LINE",
"172 200 LINE",
"195 508 LINE",
"159 475 LINE",
"520 475 LINE",
"520 543 LINE",
"119 543 LINE",
"91 169 LINE",
"194 164 LINE SMOOTH",
"402 152 OFFCURVE",
"470 106 OFFCURVE",
"470 11 CURVE SMOOTH",
"470 -91 OFFCURVE",
"399 -142 OFFCURVE",
"256 -142 CURVE SMOOTH",
"193 -142 OFFCURVE",
"123 -131 OFFCURVE",
"61 -112 CURVE",
"61 -179 LINE",
"120 -198 OFFCURVE",
"190 -209 OFFCURVE",
"257 -209 CURVE SMOOTH"
);
}
);
width = 605;
}
);
},
{
glyphname = six.tosf;
lastChange = "2016-12-22 13:06:27 +0000";
layers = (
{
color = -1;
layerId = "E6A13138-87C4-4EDC-BDCD-C4EF9152A586";
paths = (
{
closed = 1;
nodes = (
"473 -9 OFFCURVE",
"568 67 OFFCURVE",
"568 209 CURVE SMOOTH",
"568 355 OFFCURVE",
"474 426 OFFCURVE",
"332 426 CURVE SMOOTH",
"259 426 OFFCURVE",
"182 401 OFFCURVE",
"136 360 CURVE",
"136 293 LINE",
"184 341 OFFCURVE",
"259 361 OFFCURVE",
"318 361 CURVE SMOOTH",
"427 361 OFFCURVE",
"490 312 OFFCURVE",
"490 207 CURVE SMOOTH",
"490 103 OFFCURVE",
"427 56 OFFCURVE",
"337 56 CURVE SMOOTH",
"221 56 OFFCURVE",
"152 127 OFFCURVE",
"152 337 CURVE SMOOTH",
"152 366 LINE SMOOTH",
"152 582 OFFCURVE",
"233 682 OFFCURVE",
"395 682 CURVE SMOOTH",
"439 682 OFFCURVE",
"491 675 OFFCURVE",
"533 658 CURVE",
"533 727 LINE",
"491 743 OFFCURVE",
"441 749 OFFCURVE",
"392 749 CURVE SMOOTH",
"185 749 OFFCURVE",
"70 619 OFFCURVE",
"70 346 CURVE SMOOTH",
"70 92 OFFCURVE",
"175 -9 OFFCURVE",
"336 -9 CURVE SMOOTH"
);
}
);
width = 605;
}
);
},
{
glyphname = seven.tosf;
lastChange = "2016-12-22 13:06:27 +0000";
layers = (
{
color = -1;
layerId = "E6A13138-87C4-4EDC-BDCD-C4EF9152A586";
paths = (
{
closed = 1;
nodes = (
"218 -200 LINE",
"541 497 LINE",
"541 543 LINE",
"37 543 LINE",
"37 472 LINE",
"484 472 LINE",
"458 498 LINE",
"130 -200 LINE"
);
}
);
width = 605;
}
);
},
{
glyphname = eight.tosf;
lastChange = "2016-12-22 13:06:27 +0000";
layers = (
{
color = -1;
layerId = "E6A13138-87C4-4EDC-BDCD-C4EF9152A586";
paths = (
{
closed = 1;
nodes = (
"474 -9 OFFCURVE",
"564 72 OFFCURVE",
"564 193 CURVE SMOOTH",
"564 299 OFFCURVE",
"502 363 OFFCURVE",
"332 401 CURVE SMOOTH",
"188 434 OFFCURVE",
"145 477 OFFCURVE",
"145 558 CURVE SMOOTH",
"145 636 OFFCURVE",
"198 686 OFFCURVE",
"303 686 CURVE SMOOTH",
"405 686 OFFCURVE",
"465 641 OFFCURVE",
"465 556 CURVE SMOOTH",
"465 480 OFFCURVE",
"427 431 OFFCURVE",
"339 392 CURVE",
"395 367 LINE",
"492 405 OFFCURVE",
"539 472 OFFCURVE",
"539 562 CURVE SMOOTH",
"539 679 OFFCURVE",
"452 749 OFFCURVE",
"304 749 CURVE SMOOTH",
"150 749 OFFCURVE",
"64 674 OFFCURVE",
"64 555 CURVE SMOOTH",
"64 446 OFFCURVE",
"127 376 OFFCURVE",
"300 338 CURVE SMOOTH",
"437 308 OFFCURVE",
"484 268 OFFCURVE",
"484 189 CURVE SMOOTH",
"484 102 OFFCURVE",
"423 54 OFFCURVE",
"307 54 CURVE SMOOTH",
"185 54 OFFCURVE",
"120 103 OFFCURVE",
"120 195 CURVE SMOOTH",
"120 270 OFFCURVE",
"166 334 OFFCURVE",
"258 361 CURVE",
"196 387 LINE",
"97 354 OFFCURVE",
"41 284 OFFCURVE",
"41 187 CURVE SMOOTH",
"41 63 OFFCURVE",
"131 -9 OFFCURVE",
"306 -9 CURVE SMOOTH"
);
}
);
width = 605;
}
);
},
{
glyphname = nine.tosf;
lastChange = "2016-12-22 13:06:27 +0000";
layers = (
{
color = -1;
layerId = "E6A13138-87C4-4EDC-BDCD-C4EF9152A586";
paths = (
{
closed = 1;
nodes = (
"420 -209 OFFCURVE",
"534 -79 OFFCURVE",
"534 195 CURVE SMOOTH",
"534 451 OFFCURVE",
"430 552 OFFCURVE",
"268 552 CURVE SMOOTH",
"131 552 OFFCURVE",
"37 476 OFFCURVE",
"37 333 CURVE SMOOTH",
"37 186 OFFCURVE",
"130 115 OFFCURVE",
"273 115 CURVE SMOOTH",
"346 115 OFFCURVE",
"422 140 OFFCURVE",
"468 181 CURVE",
"468 248 LINE",
"421 200 OFFCURVE",
"346 180 OFFCURVE",
"286 180 CURVE SMOOTH",
"178 180 OFFCURVE",
"115 229 OFFCURVE",
"115 335 CURVE SMOOTH",
"115 440 OFFCURVE",
"178 487 OFFCURVE",
"268 487 CURVE SMOOTH",
"383 487 OFFCURVE",
"452 416 OFFCURVE",
"452 205 CURVE SMOOTH",
"452 175 LINE SMOOTH",
"452 -42 OFFCURVE",
"371 -142 OFFCURVE",
"209 -142 CURVE SMOOTH",
"166 -142 OFFCURVE",
"114 -135 OFFCURVE",
"72 -118 CURVE",
"72 -187 LINE",
"113 -203 OFFCURVE",
"164 -209 OFFCURVE",
"213 -209 CURVE SMOOTH"
);
}
);
width = 605;
}
);
},
{
glyphname = zero.dnom;
lastChange = "2016-12-22 13:06:27 +0000";
layers = (
{
color = -1;
layerId = "E6A13138-87C4-4EDC-BDCD-C4EF9152A586";
paths = (
{
closed = 1;
nodes = (
"311 -74 OFFCURVE",
"380 -7 OFFCURVE",
"380 182 CURVE SMOOTH",
"380 371 OFFCURVE",
"309 438 OFFCURVE",
"206 438 CURVE SMOOTH",
"104 438 OFFCURVE",
"33 371 OFFCURVE",
"33 182 CURVE SMOOTH",
"33 -7 OFFCURVE",
"102 -74 OFFCURVE",
"206 -74 CURVE SMOOTH"
);
},
{
closed = 1;
nodes = (
"143 -17 OFFCURVE",
"100 23 OFFCURVE",
"100 182 CURVE SMOOTH",
"100 341 OFFCURVE",
"144 381 OFFCURVE",
"206 381 CURVE SMOOTH",
"269 381 OFFCURVE",
"312 341 OFFCURVE",
"312 182 CURVE SMOOTH",
"312 23 OFFCURVE",
"270 -17 OFFCURVE",
"206 -17 CURVE SMOOTH"
);
}
);
width = 412;
}
);
note = "\012    546\012  ";
userData = {
com.typemytype.robofont.layerData = {
};
};
},
{
glyphname = one.dnom;
lastChange = "2016-12-22 13:06:27 +0000";
layers = (
{
color = -1;
layerId = "E6A13138-87C4-4EDC-BDCD-C4EF9152A586";
paths = (
{
closed = 1;
nodes = (
"262 -57 LINE",
"262 434 LINE",
"217 434 LINE",
"71 333 LINE",
"71 268 LINE",
"217 369 LINE",
"194 388 LINE",
"194 -57 LINE"
);
},
{
closed = 1;
nodes = (
"379 -68 LINE",
"379 -10 LINE",
"71 -10 LINE",
"71 -68 LINE"
);
}
);
width = 412;
}
);
userData = {
com.typemytype.robofont.layerData = {
};
};
},
{
glyphname = two.dnom;
lastChange = "2016-12-22 13:06:27 +0000";
layers = (
{
color = -1;
layerId = "E6A13138-87C4-4EDC-BDCD-C4EF9152A586";
paths = (
{
closed = 1;
nodes = (
"374 -68 LINE",
"374 -10 LINE",
"121 -10 LINE",
"123 -29 LINE",
"258 127 LINE SMOOTH",
"321 199 OFFCURVE",
"345 245 OFFCURVE",
"345 300 CURVE SMOOTH",
"345 395 OFFCURVE",
"283 438 OFFCURVE",
"169 438 CURVE SMOOTH",
"120 438 OFFCURVE",
"73 431 OFFCURVE",
"39 419 CURVE",
"39 361 LINE",
"75 374 OFFCURVE",
"117 381 OFFCURVE",
"161 381 CURVE SMOOTH",
"239 381 OFFCURVE",
"276 354 OFFCURVE",
"276 294 CURVE SMOOTH",
"276 253 OFFCURVE",
"256 215 OFFCURVE",
"201 152 CURVE SMOOTH",
"45 -31 LINE",
"45 -68 LINE"
);
}
);
width = 412;
}
);
userData = {
com.typemytype.robofont.layerData = {
};
};
},
{
glyphname = three.dnom;
lastChange = "2016-12-22 13:06:27 +0000";
layers = (
{
color = -1;
layerId = "E6A13138-87C4-4EDC-BDCD-C4EF9152A586";
paths = (
{
closed = 1;
nodes = (
"306 -74 OFFCURVE",
"371 -20 OFFCURVE",
"371 70 CURVE SMOOTH",
"371 141 OFFCURVE",
"325 185 OFFCURVE",
"242 195 CURVE",
"242 187 LINE",
"309 202 OFFCURVE",
"354 245 OFFCURVE",
"354 309 CURVE SMOOTH",
"354 391 OFFCURVE",
"292 438 OFFCURVE",
"177 438 CURVE SMOOTH",
"133 438 OFFCURVE",
"84 432 OFFCURVE",
"48 420 CURVE",
"48 365 LINE",
"88 379 OFFCURVE",
"131 385 OFFCURVE",
"171 385 CURVE SMOOTH",
"248 385 OFFCURVE",
"287 355 OFFCURVE",
"287 304 CURVE SMOOTH",
"287 245 OFFCURVE",
"241 216 OFFCURVE",
"150 216 CURVE SMOOTH",
"104 216 LINE",
"104 161 LINE",
"181 161 LINE SMOOTH",
"267 161 OFFCURVE",
"306 130 OFFCURVE",
"306 74 CURVE SMOOTH",
"306 13 OFFCURVE",
"263 -21 OFFCURVE",
"168 -21 CURVE SMOOTH",
"126 -21 OFFCURVE",
"79 -14 OFFCURVE",
"35 0 CURVE",
"35 -55 LINE",
"76 -68 OFFCURVE",
"124 -74 OFFCURVE",
"170 -74 CURVE SMOOTH"
);
}
);
width = 412;
}
);
userData = {
com.typemytype.robofont.layerData = {
};
};
},
{
glyphname = four.dnom;
lastChange = "2016-12-22 13:06:27 +0000";
layers = (
{
color = -1;
layerId = "E6A13138-87C4-4EDC-BDCD-C4EF9152A586";
paths = (
{
closed = 1;
nodes = (
"400 47 LINE",
"400 102 LINE",
"73 102 LINE",
"81 85 LINE",
"271 432 LINE",
"205 432 LINE",
"15 86 LINE",
"15 47 LINE"
);
},
{
closed = 1;
nodes = (
"328 -68 LINE",
"328 263 LINE",
"278 263 LINE",
"266 102 LINE",
"266 -68 LINE"
);
}
);
width = 412;
}
);
userData = {
com.typemytype.robofont.layerData = {
};
};
},
{
glyphname = five.dnom;
lastChange = "2016-12-22 13:06:27 +0000";
layers = (
{
color = -1;
layerId = "E6A13138-87C4-4EDC-BDCD-C4EF9152A586";
paths = (
{
closed = 1;
nodes = (
"309 -74 OFFCURVE",
"378 -22 OFFCURVE",
"378 77 CURVE SMOOTH",
"378 168 OFFCURVE",
"316 216 OFFCURVE",
"155 225 CURVE SMOOTH",
"86 228 LINE",
"128 201 LINE",
"142 406 LINE",
"113 377 LINE",
"357 377 LINE",
"357 432 LINE",
"80 432 LINE",
"62 175 LINE",
"138 171 LINE SMOOTH",
"270 164 OFFCURVE",
"312 135 OFFCURVE",
"312 75 CURVE SMOOTH",
"312 12 OFFCURVE",
"267 -20 OFFCURVE",
"175 -20 CURVE SMOOTH",
"132 -20 OFFCURVE",
"84 -13 OFFCURVE",
"42 1 CURVE",
"42 -54 LINE",
"81 -67 OFFCURVE",
"130 -74 OFFCURVE",
"176 -74 CURVE SMOOTH"
);
}
);
width = 412;
}
);
userData = {
com.typemytype.robofont.layerData = {
};
};
},
{
glyphname = six.dnom;
lastChange = "2016-12-22 13:06:27 +0000";
layers = (
{
color = -1;
layerId = "E6A13138-87C4-4EDC-BDCD-C4EF9152A586";
paths = (
{
closed = 1;
nodes = (
"325 -74 OFFCURVE",
"389 -21 OFFCURVE",
"389 76 CURVE SMOOTH",
"389 175 OFFCURVE",
"325 223 OFFCURVE",
"230 223 CURVE SMOOTH",
"181 223 OFFCURVE",
"130 206 OFFCURVE",
"100 180 CURVE",
"100 127 LINE",
"131 158 OFFCURVE",
"179 171 OFFCURVE",
"217 171 CURVE SMOOTH",
"286 171 OFFCURVE",
"326 140 OFFCURVE",
"326 74 CURVE SMOOTH",
"326 7 OFFCURVE",
"286 -22 OFFCURVE",
"229 -22 CURVE SMOOTH",
"156 -22 OFFCURVE",
"112 23 OFFCURVE",
"112 154 CURVE SMOOTH",
"112 182 LINE SMOOTH",
"112 320 OFFCURVE",
"165 384 OFFCURVE",
"271 384 CURVE SMOOTH",
"301 384 OFFCURVE",
"336 379 OFFCURVE",
"364 367 CURVE",
"364 423 LINE",
"336 434 OFFCURVE",
"302 438 OFFCURVE",
"267 438 CURVE SMOOTH",
"124 438 OFFCURVE",
"45 348 OFFCURVE",
"45 166 CURVE SMOOTH",
"45 -5 OFFCURVE",
"118 -74 OFFCURVE",
"230 -74 CURVE SMOOTH"
);
}
);
width = 412;
}
);
userData = {
com.typemytype.robofont.layerData = {
};
};
},
{
glyphname = seven.dnom;
lastChange = "2016-12-22 13:06:27 +0000";
layers = (
{
color = -1;
layerId = "E6A13138-87C4-4EDC-BDCD-C4EF9152A586";
paths = (
{
closed = 1;
nodes = (
"159 -68 LINE",
"370 395 LINE",
"370 432 LINE",
"25 432 LINE",
"25 374 LINE",
"324 374 LINE",
"302 395 LINE",
"88 -68 LINE"
);
}
);
width = 412;
}
);
userData = {
com.typemytype.robofont.layerData = {
};
};
},
{
glyphname = eight.dnom;
lastChange = "2016-12-22 13:06:27 +0000";
layers = (
{
color = -1;
layerId = "E6A13138-87C4-4EDC-BDCD-C4EF9152A586";
paths = (
{
closed = 1;
nodes = (
"326 -74 OFFCURVE",
"386 -18 OFFCURVE",
"386 65 CURVE SMOOTH",
"386 136 OFFCURVE",
"346 180 OFFCURVE",
"230 207 CURVE SMOOTH",
"133 229 OFFCURVE",
"106 257 OFFCURVE",
"106 308 CURVE SMOOTH",
"106 357 OFFCURVE",
"140 389 OFFCURVE",
"208 389 CURVE SMOOTH",
"272 389 OFFCURVE",
"310 360 OFFCURVE",
"310 306 CURVE SMOOTH",
"310 258 OFFCURVE",
"286 227 OFFCURVE",
"230 201 CURVE",
"274 181 LINE",
"340 207 OFFCURVE",
"371 253 OFFCURVE",
"371 312 CURVE SMOOTH",
"371 391 OFFCURVE",
"311 438 OFFCURVE",
"209 438 CURVE SMOOTH",
"101 438 OFFCURVE",
"42 387 OFFCURVE",
"42 306 CURVE SMOOTH",
"42 232 OFFCURVE",
"83 183 OFFCURVE",
"201 157 CURVE SMOOTH",
"292 137 OFFCURVE",
"322 111 OFFCURVE",
"322 61 CURVE SMOOTH",
"322 6 OFFCURVE",
"284 -25 OFFCURVE",
"210 -25 CURVE SMOOTH",
"131 -25 OFFCURVE",
"91 7 OFFCURVE",
"91 65 CURVE SMOOTH",
"91 113 OFFCURVE",
"119 154 OFFCURVE",
"179 172 CURVE",
"131 192 LINE",
"64 169 OFFCURVE",
"26 123 OFFCURVE",
"26 58 CURVE SMOOTH",
"26 -24 OFFCURVE",
"87 -74 OFFCURVE",
"209 -74 CURVE SMOOTH"
);
}
);
width = 412;
}
);
userData = {
com.typemytype.robofont.layerData = {
};
};
},
{
glyphname = nine.dnom;
lastChange = "2016-12-22 13:06:27 +0000";
layers = (
{
color = -1;
layerId = "E6A13138-87C4-4EDC-BDCD-C4EF9152A586";
paths = (
{
closed = 1;
nodes = (
"288 -74 OFFCURVE",
"367 16 OFFCURVE",
"367 198 CURVE SMOOTH",
"367 369 OFFCURVE",
"295 438 OFFCURVE",
"183 438 CURVE SMOOTH",
"88 438 OFFCURVE",
"24 385 OFFCURVE",
"24 288 CURVE SMOOTH",
"24 189 OFFCURVE",
"88 141 OFFCURVE",
"182 141 CURVE SMOOTH",
"231 141 OFFCURVE",
"282 158 OFFCURVE",
"312 184 CURVE",
"312 237 LINE",
"281 206 OFFCURVE",
"234 193 OFFCURVE",
"195 193 CURVE SMOOTH",
"126 193 OFFCURVE",
"86 224 OFFCURVE",
"86 290 CURVE SMOOTH",
"86 357 OFFCURVE",
"126 386 OFFCURVE",
"183 386 CURVE SMOOTH",
"256 386 OFFCURVE",
"300 341 OFFCURVE",
"300 210 CURVE SMOOTH",
"300 182 LINE SMOOTH",
"300 44 OFFCURVE",
"248 -20 OFFCURVE",
"141 -20 CURVE SMOOTH",
"111 -20 OFFCURVE",
"76 -15 OFFCURVE",
"48 -3 CURVE",
"48 -59 LINE",
"76 -70 OFFCURVE",
"111 -74 OFFCURVE",
"145 -74 CURVE SMOOTH"
);
}
);
width = 412;
}
);
userData = {
com.typemytype.robofont.layerData = {
};
};
},
{
glyphname = zero.numr;
lastChange = "2016-12-22 13:06:27 +0000";
layers = (
{
color = -1;
layerId = "E6A13138-87C4-4EDC-BDCD-C4EF9152A586";
paths = (
{
closed = 1;
nodes = (
"311 302 OFFCURVE",
"380 369 OFFCURVE",
"380 558 CURVE SMOOTH",
"380 747 OFFCURVE",
"309 814 OFFCURVE",
"206 814 CURVE SMOOTH",
"104 814 OFFCURVE",
"33 747 OFFCURVE",
"33 558 CURVE SMOOTH",
"33 369 OFFCURVE",
"102 302 OFFCURVE",
"206 302 CURVE SMOOTH"
);
},
{
closed = 1;
nodes = (
"143 359 OFFCURVE",
"100 399 OFFCURVE",
"100 558 CURVE SMOOTH",
"100 717 OFFCURVE",
"144 757 OFFCURVE",
"206 757 CURVE SMOOTH",
"269 757 OFFCURVE",
"312 717 OFFCURVE",
"312 558 CURVE SMOOTH",
"312 399 OFFCURVE",
"270 359 OFFCURVE",
"206 359 CURVE SMOOTH"
);
}
);
width = 412;
}
);
userData = {
com.typemytype.robofont.layerData = {
};
};
},
{
glyphname = one.numr;
lastChange = "2016-12-22 13:06:27 +0000";
layers = (
{
color = -1;
layerId = "E6A13138-87C4-4EDC-BDCD-C4EF9152A586";
paths = (
{
closed = 1;
nodes = (
"262 319 LINE",
"262 810 LINE",
"217 810 LINE",
"71 709 LINE",
"71 644 LINE",
"217 745 LINE",
"194 764 LINE",
"194 319 LINE"
);
},
{
closed = 1;
nodes = (
"379 308 LINE",
"379 366 LINE",
"71 366 LINE",
"71 308 LINE"
);
}
);
width = 412;
}
);
userData = {
com.typemytype.robofont.layerData = {
};
};
},
{
glyphname = two.numr;
lastChange = "2016-12-22 13:06:27 +0000";
layers = (
{
color = -1;
layerId = "E6A13138-87C4-4EDC-BDCD-C4EF9152A586";
paths = (
{
closed = 1;
nodes = (
"374 308 LINE",
"374 366 LINE",
"121 366 LINE",
"123 347 LINE",
"258 503 LINE SMOOTH",
"321 575 OFFCURVE",
"345 621 OFFCURVE",
"345 676 CURVE SMOOTH",
"345 771 OFFCURVE",
"283 814 OFFCURVE",
"169 814 CURVE SMOOTH",
"120 814 OFFCURVE",
"73 807 OFFCURVE",
"39 795 CURVE",
"39 737 LINE",
"75 750 OFFCURVE",
"117 757 OFFCURVE",
"161 757 CURVE SMOOTH",
"239 757 OFFCURVE",
"276 730 OFFCURVE",
"276 670 CURVE SMOOTH",
"276 629 OFFCURVE",
"256 591 OFFCURVE",
"201 528 CURVE SMOOTH",
"45 345 LINE",
"45 308 LINE"
);
}
);
width = 412;
}
);
userData = {
com.typemytype.robofont.layerData = {
};
};
},
{
glyphname = three.numr;
lastChange = "2016-12-22 13:06:27 +0000";
layers = (
{
color = -1;
layerId = "E6A13138-87C4-4EDC-BDCD-C4EF9152A586";
paths = (
{
closed = 1;
nodes = (
"306 302 OFFCURVE",
"371 356 OFFCURVE",
"371 446 CURVE SMOOTH",
"371 517 OFFCURVE",
"325 561 OFFCURVE",
"242 571 CURVE",
"242 563 LINE",
"309 578 OFFCURVE",
"354 621 OFFCURVE",
"354 685 CURVE SMOOTH",
"354 767 OFFCURVE",
"292 814 OFFCURVE",
"177 814 CURVE SMOOTH",
"133 814 OFFCURVE",
"84 808 OFFCURVE",
"48 796 CURVE",
"48 741 LINE",
"88 755 OFFCURVE",
"131 761 OFFCURVE",
"171 761 CURVE SMOOTH",
"248 761 OFFCURVE",
"287 731 OFFCURVE",
"287 680 CURVE SMOOTH",
"287 621 OFFCURVE",
"241 592 OFFCURVE",
"150 592 CURVE SMOOTH",
"104 592 LINE",
"104 537 LINE",
"181 537 LINE SMOOTH",
"267 537 OFFCURVE",
"306 506 OFFCURVE",
"306 450 CURVE SMOOTH",
"306 389 OFFCURVE",
"263 355 OFFCURVE",
"168 355 CURVE SMOOTH",
"126 355 OFFCURVE",
"79 362 OFFCURVE",
"35 376 CURVE",
"35 321 LINE",
"76 308 OFFCURVE",
"124 302 OFFCURVE",
"170 302 CURVE SMOOTH"
);
}
);
width = 412;
}
);
userData = {
com.typemytype.robofont.layerData = {
};
};
},
{
glyphname = four.numr;
lastChange = "2016-12-22 13:06:27 +0000";
layers = (
{
color = -1;
layerId = "E6A13138-87C4-4EDC-BDCD-C4EF9152A586";
paths = (
{
closed = 1;
nodes = (
"400 423 LINE",
"400 478 LINE",
"73 478 LINE",
"81 461 LINE",
"271 808 LINE",
"205 808 LINE",
"15 462 LINE",
"15 423 LINE"
);
},
{
closed = 1;
nodes = (
"328 308 LINE",
"328 639 LINE",
"278 639 LINE",
"266 478 LINE",
"266 308 LINE"
);
}
);
width = 412;
}
);
userData = {
com.typemytype.robofont.layerData = {
};
};
},
{
glyphname = five.numr;
lastChange = "2016-12-22 13:06:27 +0000";
layers = (
{
color = -1;
layerId = "E6A13138-87C4-4EDC-BDCD-C4EF9152A586";
paths = (
{
closed = 1;
nodes = (
"309 302 OFFCURVE",
"378 354 OFFCURVE",
"378 453 CURVE SMOOTH",
"378 544 OFFCURVE",
"316 592 OFFCURVE",
"155 601 CURVE SMOOTH",
"86 604 LINE",
"128 577 LINE",
"142 782 LINE",
"113 753 LINE",
"357 753 LINE",
"357 808 LINE",
"80 808 LINE",
"62 551 LINE",
"138 547 LINE SMOOTH",
"270 540 OFFCURVE",
"312 511 OFFCURVE",
"312 451 CURVE SMOOTH",
"312 388 OFFCURVE",
"267 356 OFFCURVE",
"175 356 CURVE SMOOTH",
"132 356 OFFCURVE",
"84 363 OFFCURVE",
"42 377 CURVE",
"42 322 LINE",
"81 309 OFFCURVE",
"130 302 OFFCURVE",
"176 302 CURVE SMOOTH"
);
}
);
width = 412;
}
);
userData = {
com.typemytype.robofont.layerData = {
};
};
},
{
glyphname = six.numr;
lastChange = "2016-12-22 13:06:27 +0000";
layers = (
{
color = -1;
layerId = "E6A13138-87C4-4EDC-BDCD-C4EF9152A586";
paths = (
{
closed = 1;
nodes = (
"325 302 OFFCURVE",
"389 355 OFFCURVE",
"389 452 CURVE SMOOTH",
"389 551 OFFCURVE",
"325 599 OFFCURVE",
"230 599 CURVE SMOOTH",
"181 599 OFFCURVE",
"130 582 OFFCURVE",
"100 556 CURVE",
"100 503 LINE",
"131 534 OFFCURVE",
"179 547 OFFCURVE",
"217 547 CURVE SMOOTH",
"286 547 OFFCURVE",
"326 516 OFFCURVE",
"326 450 CURVE SMOOTH",
"326 383 OFFCURVE",
"286 354 OFFCURVE",
"229 354 CURVE SMOOTH",
"156 354 OFFCURVE",
"112 399 OFFCURVE",
"112 530 CURVE SMOOTH",
"112 558 LINE SMOOTH",
"112 696 OFFCURVE",
"165 760 OFFCURVE",
"271 760 CURVE SMOOTH",
"301 760 OFFCURVE",
"336 755 OFFCURVE",
"364 743 CURVE",
"364 799 LINE",
"336 810 OFFCURVE",
"302 814 OFFCURVE",
"267 814 CURVE SMOOTH",
"124 814 OFFCURVE",
"45 724 OFFCURVE",
"45 542 CURVE SMOOTH",
"45 371 OFFCURVE",
"118 302 OFFCURVE",
"230 302 CURVE SMOOTH"
);
}
);
width = 412;
}
);
userData = {
com.typemytype.robofont.layerData = {
};
};
},
{
glyphname = seven.numr;
lastChange = "2016-12-22 13:06:27 +0000";
layers = (
{
color = -1;
layerId = "E6A13138-87C4-4EDC-BDCD-C4EF9152A586";
paths = (
{
closed = 1;
nodes = (
"159 308 LINE",
"370 771 LINE",
"370 808 LINE",
"25 808 LINE",
"25 750 LINE",
"324 750 LINE",
"302 771 LINE",
"88 308 LINE"
);
}
);
width = 412;
}
);
userData = {
com.typemytype.robofont.layerData = {
};
};
},
{
glyphname = eight.numr;
lastChange = "2016-12-22 13:06:27 +0000";
layers = (
{
color = -1;
layerId = "E6A13138-87C4-4EDC-BDCD-C4EF9152A586";
paths = (
{
closed = 1;
nodes = (
"326 302 OFFCURVE",
"386 358 OFFCURVE",
"386 441 CURVE SMOOTH",
"386 512 OFFCURVE",
"346 556 OFFCURVE",
"230 583 CURVE SMOOTH",
"133 605 OFFCURVE",
"106 633 OFFCURVE",
"106 684 CURVE SMOOTH",
"106 733 OFFCURVE",
"140 765 OFFCURVE",
"208 765 CURVE SMOOTH",
"272 765 OFFCURVE",
"310 736 OFFCURVE",
"310 682 CURVE SMOOTH",
"310 634 OFFCURVE",
"286 603 OFFCURVE",
"230 577 CURVE",
"274 557 LINE",
"340 583 OFFCURVE",
"371 629 OFFCURVE",
"371 688 CURVE SMOOTH",
"371 767 OFFCURVE",
"311 814 OFFCURVE",
"209 814 CURVE SMOOTH",
"101 814 OFFCURVE",
"42 763 OFFCURVE",
"42 682 CURVE SMOOTH",
"42 608 OFFCURVE",
"83 559 OFFCURVE",
"201 533 CURVE SMOOTH",
"292 513 OFFCURVE",
"322 487 OFFCURVE",
"322 437 CURVE SMOOTH",
"322 382 OFFCURVE",
"284 351 OFFCURVE",
"210 351 CURVE SMOOTH",
"131 351 OFFCURVE",
"91 383 OFFCURVE",
"91 441 CURVE SMOOTH",
"91 489 OFFCURVE",
"119 530 OFFCURVE",
"179 548 CURVE",
"131 568 LINE",
"64 545 OFFCURVE",
"26 499 OFFCURVE",
"26 434 CURVE SMOOTH",
"26 352 OFFCURVE",
"87 302 OFFCURVE",
"209 302 CURVE SMOOTH"
);
}
);
width = 412;
}
);
userData = {
com.typemytype.robofont.layerData = {
};
};
},
{
glyphname = nine.numr;
lastChange = "2016-12-22 13:06:27 +0000";
layers = (
{
color = -1;
layerId = "E6A13138-87C4-4EDC-BDCD-C4EF9152A586";
paths = (
{
closed = 1;
nodes = (
"288 302 OFFCURVE",
"367 392 OFFCURVE",
"367 574 CURVE SMOOTH",
"367 745 OFFCURVE",
"295 814 OFFCURVE",
"183 814 CURVE SMOOTH",
"88 814 OFFCURVE",
"24 761 OFFCURVE",
"24 664 CURVE SMOOTH",
"24 565 OFFCURVE",
"88 517 OFFCURVE",
"182 517 CURVE SMOOTH",
"231 517 OFFCURVE",
"282 534 OFFCURVE",
"312 560 CURVE",
"312 613 LINE",
"281 582 OFFCURVE",
"234 569 OFFCURVE",
"195 569 CURVE SMOOTH",
"126 569 OFFCURVE",
"86 600 OFFCURVE",
"86 666 CURVE SMOOTH",
"86 733 OFFCURVE",
"126 762 OFFCURVE",
"183 762 CURVE SMOOTH",
"256 762 OFFCURVE",
"300 717 OFFCURVE",
"300 586 CURVE SMOOTH",
"300 558 LINE SMOOTH",
"300 420 OFFCURVE",
"248 356 OFFCURVE",
"141 356 CURVE SMOOTH",
"111 356 OFFCURVE",
"76 361 OFFCURVE",
"48 373 CURVE",
"48 317 LINE",
"76 306 OFFCURVE",
"111 302 OFFCURVE",
"145 302 CURVE SMOOTH"
);
}
);
width = 412;
}
);
userData = {
com.typemytype.robofont.layerData = {
};
};
},
{
glyphname = fraction;
lastChange = "2016-12-22 13:06:27 +0000";
layers = (
{
color = -1;
layerId = "E6A13138-87C4-4EDC-BDCD-C4EF9152A586";
paths = (
{
closed = 1;
nodes = (
"-97 -68 LINE",
"317 808 LINE",
"246 808 LINE",
"-168 -68 LINE"
);
}
);
width = 149;
}
);
unicode = 2044;
userData = {
com.typemytype.robofont.layerData = {
};
};
},
{
glyphname = asterisk;
lastChange = "2016-12-22 13:06:27 +0000";
layers = (
{
color = -1;
layerId = "E6A13138-87C4-4EDC-BDCD-C4EF9152A586";
paths = (
{
closed = 1;
nodes = (
"363 609 LINE",
"455 639 LINE",
"437 696 LINE",
"345 666 LINE",
"253 624 LINE",
"265 724 LINE",
"265 808 LINE",
"205 808 LINE",
"205 724 LINE",
"217 624 LINE",
"125 666 LINE",
"34 696 LINE",
"15 639 LINE",
"108 609 LINE",
"204 589 LINE",
"137 516 LINE",
"85 445 LINE",
"133 409 LINE",
"186 480 LINE",
"235 569 LINE",
"284 480 LINE",
"337 409 LINE",
"386 445 LINE",
"333 516 LINE",
"266 589 LINE"
);
}
);
width = 470;
}
);
leftKerningGroup = asterisk;
rightKerningGroup = asterisk;
unicode = 002A;
userData = {
com.typemytype.robofont.layerData = {
};
};
},
{
glyphname = backslash;
lastChange = "2016-12-22 13:06:27 +0000";
layers = (
{
color = -1;
layerId = "E6A13138-87C4-4EDC-BDCD-C4EF9152A586";
paths = (
{
closed = 1;
nodes = (
"338 -120 LINE",
"82 808 LINE",
"0 808 LINE",
"255 -120 LINE"
);
}
);
width = 338;
}
);
unicode = 005C;
userData = {
com.typemytype.robofont.layerData = {
};
};
},
{
glyphname = periodcentered;
lastChange = "2016-12-22 13:06:27 +0000";
layers = (
{
anchors = (
{
name = _periodcentered;
position = "{122, 280}";
}
);
color = -1;
layerId = "E6A13138-87C4-4EDC-BDCD-C4EF9152A586";
paths = (
{
closed = 1;
nodes = (
"157 223 OFFCURVE",
"180 245 OFFCURVE",
"180 279 CURVE SMOOTH",
"180 313 OFFCURVE",
"157 336 OFFCURVE",
"122 336 CURVE SMOOTH",
"86 336 OFFCURVE",
"63 314 OFFCURVE",
"63 279 CURVE SMOOTH",
"63 245 OFFCURVE",
"87 223 OFFCURVE",
"122 223 CURVE SMOOTH"
);
}
);
width = 243;
}
);
leftKerningGroup = hyphen;
leftMetricsKey = period;
widthMetricsKey = period;
rightKerningGroup = hyphen;
unicode = 00B7;
userData = {
com.typemytype.robofont.layerData = {
};
};
},
{
glyphname = bullet;
lastChange = "2016-12-22 13:06:27 +0000";
layers = (
{
color = -1;
layerId = "E6A13138-87C4-4EDC-BDCD-C4EF9152A586";
paths = (
{
closed = 1;
nodes = (
"251 159 OFFCURVE",
"304 210 OFFCURVE",
"304 280 CURVE SMOOTH",
"304 350 OFFCURVE",
"251 401 OFFCURVE",
"184 401 CURVE SMOOTH",
"116 401 OFFCURVE",
"63 350 OFFCURVE",
"63 280 CURVE SMOOTH",
"63 210 OFFCURVE",
"116 159 OFFCURVE",
"184 159 CURVE SMOOTH"
);
}
);
width = 367;
}
);
leftKerningGroup = hyphen;
leftMetricsKey = period;
rightKerningGroup = hyphen;
rightMetricsKey = period;
unicode = 2022;
userData = {
com.typemytype.robofont.layerData = {
};
};
},
{
glyphname = comma;
lastChange = "2016-12-22 13:06:27 +0000";
layers = (
{
color = -1;
layerId = "E6A13138-87C4-4EDC-BDCD-C4EF9152A586";
paths = (
{
closed = 1;
nodes = (
"129 -158 LINE",
"159 -105 OFFCURVE",
"180 -37 OFFCURVE",
"180 32 CURVE SMOOTH",
"180 83 OFFCURVE",
"158 106 OFFCURVE",
"120 106 CURVE SMOOTH",
"85 106 OFFCURVE",
"63 85 OFFCURVE",
"63 50 CURVE SMOOTH",
"63 16 OFFCURVE",
"87 -6 OFFCURVE",
"122 -6 CURVE SMOOTH",
"133 -6 LINE",
"119 11 LINE",
"119 -44 OFFCURVE",
"104 -96 OFFCURVE",
"81 -158 CURVE"
);
}
);
width = 243;
}
);
leftKerningGroup = period;
leftMetricsKey = period;
widthMetricsKey = period;
rightKerningGroup = period;
unicode = 002C;
userData = {
com.typemytype.robofont.layerData = {
};
};
},
{
glyphname = exclam;
lastChange = "2016-12-22 13:06:27 +0000";
layers = (
{
color = -1;
layerId = "E6A13138-87C4-4EDC-BDCD-C4EF9152A586";
paths = (
{
closed = 1;
nodes = (
"158 187 LINE",
"175 459 LINE",
"175 740 LINE",
"88 740 LINE",
"88 459 LINE",
"106 187 LINE"
);
},
{
closed = 1;
nodes = (
"167 -6 OFFCURVE",
"190 15 OFFCURVE",
"190 48 CURVE SMOOTH",
"190 81 OFFCURVE",
"167 103 OFFCURVE",
"132 103 CURVE SMOOTH",
"96 103 OFFCURVE",
"73 81 OFFCURVE",
"73 48 CURVE SMOOTH",
"73 15 OFFCURVE",
"97 -6 OFFCURVE",
"132 -6 CURVE SMOOTH"
);
}
);
width = 263;
}
);
leftKerningGroup = l;
leftMetricsKey = "=period+10";
widthMetricsKey = "=period+20";
rightKerningGroup = l;
unicode = 0021;
userData = {
com.typemytype.robofont.layerData = {
};
};
},
{
glyphname = exclamdown;
lastChange = "2016-12-22 13:06:27 +0000";
layers = (
{
color = -1;
layerId = "E6A13138-87C4-4EDC-BDCD-C4EF9152A586";
paths = (
{
closed = 1;
nodes = (
"88 82 LINE",
"88 -190 LINE",
"175 -190 LINE",
"175 82 LINE",
"158 352 LINE",
"106 352 LINE"
);
},
{
closed = 1;
nodes = (
"97 549 OFFCURVE",
"73 528 OFFCURVE",
"73 493 CURVE SMOOTH",
"73 458 OFFCURVE",
"96 436 OFFCURVE",
"132 436 CURVE SMOOTH",
"167 436 OFFCURVE",
"190 459 OFFCURVE",
"190 493 CURVE SMOOTH",
"190 527 OFFCURVE",
"167 549 OFFCURVE",
"132 549 CURVE SMOOTH"
);
}
);
width = 263;
}
);
leftKerningGroup = n;
leftMetricsKey = exclam;
widthMetricsKey = exclam;
rightKerningGroup = u;
unicode = 00A1;
userData = {
com.typemytype.robofont.layerData = {
};
};
},
{
glyphname = numbersign;
lastChange = "2016-12-22 13:06:27 +0000";
layers = (
{
color = -1;
layerId = "E6A13138-87C4-4EDC-BDCD-C4EF9152A586";
paths = (
{
closed = 1;
nodes = (
"394 0 LINE",
"478 740 LINE",
"411 740 LINE",
"326 0 LINE"
);
},
{
closed = 1;
nodes = (
"552 228 LINE",
"552 294 LINE",
"53 294 LINE",
"53 228 LINE"
);
},
{
closed = 1;
nodes = (
"194 0 LINE",
"278 740 LINE",
"211 740 LINE",
"126 0 LINE"
);
},
{
closed = 1;
nodes = (
"552 446 LINE",
"552 512 LINE",
"53 512 LINE",
"53 446 LINE"
);
}
);
width = 605;
}
);
leftKerningGroup = numbersign;
widthMetricsKey = zero.tf;
rightKerningGroup = numbersign;
unicode = 0023;
userData = {
com.typemytype.robofont.layerData = {
};
};
},
{
glyphname = period;
lastChange = "2016-12-22 13:06:27 +0000";
layers = (
{
color = -1;
layerId = "E6A13138-87C4-4EDC-BDCD-C4EF9152A586";
paths = (
{
closed = 1;
nodes = (
"157 -6 OFFCURVE",
"180 16 OFFCURVE",
"180 50 CURVE SMOOTH",
"180 84 OFFCURVE",
"157 106 OFFCURVE",
"122 106 CURVE SMOOTH",
"86 106 OFFCURVE",
"63 84 OFFCURVE",
"63 50 CURVE SMOOTH",
"63 15 OFFCURVE",
"87 -6 OFFCURVE",
"122 -6 CURVE SMOOTH"
);
}
);
width = 243;
}
);
leftKerningGroup = period;
rightKerningGroup = period;
unicode = 002E;
userData = {
com.typemytype.robofont.layerData = {
};
};
},
{
glyphname = question;
lastChange = "2016-12-22 13:06:27 +0000";
layers = (
{
color = -1;
layerId = "E6A13138-87C4-4EDC-BDCD-C4EF9152A586";
paths = (
{
closed = 1;
nodes = (
"243 181 LINE",
"251 339 LINE",
"391 388 OFFCURVE",
"446 452 OFFCURVE",
"446 560 CURVE SMOOTH",
"446 679 OFFCURVE",
"360 749 OFFCURVE",
"202 749 CURVE SMOOTH",
"139 749 OFFCURVE",
"73 739 OFFCURVE",
"21 722 CURVE",
"21 653 LINE",
"78 672 OFFCURVE",
"137 681 OFFCURVE",
"194 681 CURVE SMOOTH",
"306 681 OFFCURVE",
"365 635 OFFCURVE",
"365 554 CURVE SMOOTH",
"365 472 OFFCURVE",
"320 424 OFFCURVE",
"177 383 CURVE",
"191 181 LINE"
);
},
{
closed = 1;
nodes = (
"253 -6 OFFCURVE",
"276 16 OFFCURVE",
"276 48 CURVE SMOOTH",
"276 81 OFFCURVE",
"253 103 OFFCURVE",
"217 103 CURVE SMOOTH",
"181 103 OFFCURVE",
"158 81 OFFCURVE",
"158 48 CURVE SMOOTH",
"158 15 OFFCURVE",
"182 -6 OFFCURVE",
"217 -6 CURVE SMOOTH"
);
}
);
width = 476;
}
);
leftKerningGroup = question;
rightKerningGroup = question;
unicode = 003F;
userData = {
com.typemytype.robofont.layerData = {
};
};
},
{
glyphname = questiondown;
lastChange = "2016-12-22 13:06:40 +0000";
layers = (
{
color = -1;
layerId = "E6A13138-87C4-4EDC-BDCD-C4EF9152A586";
paths = (
{
closed = 1;
nodes = (
"232 362 LINE",
"225 204 LINE",
"85 155 OFFCURVE",
"30 91 OFFCURVE",
"30 -14 CURVE SMOOTH",
"30 -130 OFFCURVE",
"116 -200 OFFCURVE",
"274 -200 CURVE SMOOTH",
"337 -200 OFFCURVE",
"402 -190 OFFCURVE",
"455 -173 CURVE",
"455 -104 LINE",
"398 -123 OFFCURVE",
"338 -132 OFFCURVE",
"281 -132 CURVE SMOOTH",
"169 -132 OFFCURVE",
"111 -86 OFFCURVE",
"111 -9 CURVE SMOOTH",
"111 70 OFFCURVE",
"155 119 OFFCURVE",
"299 160 CURVE",
"285 362 LINE"
);
},
{
closed = 1;
nodes = (
"223 549 OFFCURVE",
"200 527 OFFCURVE",
"200 495 CURVE SMOOTH",
"200 462 OFFCURVE",
"223 440 OFFCURVE",
"258 440 CURVE SMOOTH",
"294 440 OFFCURVE",
"317 461 OFFCURVE",
"317 495 CURVE SMOOTH",
"317 527 OFFCURVE",
"294 549 OFFCURVE",
"258 549 CURVE SMOOTH"
);
}
);
width = 476;
}
);
leftMetricsKey = "=|question";
widthMetricsKey = question;
unicode = 00BF;
userData = {
com.typemytype.robofont.layerData = {
};
};
},
{
glyphname = quotesingle;
lastChange = "2016-12-22 13:06:27 +0000";
layers = (
{
color = -1;
layerId = "E6A13138-87C4-4EDC-BDCD-C4EF9152A586";
paths = (
{
closed = 1;
nodes = (
"135 457 LINE",
"153 808 LINE",
"68 808 LINE",
"86 457 LINE"
);
}
);
width = 221;
}
);
leftKerningGroup = quotesingle;
rightKerningGroup = quotesingle;
unicode = 0027;
},
{
glyphname = slash;
lastChange = "2016-12-22 13:06:27 +0000";
layers = (
{
color = -1;
layerId = "E6A13138-87C4-4EDC-BDCD-C4EF9152A586";
paths = (
{
closed = 1;
nodes = (
"81 -120 LINE",
"335 808 LINE",
"254 808 LINE",
"0 -120 LINE"
);
}
);
width = 335;
}
);
leftKerningGroup = slash;
rightKerningGroup = slash;
unicode = 002F;
userData = {
com.typemytype.robofont.layerData = {
};
};
},
{
glyphname = underscore;
lastChange = "2016-12-22 13:06:27 +0000";
layers = (
{
color = -1;
layerId = "E6A13138-87C4-4EDC-BDCD-C4EF9152A586";
paths = (
{
closed = 1;
nodes = (
"553 -68 LINE",
"553 0 LINE",
"47 0 LINE",
"47 -68 LINE"
);
}
);
width = 600;
}
);
leftKerningGroup = period;
rightKerningGroup = period;
unicode = 005F;
userData = {
com.typemytype.robofont.layerData = {
};
};
},
{
glyphname = periodcentered.CAT;
lastChange = "2016-12-22 13:06:27 +0000";
layers = (
{
anchors = (
{
name = _periodcentered;
position = "{119, 304}";
}
);
color = -1;
layerId = "E6A13138-87C4-4EDC-BDCD-C4EF9152A586";
paths = (
{
closed = 1;
nodes = (
"156 253 OFFCURVE",
"176 271 OFFCURVE",
"176 303 CURVE SMOOTH",
"176 335 OFFCURVE",
"156 355 OFFCURVE",
"119 355 CURVE SMOOTH",
"82 355 OFFCURVE",
"62 335 OFFCURVE",
"62 303 CURVE SMOOTH",
"62 271 OFFCURVE",
"82 253 OFFCURVE",
"119 253 CURVE SMOOTH"
);
}
);
width = 237;
}
);
userData = {
com.typemytype.robofont.layerData = {
};
};
},
{
color = 1;
glyphname = periodcentered.tf;
lastChange = "2016-12-22 13:06:27 +0000";
layers = (
{
color = -1;
layerId = "E6A13138-87C4-4EDC-BDCD-C4EF9152A586";
paths = (
{
closed = 1;
nodes = (
"186 223 OFFCURVE",
"210 245 OFFCURVE",
"210 279 CURVE SMOOTH",
"210 313 OFFCURVE",
"187 336 OFFCURVE",
"151 336 CURVE SMOOTH",
"115 336 OFFCURVE",
"92 314 OFFCURVE",
"92 279 CURVE SMOOTH",
"92 245 OFFCURVE",
"116 223 OFFCURVE",
"151 223 CURVE SMOOTH"
);
}
);
width = 302;
}
);
widthMetricsKey = "=zero.tf*0.5";
},
{
color = 1;
glyphname = colon.tf;
lastChange = "2016-12-22 13:06:27 +0000";
layers = (
{
color = -1;
layerId = "E6A13138-87C4-4EDC-BDCD-C4EF9152A586";
paths = (
{
closed = 1;
nodes = (
"186 -6 OFFCURVE",
"210 16 OFFCURVE",
"210 50 CURVE SMOOTH",
"210 84 OFFCURVE",
"187 106 OFFCURVE",
"151 106 CURVE SMOOTH",
"115 106 OFFCURVE",
"92 84 OFFCURVE",
"92 50 CURVE SMOOTH",
"92 15 OFFCURVE",
"116 -6 OFFCURVE",
"151 -6 CURVE SMOOTH"
);
},
{
closed = 1;
nodes = (
"186 436 OFFCURVE",
"210 458 OFFCURVE",
"210 492 CURVE SMOOTH",
"210 526 OFFCURVE",
"187 549 OFFCURVE",
"151 549 CURVE SMOOTH",
"115 549 OFFCURVE",
"92 527 OFFCURVE",
"92 492 CURVE SMOOTH",
"92 458 OFFCURVE",
"116 436 OFFCURVE",
"151 436 CURVE SMOOTH"
);
}
);
width = 302;
}
);
widthMetricsKey = "=zero.tf*0.5";
},
{
color = 1;
glyphname = comma.tf;
lastChange = "2016-12-22 13:06:27 +0000";
layers = (
{
color = -1;
layerId = "E6A13138-87C4-4EDC-BDCD-C4EF9152A586";
paths = (
{
closed = 1;
nodes = (
"159 -146 LINE",
"188 -99 OFFCURVE",
"210 -31 OFFCURVE",
"210 32 CURVE SMOOTH",
"210 83 OFFCURVE",
"187 106 OFFCURVE",
"150 106 CURVE SMOOTH",
"115 106 OFFCURVE",
"92 85 OFFCURVE",
"92 50 CURVE SMOOTH",
"92 16 OFFCURVE",
"116 -6 OFFCURVE",
"151 -6 CURVE SMOOTH",
"163 -6 LINE",
"148 11 LINE",
"148 -38 OFFCURVE",
"134 -90 OFFCURVE",
"111 -146 CURVE"
);
}
);
width = 302;
}
);
widthMetricsKey = "=zero.tf*0.5";
},
{
color = 1;
glyphname = period.tf;
lastChange = "2016-12-22 13:06:27 +0000";
layers = (
{
color = -1;
layerId = "E6A13138-87C4-4EDC-BDCD-C4EF9152A586";
paths = (
{
closed = 1;
nodes = (
"186 -6 OFFCURVE",
"210 16 OFFCURVE",
"210 50 CURVE SMOOTH",
"210 84 OFFCURVE",
"187 106 OFFCURVE",
"151 106 CURVE SMOOTH",
"115 106 OFFCURVE",
"92 84 OFFCURVE",
"92 50 CURVE SMOOTH",
"92 15 OFFCURVE",
"116 -6 OFFCURVE",
"151 -6 CURVE SMOOTH"
);
}
);
width = 302;
}
);
widthMetricsKey = "=zero.tf*0.5";
},
{
color = 1;
glyphname = quotedbl.tf;
lastChange = "2016-12-22 13:06:27 +0000";
layers = (
{
color = -1;
layerId = "E6A13138-87C4-4EDC-BDCD-C4EF9152A586";
paths = (
{
closed = 1;
nodes = (
"100 457 LINE",
"114 808 LINE",
"50 808 LINE",
"64 457 LINE"
);
},
{
closed = 1;
nodes = (
"238 457 LINE",
"251 808 LINE",
"187 808 LINE",
"201 457 LINE"
);
}
);
width = 302;
}
);
widthMetricsKey = "=zero.tf*0.5";
},
{
color = 1;
glyphname = quotesingle.tf;
lastChange = "2016-12-22 13:06:27 +0000";
layers = (
{
color = -1;
layerId = "E6A13138-87C4-4EDC-BDCD-C4EF9152A586";
paths = (
{
closed = 1;
nodes = (
"176 457 LINE",
"194 808 LINE",
"109 808 LINE",
"126 457 LINE"
);
}
);
width = 302;
}
);
widthMetricsKey = "=zero.tf*0.5";
},
{
color = 1;
glyphname = semicolon.tf;
lastChange = "2016-12-22 13:06:27 +0000";
layers = (
{
color = -1;
layerId = "E6A13138-87C4-4EDC-BDCD-C4EF9152A586";
paths = (
{
closed = 1;
nodes = (
"159 -156 LINE",
"188 -103 OFFCURVE",
"210 -36 OFFCURVE",
"210 32 CURVE SMOOTH",
"210 83 OFFCURVE",
"187 106 OFFCURVE",
"150 106 CURVE SMOOTH",
"115 106 OFFCURVE",
"92 85 OFFCURVE",
"92 50 CURVE SMOOTH",
"92 16 OFFCURVE",
"116 -6 OFFCURVE",
"151 -6 CURVE SMOOTH",
"163 -6 LINE",
"148 11 LINE",
"148 -43 OFFCURVE",
"134 -94 OFFCURVE",
"110 -156 CURVE"
);
},
{
closed = 1;
nodes = (
"186 436 OFFCURVE",
"210 458 OFFCURVE",
"210 492 CURVE SMOOTH",
"210 526 OFFCURVE",
"187 549 OFFCURVE",
"151 549 CURVE SMOOTH",
"115 549 OFFCURVE",
"92 527 OFFCURVE",
"92 492 CURVE SMOOTH",
"92 458 OFFCURVE",
"116 436 OFFCURVE",
"151 436 CURVE SMOOTH"
);
}
);
width = 302;
}
);
leftKerningGroup = colon;
widthMetricsKey = "=zero.tf*0.5";
rightKerningGroup = colon;
},
{
color = 1;
glyphname = slash.tf;
lastChange = "2016-12-22 13:06:27 +0000";
layers = (
{
color = -1;
layerId = "E6A13138-87C4-4EDC-BDCD-C4EF9152A586";
paths = (
{
closed = 1;
nodes = (
"216 -120 LINE",
"470 808 LINE",
"389 808 LINE",
"135 -120 LINE"
);
}
);
width = 605;
}
);
widthMetricsKey = zero.tf;
},
{
color = 1;
glyphname = underscore.tf;
lastChange = "2016-12-22 13:06:27 +0000";
layers = (
{
color = -1;
layerId = "E6A13138-87C4-4EDC-BDCD-C4EF9152A586";
paths = (
{
closed = 1;
nodes = (
"557 -68 LINE",
"557 0 LINE",
"47 0 LINE",
"47 -68 LINE"
);
}
);
width = 605;
}
);
widthMetricsKey = zero.tf;
},
{
glyphname = braceleft;
lastChange = "2016-12-22 13:06:27 +0000";
layers = (
{
color = -1;
layerId = "E6A13138-87C4-4EDC-BDCD-C4EF9152A586";
paths = (
{
closed = 1;
nodes = (
"342 -230 OFFCURVE",
"368 -228 OFFCURVE",
"386 -224 CURVE",
"386 -161 LINE",
"325 -161 LINE SMOOTH",
"242 -161 OFFCURVE",
"201 -128 OFFCURVE",
"201 -45 CURVE SMOOTH",
"201 187 LINE SMOOTH",
"201 267 OFFCURVE",
"169 308 OFFCURVE",
"94 318 CURVE",
"94 307 LINE",
"169 316 OFFCURVE",
"201 357 OFFCURVE",
"201 438 CURVE SMOOTH",
"201 633 LINE SMOOTH",
"201 716 OFFCURVE",
"242 749 OFFCURVE",
"325 749 CURVE SMOOTH",
"386 749 LINE",
"386 812 LINE",
"368 816 OFFCURVE",
"342 818 OFFCURVE",
"316 818 CURVE SMOOTH",
"185 818 OFFCURVE",
"119 757 OFFCURVE",
"119 633 CURVE SMOOTH",
"119 431 LINE SMOOTH",
"119 372 OFFCURVE",
"90 346 OFFCURVE",
"34 346 CURVE SMOOTH",
"17 346 LINE",
"17 278 LINE",
"34 278 LINE SMOOTH",
"90 278 OFFCURVE",
"119 253 OFFCURVE",
"119 193 CURVE SMOOTH",
"119 -45 LINE SMOOTH",
"119 -169 OFFCURVE",
"185 -230 OFFCURVE",
"316 -230 CURVE SMOOTH"
);
}
);
width = 368;
}
);
leftKerningGroup = braceleft;
widthMetricsKey = "=bracketleft+20";
rightKerningGroup = brace;
rightMetricsKey = bracketleft;
unicode = 007B;
},
{
glyphname = braceright;
lastChange = "2016-12-22 13:06:27 +0000";
layers = (
{
color = -1;
layerId = "E6A13138-87C4-4EDC-BDCD-C4EF9152A586";
paths = (
{
closed = 1;
nodes = (
"183 -230 OFFCURVE",
"249 -169 OFFCURVE",
"249 -45 CURVE SMOOTH",
"249 193 LINE SMOOTH",
"249 253 OFFCURVE",
"278 278 OFFCURVE",
"334 278 CURVE SMOOTH",
"351 278 LINE",
"351 346 LINE",
"334 346 LINE SMOOTH",
"278 346 OFFCURVE",
"249 372 OFFCURVE",
"249 431 CURVE SMOOTH",
"249 633 LINE SMOOTH",
"249 757 OFFCURVE",
"183 818 OFFCURVE",
"52 818 CURVE SMOOTH",
"26 818 OFFCURVE",
"1 816 OFFCURVE",
"-18 812 CURVE",
"-18 749 LINE",
"43 749 LINE SMOOTH",
"126 749 OFFCURVE",
"167 716 OFFCURVE",
"167 633 CURVE SMOOTH",
"167 438 LINE SMOOTH",
"167 357 OFFCURVE",
"199 316 OFFCURVE",
"274 307 CURVE",
"274 318 LINE",
"199 308 OFFCURVE",
"167 267 OFFCURVE",
"167 187 CURVE SMOOTH",
"167 -45 LINE SMOOTH",
"167 -128 OFFCURVE",
"126 -161 OFFCURVE",
"43 -161 CURVE SMOOTH",
"-18 -161 LINE",
"-18 -224 LINE",
"1 -228 OFFCURVE",
"26 -230 OFFCURVE",
"52 -230 CURVE SMOOTH"
);
}
);
width = 368;
}
);
leftKerningGroup = brace;
leftMetricsKey = "=|braceleft";
widthMetricsKey = braceleft;
rightKerningGroup = braceright;
unicode = 007D;
},
{
glyphname = bracketleft;
lastChange = "2016-12-22 13:06:27 +0000";
layers = (
{
color = -1;
layerId = "E6A13138-87C4-4EDC-BDCD-C4EF9152A586";
paths = (
{
closed = 1;
nodes = (
"365 -220 LINE",
"365 -152 LINE",
"181 -152 LINE",
"181 740 LINE",
"366 740 LINE",
"366 808 LINE",
"99 808 LINE",
"99 -220 LINE"
);
}
);
width = 348;
}
);
leftKerningGroup = H;
leftMetricsKey = "=H+10";
rightKerningGroup = brace;
unicode = 005B;
},
{
glyphname = bracketright;
lastChange = "2016-12-22 13:06:27 +0000";
layers = (
{
color = -1;
layerId = "E6A13138-87C4-4EDC-BDCD-C4EF9152A586";
paths = (
{
closed = 1;
nodes = (
"249 -220 LINE",
"249 808 LINE",
"-18 808 LINE",
"-18 740 LINE",
"167 740 LINE",
"167 -152 LINE",
"-17 -152 LINE",
"-17 -220 LINE"
);
}
);
width = 348;
}
);
leftKerningGroup = brace;
leftMetricsKey = "=|braceleft";
rightKerningGroup = H;
rightMetricsKey = "=|bracketleft";
unicode = 005D;
},
{
glyphname = parenleft;
lastChange = "2016-12-22 13:06:27 +0000";
layers = (
{
color = -1;
layerId = "E6A13138-87C4-4EDC-BDCD-C4EF9152A586";
paths = (
{
closed = 1;
nodes = (
"337 -220 LINE",
"203 -65 OFFCURVE",
"150 104 OFFCURVE",
"150 294 CURVE SMOOTH",
"150 484 OFFCURVE",
"203 653 OFFCURVE",
"337 808 CURVE",
"247 808 LINE",
"120 663 OFFCURVE",
"65 486 OFFCURVE",
"65 294 CURVE SMOOTH",
"65 102 OFFCURVE",
"120 -75 OFFCURVE",
"247 -220 CURVE"
);
}
);
width = 348;
}
);
leftKerningGroup = O;
leftMetricsKey = "=O+10";
widthMetricsKey = bracketleft;
rightKerningGroup = brace;
unicode = 0028;
},
{
glyphname = parenright;
lastChange = "2016-12-22 13:06:27 +0000";
layers = (
{
color = -1;
layerId = "E6A13138-87C4-4EDC-BDCD-C4EF9152A586";
paths = (
{
closed = 1;
nodes = (
"101 -220 LINE",
"228 -75 OFFCURVE",
"283 102 OFFCURVE",
"283 294 CURVE SMOOTH",
"283 486 OFFCURVE",
"228 663 OFFCURVE",
"101 808 CURVE",
"11 808 LINE",
"145 653 OFFCURVE",
"198 484 OFFCURVE",
"198 294 CURVE SMOOTH",
"198 104 OFFCURVE",
"145 -65 OFFCURVE",
"11 -220 CURVE"
);
}
);
width = 348;
}
);
leftKerningGroup = brace;
leftMetricsKey = "=|parenleft";
rightKerningGroup = O;
rightMetricsKey = "=|parenleft";
unicode = 0029;
},
{
glyphname = emdash;
lastChange = "2016-12-22 13:06:27 +0000";
layers = (
{
color = -1;
layerId = "E6A13138-87C4-4EDC-BDCD-C4EF9152A586";
paths = (
{
closed = 1;
nodes = (
"950 250 LINE",
"950 313 LINE",
"0 313 LINE",
"0 250 LINE"
);
}
);
width = 950;
}
);
leftKerningGroup = hyphen;
rightKerningGroup = hyphen;
unicode = 2014;
userData = {
com.typemytype.robofont.layerData = {
};
};
},
{
glyphname = endash;
lastChange = "2016-12-22 13:06:27 +0000";
layers = (
{
color = -1;
layerId = "E6A13138-87C4-4EDC-BDCD-C4EF9152A586";
paths = (
{
closed = 1;
nodes = (
"475 250 LINE",
"475 313 LINE",
"0 313 LINE",
"0 250 LINE"
);
}
);
width = 475;
}
);
leftKerningGroup = hyphen;
rightKerningGroup = hyphen;
unicode = 2013;
userData = {
com.typemytype.robofont.layerData = {
};
};
},
{
glyphname = figuredash;
lastChange = "2016-12-22 13:06:27 +0000";
layers = (
{
color = -1;
layerId = "E6A13138-87C4-4EDC-BDCD-C4EF9152A586";
paths = (
{
closed = 1;
nodes = (
"540 250 LINE",
"540 313 LINE",
"65 313 LINE",
"65 250 LINE"
);
}
);
width = 605;
}
);
leftKerningGroup = hyphen;
widthMetricsKey = zero.tf;
rightKerningGroup = hyphen;
unicode = 2012;
},
{
glyphname = hyphen;
lastChange = "2016-12-22 13:06:27 +0000";
layers = (
{
color = -1;
layerId = "E6A13138-87C4-4EDC-BDCD-C4EF9152A586";
paths = (
{
closed = 1;
nodes = (
"371 247 LINE",
"371 316 LINE",
"80 316 LINE",
"80 247 LINE"
);
}
);
width = 451;
}
);
leftKerningGroup = hyphen;
rightKerningGroup = hyphen;
unicode = 002D;
userData = {
com.typemytype.robofont.layerData = {
};
};
},
{
glyphname = guilsinglleft;
lastChange = "2016-12-22 13:06:27 +0000";
layers = (
{
color = -1;
layerId = "E6A13138-87C4-4EDC-BDCD-C4EF9152A586";
paths = (
{
closed = 1;
nodes = (
"290 69 LINE",
"147 281 LINE",
"290 494 LINE",
"204 494 LINE",
"60 281 LINE",
"204 69 LINE"
);
}
);
width = 330;
}
);
leftKerningGroup = guilsinglleft;
rightKerningGroup = guilsinglleft;
unicode = 2039;
userData = {
com.typemytype.robofont.layerData = {
};
};
},
{
glyphname = guilsinglright;
lastChange = "2016-12-22 13:06:27 +0000";
layers = (
{
color = -1;
layerId = "E6A13138-87C4-4EDC-BDCD-C4EF9152A586";
paths = (
{
closed = 1;
nodes = (
"127 69 LINE",
"270 281 LINE",
"127 494 LINE",
"40 494 LINE",
"184 281 LINE",
"40 69 LINE"
);
}
);
width = 330;
}
);
leftKerningGroup = guilsinglright;
leftMetricsKey = "=|guilsinglleft";
rightKerningGroup = guilsinglright;
rightMetricsKey = "=|guilsinglleft";
unicode = 203A;
userData = {
com.typemytype.robofont.layerData = {
};
};
},
{
glyphname = quoteleft;
lastChange = "2016-12-22 13:06:27 +0000";
layers = (
{
color = -1;
layerId = "E6A13138-87C4-4EDC-BDCD-C4EF9152A586";
paths = (
{
closed = 1;
nodes = (
"158 544 OFFCURVE",
"180 565 OFFCURVE",
"180 600 CURVE SMOOTH",
"180 634 OFFCURVE",
"157 656 OFFCURVE",
"122 656 CURVE SMOOTH",
"110 656 LINE",
"125 639 LINE",
"125 694 OFFCURVE",
"139 746 OFFCURVE",
"163 808 CURVE",
"114 808 LINE",
"84 755 OFFCURVE",
"63 687 OFFCURVE",
"63 618 CURVE SMOOTH",
"63 567 OFFCURVE",
"85 544 OFFCURVE",
"124 544 CURVE SMOOTH"
);
}
);
width = 243;
}
);
leftKerningGroup = quoteright;
leftMetricsKey = "=|quoteright";
widthMetricsKey = quoteright;
rightKerningGroup = quoteright;
unicode = 2018;
},
{
glyphname = quoteright;
lastChange = "2016-12-22 13:06:27 +0000";
layers = (
{
color = -1;
layerId = "E6A13138-87C4-4EDC-BDCD-C4EF9152A586";
paths = (
{
closed = 1;
nodes = (
"129 550 LINE",
"159 603 OFFCURVE",
"180 671 OFFCURVE",
"180 740 CURVE SMOOTH",
"180 791 OFFCURVE",
"158 814 OFFCURVE",
"120 814 CURVE SMOOTH",
"85 814 OFFCURVE",
"63 792 OFFCURVE",
"63 758 CURVE SMOOTH",
"63 724 OFFCURVE",
"87 702 OFFCURVE",
"122 702 CURVE SMOOTH",
"133 702 LINE",
"119 719 LINE",
"119 664 OFFCURVE",
"104 612 OFFCURVE",
"81 550 CURVE"
);
}
);
width = 243;
}
);
leftKerningGroup = quoteright;
leftMetricsKey = period;
widthMetricsKey = period;
rightKerningGroup = quoteright;
unicode = 2019;
},
{
glyphname = quotesinglbase;
lastChange = "2016-12-22 13:06:27 +0000";
layers = (
{
color = -1;
layerId = "E6A13138-87C4-4EDC-BDCD-C4EF9152A586";
paths = (
{
closed = 1;
nodes = (
"129 -158 LINE",
"159 -105 OFFCURVE",
"180 -37 OFFCURVE",
"180 32 CURVE SMOOTH",
"180 83 OFFCURVE",
"158 106 OFFCURVE",
"120 106 CURVE SMOOTH",
"85 106 OFFCURVE",
"63 85 OFFCURVE",
"63 50 CURVE SMOOTH",
"63 16 OFFCURVE",
"87 -6 OFFCURVE",
"122 -6 CURVE SMOOTH",
"133 -6 LINE",
"119 11 LINE",
"119 -44 OFFCURVE",
"104 -96 OFFCURVE",
"81 -158 CURVE"
);
}
);
width = 243;
}
);
leftKerningGroup = period;
leftMetricsKey = period;
widthMetricsKey = period;
rightKerningGroup = period;
unicode = 201A;
},
{
glyphname = braceleft.sc;
lastChange = "2016-12-22 13:06:27 +0000";
layers = (
{
color = -1;
layerId = "E6A13138-87C4-4EDC-BDCD-C4EF9152A586";
paths = (
{
closed = 1;
nodes = (
"329 -130 OFFCURVE",
"354 -128 OFFCURVE",
"373 -124 CURVE",
"373 -61 LINE",
"311 -61 LINE SMOOTH",
"241 -61 OFFCURVE",
"200 -28 OFFCURVE",
"200 45 CURVE SMOOTH",
"200 198 LINE SMOOTH",
"200 278 OFFCURVE",
"169 319 OFFCURVE",
"94 329 CURVE",
"94 318 LINE",
"169 327 OFFCURVE",
"200 368 OFFCURVE",
"200 449 CURVE SMOOTH",
"200 575 LINE SMOOTH",
"200 648 OFFCURVE",
"241 681 OFFCURVE",
"311 681 CURVE SMOOTH",
"373 681 LINE",
"373 744 LINE",
"354 748 OFFCURVE",
"329 750 OFFCURVE",
"302 750 CURVE SMOOTH",
"185 750 OFFCURVE",
"119 689 OFFCURVE",
"119 575 CURVE SMOOTH",
"119 442 LINE SMOOTH",
"119 383 OFFCURVE",
"90 357 OFFCURVE",
"34 357 CURVE SMOOTH",
"17 357 LINE",
"17 289 LINE",
"34 289 LINE SMOOTH",
"90 289 OFFCURVE",
"119 264 OFFCURVE",
"119 204 CURVE SMOOTH",
"119 45 LINE SMOOTH",
"119 -69 OFFCURVE",
"185 -130 OFFCURVE",
"302 -130 CURVE SMOOTH"
);
}
);
width = 355;
}
);
leftKerningGroup = braceleft.sc;
leftMetricsKey = braceleft;
rightKerningGroup = brace.sc;
rightMetricsKey = braceleft;
},
{
glyphname = braceright.sc;
lastChange = "2016-12-22 13:06:27 +0000";
layers = (
{
color = -1;
layerId = "E6A13138-87C4-4EDC-BDCD-C4EF9152A586";
paths = (
{
closed = 1;
nodes = (
"169 -130 OFFCURVE",
"236 -69 OFFCURVE",
"236 45 CURVE SMOOTH",
"236 204 LINE SMOOTH",
"236 264 OFFCURVE",
"265 289 OFFCURVE",
"321 289 CURVE SMOOTH",
"338 289 LINE",
"338 357 LINE",
"321 357 LINE SMOOTH",
"265 357 OFFCURVE",
"236 383 OFFCURVE",
"236 442 CURVE SMOOTH",
"236 575 LINE SMOOTH",
"236 689 OFFCURVE",
"169 750 OFFCURVE",
"52 750 CURVE SMOOTH",
"26 750 OFFCURVE",
"1 748 OFFCURVE",
"-18 744 CURVE",
"-18 681 LINE",
"44 681 LINE SMOOTH",
"113 681 OFFCURVE",
"155 648 OFFCURVE",
"155 575 CURVE SMOOTH",
"155 449 LINE SMOOTH",
"155 368 OFFCURVE",
"186 327 OFFCURVE",
"261 318 CURVE",
"261 329 LINE",
"186 319 OFFCURVE",
"155 278 OFFCURVE",
"155 198 CURVE SMOOTH",
"155 45 LINE SMOOTH",
"155 -28 OFFCURVE",
"113 -61 OFFCURVE",
"44 -61 CURVE SMOOTH",
"-18 -61 LINE",
"-18 -124 LINE",
"1 -128 OFFCURVE",
"26 -130 OFFCURVE",
"52 -130 CURVE SMOOTH"
);
}
);
width = 355;
}
);
leftKerningGroup = brace.sc;
leftMetricsKey = braceright;
rightKerningGroup = braceright.sc;
rightMetricsKey = braceright;
},
{
glyphname = bracketleft.sc;
lastChange = "2016-12-22 13:06:27 +0000";
layers = (
{
color = -1;
layerId = "E6A13138-87C4-4EDC-BDCD-C4EF9152A586";
paths = (
{
closed = 1;
nodes = (
"329 -126 LINE",
"329 -58 LINE",
"180 -58 LINE",
"180 678 LINE",
"330 678 LINE",
"330 746 LINE",
"99 746 LINE",
"99 -126 LINE"
);
}
);
width = 312;
}
);
leftKerningGroup = H;
leftMetricsKey = bracketleft;
rightKerningGroup = brace.sc;
rightMetricsKey = bracketleft;
},
{
glyphname = bracketright.sc;
lastChange = "2016-12-22 13:06:40 +0000";
layers = (
{
color = -1;
layerId = "E6A13138-87C4-4EDC-BDCD-C4EF9152A586";
paths = (
{
closed = 1;
nodes = (
"214 -120 LINE",
"214 740 LINE",
"-18 740 LINE",
"-18 672 LINE",
"132 672 LINE",
"132 -52 LINE",
"-17 -52 LINE",
"-17 -120 LINE"
);
}
);
width = 313;
}
);
leftKerningGroup = brace.sc;
leftMetricsKey = bracketright;
rightKerningGroup = H;
rightMetricsKey = bracketright;
},
{
glyphname = parenleft.sc;
lastChange = "2016-12-22 13:06:27 +0000";
layers = (
{
color = -1;
layerId = "E6A13138-87C4-4EDC-BDCD-C4EF9152A586";
paths = (
{
closed = 1;
nodes = (
"288 -120 LINE",
"199 -2 OFFCURVE",
"150 150 OFFCURVE",
"150 309 CURVE SMOOTH",
"150 469 OFFCURVE",
"200 622 OFFCURVE",
"290 740 CURVE",
"205 740 LINE",
"114 627 OFFCURVE",
"65 466 OFFCURVE",
"65 309 CURVE SMOOTH",
"65 152 OFFCURVE",
"114 -7 OFFCURVE",
"203 -120 CURVE"
);
}
);
width = 348;
}
);
leftKerningGroup = O;
leftMetricsKey = parenleft;
widthMetricsKey = parenleft;
rightKerningGroup = brace.sc;
},
{
glyphname = parenright.sc;
lastChange = "2016-12-22 13:06:27 +0000";
layers = (
{
color = -1;
layerId = "E6A13138-87C4-4EDC-BDCD-C4EF9152A586";
paths = (
{
closed = 1;
nodes = (
"234 -7 OFFCURVE",
"283 152 OFFCURVE",
"283 309 CURVE SMOOTH",
"283 466 OFFCURVE",
"234 627 OFFCURVE",
"144 740 CURVE",
"59 740 LINE",
"149 622 OFFCURVE",
"198 469 OFFCURVE",
"198 309 CURVE SMOOTH",
"198 150 OFFCURVE",
"149 -2 OFFCURVE",
"60 -120 CURVE",
"145 -120 LINE"
);
}
);
width = 348;
}
);
leftKerningGroup = brace.sc;
widthMetricsKey = parenright;
rightKerningGroup = O;
rightMetricsKey = parenright;
},
{
glyphname = cedi;
lastChange = "2016-12-22 13:06:27 +0000";
layers = (
{
color = -1;
layerId = "E6A13138-87C4-4EDC-BDCD-C4EF9152A586";
paths = (
{
closed = 1;
nodes = (
"477 -9 OFFCURVE",
"538 0 OFFCURVE",
"593 20 CURVE",
"593 92 LINE",
"529 71 OFFCURVE",
"476 63 OFFCURVE",
"417 63 CURVE SMOOTH",
"247 63 OFFCURVE",
"143 140 OFFCURVE",
"143 371 CURVE SMOOTH",
"143 592 OFFCURVE",
"244 677 OFFCURVE",
"423 677 CURVE SMOOTH",
"482 677 OFFCURVE",
"538 669 OFFCURVE",
"593 654 CURVE",
"593 726 LINE",
"537 742 OFFCURVE",
"483 749 OFFCURVE",
"419 749 CURVE SMOOTH",
"193 749 OFFCURVE",
"55 632 OFFCURVE",
"55 369 CURVE SMOOTH",
"55 93 OFFCURVE",
"197 -9 OFFCURVE",
"411 -9 CURVE SMOOTH"
);
},
{
closed = 1;
nodes = (
"424 -120 LINE",
"424 8 LINE",
"347 8 LINE",
"347 -120 LINE"
);
},
{
closed = 1;
nodes = (
"424 732 LINE",
"424 860 LINE",
"347 860 LINE",
"347 732 LINE"
);
}
);
width = 615;
}
);
leftKerningGroup = O;
leftMetricsKey = O;
rightKerningGroup = C;
rightMetricsKey = C;
unicode = 20B5;
},
{
glyphname = cent;
lastChange = "2016-12-22 13:06:27 +0000";
layers = (
{
color = -1;
layerId = "E6A13138-87C4-4EDC-BDCD-C4EF9152A586";
paths = (
{
closed = 1;
nodes = (
"352 -10 OFFCURVE",
"400 -1 OFFCURVE",
"445 15 CURVE",
"445 84 LINE",
"393 67 OFFCURVE",
"353 60 OFFCURVE",
"315 60 CURVE SMOOTH",
"197 60 OFFCURVE",
"135 120 OFFCURVE",
"135 273 CURVE SMOOTH",
"135 422 OFFCURVE",
"197 481 OFFCURVE",
"331 481 CURVE SMOOTH",
"371 481 OFFCURVE",
"406 476 OFFCURVE",
"445 466 CURVE",
"445 535 LINE",
"406 546 OFFCURVE",
"367 551 OFFCURVE",
"324 551 CURVE SMOOTH",
"147 551 OFFCURVE",
"50 464 OFFCURVE",
"50 271 CURVE SMOOTH",
"50 78 OFFCURVE",
"141 -10 OFFCURVE",
"304 -10 CURVE SMOOTH"
);
},
{
closed = 1;
nodes = (
"334 -120 LINE",
"334 8 LINE",
"262 8 LINE",
"262 -120 LINE"
);
},
{
closed = 1;
nodes = (
"334 535 LINE",
"334 663 LINE",
"262 663 LINE",
"262 535 LINE"
);
}
);
width = 473;
}
);
leftKerningGroup = o;
leftMetricsKey = o;
rightKerningGroup = c;
unicode = 00A2;
userData = {
com.typemytype.robofont.layerData = {
};
};
},
{
glyphname = colonsign;
lastChange = "2016-12-22 13:06:27 +0000";
layers = (
{
color = -1;
layerId = "E6A13138-87C4-4EDC-BDCD-C4EF9152A586";
paths = (
{
closed = 1;
nodes = (
"475 -9 OFFCURVE",
"536 0 OFFCURVE",
"593 19 CURVE",
"593 91 LINE",
"526 70 OFFCURVE",
"473 63 OFFCURVE",
"417 63 CURVE SMOOTH",
"240 63 OFFCURVE",
"143 147 OFFCURVE",
"143 371 CURVE SMOOTH",
"143 592 OFFCURVE",
"244 677 OFFCURVE",
"423 677 CURVE SMOOTH",
"481 677 OFFCURVE",
"537 670 OFFCURVE",
"593 654 CURVE",
"593 726 LINE",
"536 742 OFFCURVE",
"482 749 OFFCURVE",
"418 749 CURVE SMOOTH",
"191 749 OFFCURVE",
"55 632 OFFCURVE",
"55 369 CURVE SMOOTH",
"55 103 OFFCURVE",
"186 -9 OFFCURVE",
"411 -9 CURVE SMOOTH"
);
},
{
closed = 1;
nodes = (
"143 143 LINE",
"57 -120 LINE",
"114 -120 LINE",
"187 100 LINE"
);
},
{
closed = 1;
nodes = (
"265 51 LINE",
"209 -120 LINE",
"266 -120 LINE",
"317 35 LINE"
);
},
{
closed = 1;
nodes = (
"389 706 LINE",
"441 860 LINE",
"384 860 LINE",
"333 706 LINE"
);
},
{
closed = 1;
nodes = (
"541 706 LINE",
"593 860 LINE",
"536 860 LINE",
"484 706 LINE"
);
}
);
width = 615;
}
);
leftKerningGroup = O;
leftMetricsKey = O;
widthMetricsKey = C;
rightKerningGroup = C;
unicode = 20A1;
userData = {
com.typemytype.robofont.layerData = {
};
};
},
{
glyphname = currency;
lastChange = "2016-12-22 13:06:27 +0000";
layers = (
{
color = -1;
layerId = "E6A13138-87C4-4EDC-BDCD-C4EF9152A586";
paths = (
{
closed = 1;
nodes = (
"221 481 LINE",
"158 558 LINE",
"107 611 LINE",
"60 564 LINE",
"114 513 LINE",
"190 451 LINE"
);
},
{
closed = 1;
nodes = (
"491 513 LINE",
"544 564 LINE",
"497 611 LINE",
"446 558 LINE",
"384 481 LINE",
"414 451 LINE"
);
},
{
closed = 1;
nodes = (
"544 176 LINE",
"491 227 LINE",
"418 285 LINE",
"387 254 LINE",
"445 182 LINE",
"497 129 LINE"
);
},
{
closed = 1;
nodes = (
"159 182 LINE",
"217 254 LINE",
"187 285 LINE",
"114 227 LINE",
"61 176 LINE",
"108 129 LINE"
);
},
{
closed = 1;
nodes = (
"400 197 OFFCURVE",
"469 266 OFFCURVE",
"469 370 CURVE SMOOTH",
"469 473 OFFCURVE",
"400 542 OFFCURVE",
"302 542 CURVE SMOOTH",
"204 542 OFFCURVE",
"136 473 OFFCURVE",
"136 370 CURVE SMOOTH",
"136 266 OFFCURVE",
"204 197 OFFCURVE",
"302 197 CURVE SMOOTH"
);
},
{
closed = 1;
nodes = (
"236 250 OFFCURVE",
"191 295 OFFCURVE",
"191 370 CURVE SMOOTH",
"191 445 OFFCURVE",
"236 490 OFFCURVE",
"303 490 CURVE SMOOTH",
"374 490 OFFCURVE",
"414 440 OFFCURVE",
"414 370 CURVE SMOOTH",
"414 294 OFFCURVE",
"368 250 OFFCURVE",
"302 250 CURVE SMOOTH"
);
}
);
width = 605;
}
);
widthMetricsKey = zero.tf;
unicode = 00A4;
userData = {
com.typemytype.robofont.layerData = {
};
};
},
{
glyphname = dollar;
lastChange = "2016-12-22 13:06:27 +0000";
layers = (
{
color = -1;
layerId = "E6A13138-87C4-4EDC-BDCD-C4EF9152A586";
paths = (
{
closed = 1;
nodes = (
"424 -9 OFFCURVE",
"525 67 OFFCURVE",
"525 202 CURVE SMOOTH",
"525 309 OFFCURVE",
"461 371 OFFCURVE",
"311 404 CURVE SMOOTH",
"268 414 LINE SMOOTH",
"161 438 OFFCURVE",
"123 474 OFFCURVE",
"123 547 CURVE SMOOTH",
"123 630 OFFCURVE",
"183 679 OFFCURVE",
"320 679 CURVE SMOOTH",
"377 679 OFFCURVE",
"437 671 OFFCURVE",
"492 654 CURVE",
"492 725 LINE",
"440 741 OFFCURVE",
"379 749 OFFCURVE",
"317 749 CURVE SMOOTH",
"131 749 OFFCURVE",
"39 670 OFFCURVE",
"39 542 CURVE SMOOTH",
"39 434 OFFCURVE",
"104 370 OFFCURVE",
"241 340 CURVE SMOOTH",
"283 330 LINE SMOOTH",
"398 305 OFFCURVE",
"441 272 OFFCURVE",
"441 197 CURVE SMOOTH",
"441 109 OFFCURVE",
"380 61 OFFCURVE",
"247 61 CURVE SMOOTH",
"189 61 OFFCURVE",
"118 71 OFFCURVE",
"51 93 CURVE",
"51 21 LINE",
"113 1 OFFCURVE",
"184 -9 OFFCURVE",
"247 -9 CURVE SMOOTH"
);
},
{
closed = 1;
nodes = (
"321 -120 LINE",
"321 12 LINE",
"244 11 LINE",
"243.994 -120 LINE"
);
},
{
closed = 1;
nodes = (
"321 732 LINE",
"321 860 LINE",
"243.994 860 LINE",
"244 732 LINE"
);
}
);
width = 564;
}
);
leftKerningGroup = S;
leftMetricsKey = S;
rightKerningGroup = S;
rightMetricsKey = S;
unicode = 0024;
},
{
glyphname = dong;
lastChange = "2016-12-22 13:06:40 +0000";
layers = (
{
color = -1;
layerId = "E6A13138-87C4-4EDC-BDCD-C4EF9152A586";
paths = (
{
closed = 1;
nodes = (
"347 -9 OFFCURVE",
"404 18 OFFCURVE",
"441 62 CURVE",
"446 62 LINE",
"452 0 LINE",
"522 0 LINE",
"522 808 LINE",
"440 808 LINE",
"440 543 LINE",
"411 547 OFFCURVE",
"375 551 OFFCURVE",
"338 551 CURVE SMOOTH",
"148 551 OFFCURVE",
"50 454 OFFCURVE",
"50 260 CURVE SMOOTH",
"50 65 OFFCURVE",
"151 -9 OFFCURVE",
"278 -9 CURVE SMOOTH"
);
},
{
closed = 1;
nodes = (
"522 -147 LINE",
"522 -85 LINE",
"79 -85 LINE",
"79 -147 LINE"
);
},
{
closed = 1;
nodes = (
"202 61 OFFCURVE",
"133 110 OFFCURVE",
"133 267 CURVE SMOOTH",
"133 419 OFFCURVE",
"201 484 OFFCURVE",
"338 484 CURVE SMOOTH",
"374 484 OFFCURVE",
"412 480 OFFCURVE",
"440 473 CURVE",
"440 130 LINE",
"402 80 OFFCURVE",
"349 61 OFFCURVE",
"297 61 CURVE SMOOTH"
);
},
{
closed = 1;
nodes = (
"598 649 LINE",
"598 706 LINE",
"246 706 LINE",
"246 649 LINE"
);
}
);
width = 602;
}
);
leftKerningGroup = o;
leftMetricsKey = o;
widthMetricsKey = dcroat;
rightKerningGroup = dong;
unicode = 20AB;
},
